<?xml version="1.0" standalone="no"?>
<!DOCTYPE svg PUBLIC "-//W3C//DTD SVG 20010904//EN"
 "http://www.w3.org/TR/2001/REC-SVG-20010904/DTD/svg10.dtd">
<svg version="1.0" xmlns="http://www.w3.org/2000/svg"
 width="72.000000pt" height="96.000000pt" viewBox="0 0 72.000000 96.000000"
 preserveAspectRatio="xMidYMid meet">
<metadata>
Created by potrace 1.16, written by Peter Selinger 2001-2019
</metadata>
<g transform="translate(0.000000,96.000000) scale(0.100000,-0.100000)"
fill="#000000" stroke="none">
<path d="M0 480 l0 -480 360 0 360 0 0 480 0 480 -360 0 -360 0 0 -480z m700
0 l0 -470 -345 0 -345 0 0 470 0 470 345 0 345 0 0 -470z"/>
<path d="M81 893 c-1 -33 -24 -46 -34 -20 -4 7 -6 8 -6 1 -1 -6 5 -17 13 -23
19 -16 39 10 33 46 -4 27 -4 27 -6 -4z"/>
<path d="M52 818 c-16 -16 -15 -43 1 -57 16 -13 37 4 37 30 0 25 -24 41 -38
27z m28 -28 c0 -11 -7 -20 -15 -20 -8 0 -15 9 -15 20 0 11 7 20 15 20 8 0 15
-9 15 -20z"/>
<path d="M320 809 c-7 -11 -9 -23 -7 -26 9 -8 68 27 62 37 -11 17 -44 11 -55
-11z"/>
<path d="M370 790 c0 -5 9 -10 20 -10 12 0 24 -10 30 -22 5 -13 9 -17 9 -10 2
24 -20 52 -39 52 -11 0 -20 -4 -20 -10z"/>
<path d="M43 700 c0 -25 2 -35 4 -22 2 12 2 32 0 45 -2 12 -4 2 -4 -23z"/>
<path d="M72 719 c-10 -16 -10 -24 3 -42 8 -12 15 -17 15 -11 0 5 -5 15 -12
22 -8 8 -8 15 2 27 7 8 11 17 9 20 -3 2 -10 -5 -17 -16z"/>
<path d="M312 725 c2 -12 -5 -19 -21 -22 -33 -5 -35 -7 -20 -35 11 -22 11 -22
-7 -6 -18 15 -20 15 -41 -2 -55 -44 -2 -111 54 -68 18 14 26 -26 14 -69 -15
-54 -14 -93 3 -93 8 0 17 -6 19 -12 3 -7 6 5 6 26 1 44 10 45 13 2 2 -23 4
-25 14 -11 10 14 12 13 17 -5 3 -11 0 -23 -5 -26 -7 -4 -9 -41 -6 -100 4 -68
2 -94 -7 -98 -7 -2 -17 0 -23 6 -8 8 -9 5 -5 -10 4 -17 -4 -27 -43 -52 -57
-35 -53 -37 18 -9 58 23 135 22 179 -2 21 -11 22 -10 12 3 -7 8 -30 23 -52 32
l-38 18 -2 65 c-1 41 7 99 20 152 21 81 22 89 7 119 -9 18 -12 32 -7 32 5 0 9
8 9 19 0 10 7 24 15 31 12 10 13 15 4 21 -10 6 -10 11 1 24 13 16 15 16 21 -2
6 -14 7 -12 6 9 -1 19 -8 29 -23 32 -12 3 -30 9 -41 12 -15 5 -16 4 -3 -6 11
-9 12 -13 2 -17 -6 -2 -9 -10 -6 -15 4 -6 2 -8 -4 -4 -6 3 -13 2 -17 -3 -3 -6
-13 -7 -22 -4 -12 5 -14 3 -8 -7 5 -8 4 -11 -2 -7 -6 4 -16 0 -23 -8 -15 -19
-30 -19 -30 -2 0 21 35 48 54 41 9 -3 16 -1 16 6 0 6 -5 8 -12 4 -7 -5 -8 -3
-3 5 4 8 -2 21 -15 33 -19 18 -21 18 -18 3z m56 -162 c-10 -2 -28 -2 -40 0
-13 2 -5 4 17 4 22 1 32 -1 23 -4z"/>
<path d="M486 661 c-3 -5 1 -11 9 -15 8 -3 15 -1 15 4 0 13 -18 22 -24 11z"/>
<path d="M40 610 c0 -37 2 -40 28 -39 l27 0 -25 11 c-24 10 -24 10 -5 18 17 7
17 9 3 9 -25 1 -22 20 5 31 21 8 21 9 -5 9 -26 1 -28 -2 -28 -39z"/>
<path d="M42 518 l1 -43 4 38 c4 35 12 45 26 30 4 -3 3 -11 -2 -17 -6 -7 -4
-18 5 -30 8 -11 14 -15 14 -9 0 7 -5 15 -10 18 -8 5 -8 11 -1 19 12 14 -4 36
-26 36 -9 0 -12 -13 -11 -42z"/>
<path d="M620 473 c0 -7 5 -15 11 -19 8 -4 8 -9 0 -17 -13 -13 4 -37 25 -37
10 0 14 12 12 43 l-1 42 -4 -37 c-4 -36 -12 -46 -26 -31 -4 3 -3 11 2 17 6 7
4 18 -5 30 -8 11 -14 15 -14 9z"/>
<path d="M213 393 c-19 -4 -21 -8 -13 -24 15 -27 35 -24 36 6 1 14 1 24 0 24
0 -1 -11 -4 -23 -6z"/>
<path d="M640 378 c24 -10 24 -10 5 -18 -17 -7 -17 -9 -2 -9 24 -1 21 -20 -5
-31 -22 -8 -22 -9 5 -9 25 -1 27 2 27 39 0 37 -2 40 -27 39 l-28 0 25 -11z"/>
<path d="M620 294 c0 -5 5 -15 12 -22 9 -9 9 -15 0 -24 -7 -7 -12 -17 -12 -22
0 -6 7 0 16 12 14 20 14 24 0 44 -9 12 -16 18 -16 12z"/>
<path d="M663 260 c0 -25 2 -35 4 -22 2 12 2 32 0 45 -2 12 -4 2 -4 -23z"/>
<path d="M632 198 c-16 -16 -15 -43 1 -57 16 -13 37 4 37 30 0 25 -24 41 -38
27z m28 -28 c0 -11 -7 -20 -15 -20 -8 0 -15 9 -15 20 0 11 7 20 15 20 8 0 15
-9 15 -20z"/>
<path d="M631 106 c-7 -8 -11 -27 -8 -43 4 -27 4 -27 6 5 1 32 24 45 34 20 4
-8 6 -9 6 -2 1 6 -5 17 -13 23 -10 9 -16 8 -25 -3z"/>
</g>
</svg>
