<?xml version="1.0" standalone="no"?>
<!DOCTYPE svg PUBLIC "-//W3C//DTD SVG 20010904//EN"
 "http://www.w3.org/TR/2001/REC-SVG-20010904/DTD/svg10.dtd">
<svg version="1.0" xmlns="http://www.w3.org/2000/svg"
 width="96.000000pt" height="11.000000pt" viewBox="0 0 96.000000 11.000000"
 preserveAspectRatio="xMidYMid meet">
<metadata>
Created by potrace 1.16, written by Peter Selinger 2001-2019
</metadata>
<g transform="translate(0.000000,11.000000) scale(0.100000,-0.100000)"
fill="#000000" stroke="none">
<path d="M2 58 l-2 -58 480 0 480 0 -2 58 -2 57 -3 -52 -4 -53 -469 0 -469 0
-4 52 -3 53 -2 -57z"/>
<path d="M40 75 l0 -35 440 0 440 0 0 35 c0 19 -4 35 -10 35 -5 0 -10 -11 -10
-25 l0 -25 -420 0 -420 0 0 25 c0 14 -4 25 -10 25 -5 0 -10 -16 -10 -35z"/>
<path d="M70 88 c0 -17 18 -18 410 -18 390 0 410 1 410 18 0 18 -20 19 -410
19 -392 0 -410 -1 -410 -19z"/>
</g>
</svg>
