<?xml version="1.0" standalone="no"?>
<!DOCTYPE svg PUBLIC "-//W3C//DTD SVG 20010904//EN"
 "http://www.w3.org/TR/2001/REC-SVG-20010904/DTD/svg10.dtd">
<svg version="1.0" xmlns="http://www.w3.org/2000/svg"
 width="96.000000pt" height="71.000000pt" viewBox="0 0 96.000000 71.000000"
 preserveAspectRatio="xMidYMid meet">
<metadata>
Created by potrace 1.16, written by Peter Selinger 2001-2019
</metadata>
<g transform="translate(0.000000,71.000000) scale(0.100000,-0.100000)"
fill="#000000" stroke="none">
<path d="M0 355 l0 -355 480 0 480 0 0 355 0 355 -480 0 -480 0 0 -355z m950
0 l0 -345 -470 0 -470 0 0 345 0 345 470 0 470 0 0 -345z"/>
<path d="M40 355 l0 -315 440 0 440 0 0 315 0 315 -440 0 -440 0 0 -315z m860
0 l0 -295 -420 0 -420 0 0 295 0 295 420 0 420 0 0 -295z"/>
<path d="M70 355 l0 -285 410 0 410 0 0 285 0 285 -410 0 -410 0 0 -285z"/>
</g>
</svg>
