<?xml version="1.0" standalone="no"?>
<!DOCTYPE svg PUBLIC "-//W3C//DTD SVG 20010904//EN"
 "http://www.w3.org/TR/2001/REC-SVG-20010904/DTD/svg10.dtd">
<svg version="1.0" xmlns="http://www.w3.org/2000/svg"
 width="12.000000pt" height="96.000000pt" viewBox="0 0 12.000000 96.000000"
 preserveAspectRatio="xMidYMid meet">
<metadata>
Created by potrace 1.16, written by Peter Selinger 2001-2019
</metadata>
<g transform="translate(0.000000,96.000000) scale(0.100000,-0.100000)"
fill="#000000" stroke="none">
<path d="M0 480 l0 -480 63 2 62 2 -57 3 -58 4 0 469 0 469 58 4 57 3 -62 2
-63 2 0 -480z"/>
<path d="M40 480 l0 -440 40 0 c22 0 40 5 40 10 0 6 -13 10 -30 10 l-30 0 0
420 0 420 30 0 c17 0 30 5 30 10 0 6 -18 10 -40 10 l-40 0 0 -440z"/>
<path d="M70 480 l0 -410 25 0 c18 0 25 5 25 19 0 11 -6 22 -12 24 -10 4 -10
6 0 6 16 1 16 28 0 34 -10 4 -10 6 0 6 6 1 12 7 12 15 0 8 -6 17 -12 19 -10 4
-10 6 0 6 6 1 12 7 12 15 0 8 -6 17 -12 19 -10 4 -10 6 0 6 6 1 12 7 12 15 0
8 -6 17 -12 19 -10 4 -10 6 0 6 6 1 12 7 12 15 0 8 -6 17 -12 19 -10 4 -10 6
0 6 6 1 12 7 12 15 0 8 -6 17 -12 19 -10 4 -10 6 0 6 6 1 12 7 12 15 0 8 -6
17 -12 19 -10 4 -10 6 0 6 6 1 12 7 12 15 0 8 -6 17 -12 19 -10 4 -10 6 0 6 6
1 12 7 12 15 0 8 -6 17 -12 19 -10 4 -10 6 0 6 6 1 12 7 12 15 0 8 -6 17 -12
19 -10 4 -10 6 0 6 6 1 12 7 12 15 0 8 -6 17 -12 19 -10 4 -10 6 0 6 6 1 12 7
12 15 0 8 -6 17 -12 19 -10 4 -10 6 0 6 6 1 12 7 12 15 0 8 -6 17 -12 19 -10
4 -10 6 0 6 6 1 12 7 12 15 0 8 -6 17 -12 19 -10 4 -10 6 0 6 6 1 12 7 12 15
0 8 -6 17 -12 19 -10 4 -10 6 0 6 6 1 12 7 12 15 0 8 -6 17 -12 19 -10 4 -10
6 0 6 6 1 12 7 12 15 0 8 -6 17 -12 19 -10 4 -10 6 0 6 6 1 12 7 12 15 0 8 -6
17 -12 19 -10 4 -10 6 0 6 6 1 12 8 12 16 0 8 -6 15 -12 15 -9 0 -8 4 2 10 12
8 9 10 -12 10 l-28 0 0 -410z"/>
</g>
</svg>
