<?xml version="1.0" standalone="no"?>
<!DOCTYPE svg PUBLIC "-//W3C//DTD SVG 20010904//EN"
 "http://www.w3.org/TR/2001/REC-SVG-20010904/DTD/svg10.dtd">
<svg version="1.0" xmlns="http://www.w3.org/2000/svg"
 width="12.000000pt" height="96.000000pt" viewBox="0 0 12.000000 96.000000"
 preserveAspectRatio="xMidYMid meet">
<metadata>
Created by potrace 1.16, written by Peter Selinger 2001-2019
</metadata>
<g transform="translate(0.000000,96.000000) scale(0.100000,-0.100000)"
fill="#000000" stroke="none">
<path d="M53 953 l57 -4 0 -469 0 -469 -57 -4 -58 -3 63 -2 62 -2 0 480 0 480
-62 -2 -63 -2 58 -3z"/>
<path d="M0 910 c0 -5 13 -10 30 -10 l30 0 0 -420 0 -420 -30 0 c-17 0 -30 -4
-30 -10 0 -5 18 -10 40 -10 l40 0 0 440 0 440 -40 0 c-22 0 -40 -4 -40 -10z"/>
<path d="M3 480 l0 -410 24 0 23 0 0 410 0 410 -23 0 -24 0 0 -410z"/>
</g>
</svg>
