<?xml version="1.0" standalone="no"?>
<!DOCTYPE svg PUBLIC "-//W3C//DTD SVG 20010904//EN"
 "http://www.w3.org/TR/2001/REC-SVG-20010904/DTD/svg10.dtd">
<svg version="1.0" xmlns="http://www.w3.org/2000/svg"
 width="71.000000pt" height="96.000000pt" viewBox="0 0 71.000000 96.000000"
 preserveAspectRatio="xMidYMid meet">
<metadata>
Created by potrace 1.16, written by Peter Selinger 2001-2019
</metadata>
<g transform="translate(0.000000,96.000000) scale(0.100000,-0.100000)"
fill="#000000" stroke="none">
<path d="M0 480 l0 -480 355 0 355 0 0 480 0 480 -355 0 -355 0 0 -480z m700
0 l0 -470 -345 0 -345 0 0 470 0 470 345 0 345 0 0 -470z"/>
<path d="M40 480 l0 -440 315 0 315 0 0 440 0 440 -315 0 -315 0 0 -440z m610
0 l0 -420 -295 0 -295 0 0 420 0 420 295 0 295 0 0 -420z"/>
<path d="M70 480 l0 -410 285 0 285 0 0 410 0 410 -285 0 -285 0 0 -410z"/>
</g>
</svg>
