<?xml version="1.0" standalone="no"?>
<!DOCTYPE svg PUBLIC "-//W3C//DTD SVG 20010904//EN"
 "http://www.w3.org/TR/2001/REC-SVG-20010904/DTD/svg10.dtd">
<svg version="1.0" xmlns="http://www.w3.org/2000/svg"
 width="72.000000pt" height="96.000000pt" viewBox="0 0 72.000000 96.000000"
 preserveAspectRatio="xMidYMid meet">
<metadata>
Created by potrace 1.16, written by Peter Selinger 2001-2019
</metadata>
<g transform="translate(0.000000,96.000000) scale(0.100000,-0.100000)"
fill="#000000" stroke="none">
<path d="M0 480 l0 -480 360 0 360 0 0 480 0 480 -360 0 -360 0 0 -480z m700
0 l0 -470 -345 0 -345 0 0 470 0 470 345 0 345 0 0 -470z"/>
<path d="M47 865 c-32 -67 -32 -65 -6 -65 15 0 19 5 15 15 -4 11 1 15 19 15
18 0 23 -4 19 -15 -4 -10 0 -15 15 -15 26 0 26 3 -7 68 l-28 52 -27 -55z m37
0 c3 -9 0 -15 -9 -15 -9 0 -12 6 -9 15 4 8 7 15 9 15 2 0 5 -7 9 -15z"/>
<path d="M55 761 c-3 -6 -3 -16 0 -21 4 -6 1 -9 -7 -8 -7 2 -13 -6 -13 -17 0
-13 6 -19 18 -18 12 0 16 -4 13 -13 -3 -8 1 -14 9 -14 8 0 12 6 9 14 -3 9 1
13 13 13 12 -1 18 5 18 18 0 11 -5 19 -11 18 -7 -1 -11 5 -10 15 1 18 -29 29
-39 13z"/>
<path d="M329 544 c-10 -12 -10 -20 -1 -35 11 -16 9 -18 -9 -16 -32 3 -48 -28
-26 -50 15 -15 20 -16 38 -5 19 12 20 11 14 -7 -5 -15 -2 -21 10 -21 12 0 15
6 10 21 -6 18 -5 19 14 7 18 -11 23 -10 38 5 22 22 6 53 -26 50 -18 -2 -20 0
-9 16 9 15 9 23 -1 35 -8 9 -19 16 -26 16 -7 0 -18 -7 -26 -16z"/>
<path d="M626 276 c3 -9 -1 -13 -13 -13 -12 1 -18 -5 -18 -18 0 -11 5 -19 11
-18 7 1 11 -5 10 -15 -1 -11 6 -17 19 -17 13 0 20 6 19 17 -1 10 3 16 10 15 6
-1 11 7 11 18 0 13 -6 19 -18 18 -12 0 -16 4 -13 13 3 8 -1 14 -9 14 -8 0 -12
-6 -9 -14z"/>
<path d="M580 155 c0 -2 12 -30 27 -60 l27 -55 28 52 c33 65 33 68 7 68 -15 0
-19 -5 -15 -15 4 -11 -1 -15 -19 -15 -18 0 -23 4 -19 15 4 10 0 15 -15 15 -12
0 -21 -2 -21 -5z m64 -60 c-4 -8 -7 -15 -9 -15 -2 0 -5 7 -9 15 -3 9 0 15 9
15 9 0 12 -6 9 -15z"/>
</g>
</svg>
