<?xml version="1.0" standalone="no"?>
<!DOCTYPE svg PUBLIC "-//W3C//DTD SVG 20010904//EN"
 "http://www.w3.org/TR/2001/REC-SVG-20010904/DTD/svg10.dtd">
<svg version="1.0" xmlns="http://www.w3.org/2000/svg"
 width="72.000000pt" height="96.000000pt" viewBox="0 0 72.000000 96.000000"
 preserveAspectRatio="xMidYMid meet">
<metadata>
Created by potrace 1.16, written by Peter Selinger 2001-2019
</metadata>
<g transform="translate(0.000000,96.000000) scale(0.100000,-0.100000)"
fill="#000000" stroke="none">
<path d="M0 480 l0 -480 360 0 360 0 0 480 0 480 -360 0 -360 0 0 -480z m700
0 l0 -470 -345 0 -345 0 0 470 0 470 345 0 345 0 0 -470z"/>
<path d="M68 870 c3 -31 1 -50 -6 -50 -6 0 -12 6 -15 13 -2 6 -8 9 -12 5 -13
-12 4 -38 25 -38 24 0 27 7 33 73 4 40 2 47 -13 47 -14 0 -16 -7 -12 -50z"/>
<path d="M120 480 l0 -380 235 0 235 0 0 374 c0 348 1 375 18 379 9 3 -97 5
-235 6 l-253 1 0 -380z m164 345 c21 -33 5 -121 -25 -130 -11 -4 -17 -11 -13
-16 3 -6 0 -17 -7 -25 -9 -11 -9 -18 -1 -26 18 -18 14 -48 -5 -48 -14 0 -15 2
-4 9 9 6 10 11 2 15 -6 4 -18 0 -27 -9 -12 -12 -19 -13 -30 -4 -16 13 -19 23
-5 14 6 -3 15 3 21 14 14 27 -5 38 -29 17 -15 -14 -18 -14 -18 -1 0 8 4 12 9
9 10 -6 -2 58 -13 70 -5 6 -9 38 -9 73 l0 63 69 0 c62 0 70 -2 85 -25z m284 6
c-13 -18 -11 -73 5 -186 2 -16 2 -21 0 -10 -3 11 -9 24 -14 29 -14 15 -23 -25
-11 -45 7 -10 12 -47 12 -81 l0 -63 -24 36 c-34 50 -36 70 -6 86 22 11 15 19
-14 14 -5 -1 -6 7 -3 19 3 11 2 18 -1 16 -4 -2 -13 2 -20 10 -11 12 -10 14 3
14 8 0 15 7 15 16 0 13 -3 14 -14 5 -11 -9 -15 -9 -19 1 -3 9 -11 7 -28 -9
-13 -13 -18 -23 -11 -23 7 0 10 -4 7 -10 -3 -5 -1 -10 4 -10 6 0 11 4 11 10 0
5 7 7 15 3 9 -3 14 -8 11 -10 -3 -3 -1 -15 4 -27 9 -26 3 -40 -24 -49 -14 -6
-16 -10 -7 -21 6 -7 8 -16 4 -19 -3 -4 -1 -7 6 -7 7 0 11 -6 8 -13 -3 -7 4
-19 14 -26 11 -6 17 -16 14 -20 -2 -5 2 -12 10 -15 8 -3 14 -9 13 -13 -1 -4 3
-18 10 -30 11 -20 10 -22 -5 -16 -25 9 -43 24 -43 36 0 6 7 2 16 -9 15 -18 15
-18 4 3 -6 14 -16 20 -25 17 -11 -5 -12 -11 -4 -27 10 -21 10 -21 -5 -3 -14
18 -14 21 1 38 13 15 14 21 4 31 -10 9 -11 8 -6 -8 6 -16 3 -16 -14 5 -11 14
-25 50 -31 80 -6 30 -15 68 -18 84 -9 37 -31 47 -28 12 2 -17 -2 -26 -11 -26
-9 0 -12 8 -9 24 7 41 -3 65 -26 61 -12 -3 -28 0 -37 5 -11 7 -12 9 -2 10 7 0
11 6 7 15 -3 8 -1 15 3 15 5 0 7 8 4 19 -3 10 0 22 5 25 6 4 8 -2 5 -14 -4
-14 0 -20 12 -20 12 0 15 -6 11 -22 -6 -23 -6 -23 6 0 9 18 9 28 1 41 -10 17
-5 18 60 20 70 2 114 21 101 42 -3 5 11 9 31 9 33 0 35 -1 23 -19z m-263 -162
c-10 -15 -25 -10 -19 6 4 8 10 12 15 9 5 -3 7 -10 4 -15z m48 -6 c-7 -3 -13
-11 -13 -19 0 -9 -5 -12 -11 -9 -7 5 -4 14 7 26 9 11 20 16 23 13 3 -4 0 -9
-6 -11z m10 -59 c13 -5 17 -18 17 -60 0 -30 -2 -54 -4 -54 -3 0 -18 12 -33 26
-15 15 -41 35 -56 44 -16 10 -24 20 -19 24 5 3 20 -5 33 -18 l24 -24 -3 40
c-3 31 -1 39 9 34 8 -3 22 -9 32 -12z m-155 -47 c6 -5 12 -14 12 -20 0 -6 -7
-2 -16 9 -15 18 -15 18 -4 -3 6 -14 16 -20 25 -17 11 5 12 11 4 27 -9 21 -9
21 5 4 8 -11 12 -25 9 -33 -3 -8 2 -26 11 -40 10 -15 14 -33 10 -46 -4 -15 -3
-18 7 -13 9 6 11 2 7 -13 -4 -12 -2 -20 3 -16 5 3 9 -13 9 -35 0 -40 26 -81
50 -81 6 0 10 -6 10 -14 0 -10 8 -13 21 -11 12 3 29 0 38 -5 11 -6 12 -9 3
-10 -7 0 -11 -4 -7 -9 3 -5 1 -12 -4 -15 -5 -3 -7 -15 -4 -25 3 -10 0 -22 -5
-25 -6 -4 -8 2 -5 14 4 14 1 20 -8 18 -9 -2 -13 5 -12 22 l2 25 -11 -23 c-9
-17 -9 -28 -1 -41 10 -17 5 -18 -60 -20 -40 -1 -73 -6 -75 -12 -6 -16 -20 -10
-25 13 -4 12 -9 19 -13 15 -3 -3 -3 -14 1 -24 16 -38 14 -43 -21 -43 -32 0
-34 1 -22 19 13 18 11 73 -5 186 -2 17 -2 21 0 10 3 -11 9 -24 14 -29 14 -16
23 23 10 48 -7 12 -11 48 -9 81 l3 60 28 -48 c23 -38 26 -51 17 -63 -7 -8 -20
-14 -29 -14 -13 0 -14 -2 -1 -9 8 -6 18 -7 24 -4 5 4 7 -3 4 -15 -4 -12 -3
-20 0 -18 4 2 13 -2 20 -10 11 -12 10 -14 -3 -14 -8 0 -15 -6 -15 -12 0 -20
47 -18 66 3 11 12 13 19 5 19 -7 0 -9 5 -6 10 3 6 1 10 -4 10 -6 0 -11 -4 -11
-10 0 -5 -7 -7 -15 -3 -9 3 -14 8 -11 10 3 3 1 15 -4 27 -10 26 -3 40 25 50
16 6 17 9 5 16 -8 5 -11 12 -7 16 4 4 2 13 -4 21 -6 7 -8 13 -3 13 5 0 -2 7
-14 16 -12 8 -20 19 -17 24 3 4 2 10 -2 12 -5 1 -16 18 -26 35 -17 32 -17 33
0 26 10 -3 24 -10 31 -16z m-58 -19 c0 -18 -2 -20 -9 -8 -6 8 -7 18 -5 22 9
14 14 9 14 -14z m146 -11 c8 3 14 1 14 -5 0 -6 3 -17 6 -25 3 -9 -3 -20 -15
-26 -17 -10 -20 -9 -14 5 4 10 2 15 -3 12 -5 -4 -10 8 -10 25 -1 18 1 27 3 20
2 -7 11 -9 19 -6z m127 -44 c-4 -10 -2 -14 4 -10 12 8 12 -11 0 -30 -10 -16
-27 -17 -27 -2 0 5 4 8 9 4 17 -10 21 12 6 25 -12 10 -15 10 -15 0 0 -8 -3
-10 -7 -6 -5 4 1 14 11 22 25 18 27 18 19 -3z m-67 -28 c3 -8 26 -28 50 -44
25 -16 41 -32 36 -35 -5 -3 -20 5 -33 18 l-24 24 3 -39 c5 -43 4 -44 -33 -27
-22 10 -25 17 -25 65 0 50 14 71 26 38z m217 -25 c3 -11 1 -23 -4 -26 -5 -3
-9 6 -9 20 0 31 6 34 13 6z m-92 -59 c-9 -6 -10 -11 -2 -15 6 -4 18 0 27 8 19
20 19 20 35 -1 9 -10 9 -14 2 -10 -7 5 -16 -1 -23 -12 -14 -27 5 -38 29 -17
15 14 18 14 18 1 0 -8 -4 -12 -9 -9 -10 6 2 -58 13 -70 5 -6 9 -38 9 -73 l0
-63 -69 0 c-62 0 -70 2 -85 25 -21 33 -5 121 25 130 11 4 17 11 14 16 -3 5 -1
17 5 28 7 13 7 22 0 26 -17 11 -11 45 8 45 13 0 14 -2 3 -9z m-134 -45 c-3 -8
1 -17 9 -20 8 -3 14 1 14 10 0 8 5 12 11 9 7 -5 4 -14 -8 -27 -10 -11 -19 -15
-21 -9 -2 6 -7 9 -12 6 -4 -3 -14 3 -21 12 -12 14 -12 16 0 8 11 -6 13 -4 8 8
-4 12 -1 17 9 17 10 0 14 -6 11 -14z m77 -41 c-4 -8 -10 -12 -15 -9 -11 6 -2
24 11 24 5 0 7 -7 4 -15z"/>
<path d="M165 831 c-3 -6 -3 -16 0 -21 4 -6 1 -9 -7 -8 -7 2 -13 -6 -13 -17 0
-13 6 -19 18 -18 12 0 16 -4 13 -13 -3 -8 1 -14 9 -14 8 0 12 6 9 14 -3 9 1
13 13 13 12 -1 18 5 18 18 0 11 -5 19 -11 18 -7 -1 -11 5 -10 15 1 18 -29 29
-39 13z"/>
<path d="M205 670 c-3 -5 -2 -10 4 -10 5 0 13 5 16 10 3 6 2 10 -4 10 -5 0
-13 -4 -16 -10z"/>
<path d="M510 806 c0 -8 5 -18 10 -21 6 -3 10 1 10 9 0 8 -4 18 -10 21 -5 3
-10 -1 -10 -9z"/>
<path d="M462 773 c-6 -2 -10 -9 -6 -14 8 -14 21 -11 21 6 0 8 -1 15 -1 14 -1
0 -7 -3 -14 -6z"/>
<path d="M392 761 c2 -7 7 -12 11 -12 12 1 9 15 -3 20 -7 2 -11 -2 -8 -8z"/>
<path d="M317 730 c-3 -11 -1 -20 4 -20 5 0 9 9 9 20 0 11 -2 20 -4 20 -2 0
-6 -9 -9 -20z"/>
<path d="M470 721 c0 -5 9 -7 20 -4 11 3 20 7 20 9 0 2 -9 4 -20 4 -11 0 -20
-4 -20 -9z"/>
<path d="M440 621 c0 -6 5 -13 10 -16 6 -3 10 1 10 9 0 9 -4 16 -10 16 -5 0
-10 -4 -10 -9z"/>
<path d="M432 580 c0 -14 2 -19 5 -12 2 6 2 18 0 25 -3 6 -5 1 -5 -13z"/>
<path d="M450 501 c0 -6 4 -13 10 -16 6 -3 7 1 4 9 -7 18 -14 21 -14 7z"/>
<path d="M335 574 c3 -39 35 -86 35 -51 0 10 -4 15 -10 12 -5 -3 -10 -1 -10 4
0 6 4 11 8 11 4 0 9 10 9 22 2 18 0 20 -7 8 -9 -14 -11 -13 -14 9 -4 28 -13
16 -11 -15z"/>
<path d="M220 505 c0 -4 9 -18 20 -32 11 -14 20 -22 20 -18 0 4 -9 18 -20 32
-11 14 -20 22 -20 18z"/>
<path d="M250 346 c0 -9 5 -16 10 -16 6 0 10 4 10 9 0 6 -4 13 -10 16 -5 3
-10 -1 -10 -9z"/>
<path d="M215 240 c-19 -8 -19 -9 3 -9 12 -1 22 4 22 9 0 6 -1 10 -2 9 -2 0
-12 -4 -23 -9z"/>
<path d="M380 228 c0 -12 3 -18 7 -14 11 10 12 36 2 36 -5 0 -9 -10 -9 -22z"/>
<path d="M296 212 c-3 -6 -1 -14 5 -17 15 -10 25 3 12 16 -7 7 -13 7 -17 1z"/>
<path d="M235 200 c3 -5 11 -10 16 -10 6 0 7 5 4 10 -3 6 -11 10 -16 10 -6 0
-7 -4 -4 -10z"/>
<path d="M286 512 c-3 -5 1 -15 9 -22 16 -14 20 -3 6 19 -5 8 -11 9 -15 3z"/>
<path d="M340 437 c0 -10 5 -15 10 -12 6 3 10 1 10 -4 0 -6 -4 -11 -9 -11 -5
0 -3 -13 5 -30 9 -16 16 -30 17 -30 1 0 2 16 1 36 -2 38 -34 86 -34 51z"/>
<path d="M485 290 c-3 -5 -2 -10 4 -10 5 0 13 5 16 10 3 6 2 10 -4 10 -5 0
-13 -4 -16 -10z"/>
<path d="M516 206 c3 -9 -1 -13 -13 -13 -12 1 -18 -5 -18 -18 0 -11 5 -19 11
-18 7 1 11 -5 10 -15 -1 -11 6 -17 19 -17 13 0 20 6 19 17 -1 10 3 16 10 15 6
-1 11 7 11 18 0 13 -6 19 -18 18 -12 0 -16 4 -13 13 3 8 -1 14 -9 14 -8 0 -12
-6 -9 -14z"/>
<path d="M45 771 c-3 -6 -3 -16 0 -21 4 -6 1 -9 -7 -8 -7 2 -13 -6 -13 -17 0
-13 6 -19 18 -18 12 0 16 -4 13 -13 -3 -8 1 -14 9 -14 8 0 12 6 9 14 -3 9 1
13 13 13 12 -1 18 5 18 18 0 11 -5 19 -11 18 -7 -1 -11 5 -10 15 1 18 -29 29
-39 13z"/>
<path d="M636 266 c3 -9 -1 -13 -13 -13 -12 1 -18 -5 -18 -18 0 -11 5 -19 11
-18 7 1 11 -5 10 -15 -1 -11 6 -17 19 -17 13 0 20 6 19 17 -1 10 3 16 10 15 6
-1 11 7 11 18 0 13 -6 19 -18 18 -12 0 -16 4 -13 13 3 8 -1 14 -9 14 -8 0 -12
-6 -9 -14z"/>
<path d="M625 148 c-2 -7 -5 -34 -8 -60 -4 -41 -2 -48 13 -48 14 0 16 7 12 50
-3 31 -1 50 6 50 6 0 12 -6 15 -12 2 -7 8 -10 12 -6 4 4 5 14 2 23 -8 18 -46
20 -52 3z"/>
</g>
</svg>
