<?xml version="1.0" standalone="no"?>
<!DOCTYPE svg PUBLIC "-//W3C//DTD SVG 20010904//EN"
 "http://www.w3.org/TR/2001/REC-SVG-20010904/DTD/svg10.dtd">
<svg version="1.0" xmlns="http://www.w3.org/2000/svg"
 width="72.000000pt" height="96.000000pt" viewBox="0 0 72.000000 96.000000"
 preserveAspectRatio="xMidYMid meet">
<metadata>
Created by potrace 1.16, written by Peter Selinger 2001-2019
</metadata>
<g transform="translate(0.000000,96.000000) scale(0.100000,-0.100000)"
fill="#000000" stroke="none">
<path d="M0 480 l0 -480 360 0 360 0 0 480 0 480 -360 0 -360 0 0 -480z m700
0 l0 -470 -345 0 -345 0 0 470 0 470 345 0 345 0 0 -470z"/>
<path d="M37 914 c-4 -4 -7 -29 -7 -55 0 -43 3 -49 32 -63 17 -9 32 -16 34
-16 1 0 1 30 0 68 -1 64 -2 67 -26 70 -14 2 -29 0 -33 -4z m43 -54 c0 -29 -4
-40 -15 -40 -11 0 -15 11 -15 40 0 29 4 40 15 40 11 0 15 -11 15 -40z"/>
<path d="M120 480 l0 -380 235 0 235 0 0 380 0 380 -235 0 -235 0 0 -380z
m206 343 c-4 -16 -21 -56 -37 -91 -17 -35 -32 -74 -34 -88 -1 -14 -4 -26 -6
-27 -3 -1 -30 -27 -62 -57 l-57 -54 0 172 0 172 101 0 101 0 -6 -27z m99 7 c4
-11 11 -18 16 -15 5 3 6 -1 3 -9 -3 -8 0 -23 6 -33 11 -17 11 -17 6 2 -5 15 0
13 18 -9 14 -17 23 -33 20 -38 -3 -4 -1 -8 4 -8 6 0 17 -18 26 -40 9 -22 20
-40 25 -40 16 0 34 -59 22 -73 -6 -8 -9 -17 -6 -21 3 -3 -1 -1 -7 4 -10 9 -10
13 2 20 13 8 12 10 -2 10 -10 0 -18 -4 -18 -10 0 -5 -9 -10 -20 -10 -11 0 -20
5 -20 11 0 6 7 9 15 6 8 -4 17 -2 20 3 3 5 -3 11 -12 13 -10 2 -6 3 10 1 32
-4 35 6 6 24 -11 7 -34 41 -50 75 -24 50 -28 55 -23 27 4 -19 12 -38 18 -42 6
-4 -34 -7 -89 -6 -82 1 -91 2 -50 8 28 4 42 8 33 8 -19 2 -35 27 -49 74 -6 23
-5 29 5 25 7 -3 19 -1 27 4 11 7 9 9 -7 9 -17 0 -20 5 -16 25 4 21 10 25 42
25 30 0 40 -5 45 -20z m155 -35 c0 -44 -3 -53 -15 -49 -11 4 -12 11 -5 24 7
13 6 20 -6 24 -9 3 -20 3 -26 0 -6 -4 -6 2 1 14 15 29 15 30 -16 35 -17 2 -10
5 20 6 l47 1 0 -55z m0 -102 l0 -38 -19 29 c-21 31 -19 46 5 46 10 0 14 -11
14 -37z m-92 -50 c-10 -2 -28 -2 -40 0 -13 2 -5 4 17 4 22 1 32 -1 23 -4z
m-201 -50 c-3 -10 -5 -4 -5 12 0 17 2 24 5 18 2 -7 2 -21 0 -30z m73 -2 c-6
-11 -8 -33 -5 -48 l5 -28 -12 25 c-7 14 -17 28 -22 31 -4 4 -5 12 -1 19 6 9 9
9 16 -1 7 -11 9 -11 10 -1 1 11 3 21 9 40 1 4 4 2 6 -5 3 -7 0 -21 -6 -32z
m41 9 c6 0 7 4 4 10 -4 6 4 9 19 8 24 -2 27 -13 4 -13 -6 0 -13 -6 -16 -14 -3
-9 0 -11 8 -6 7 4 4 -4 -5 -19 -9 -14 -22 -23 -28 -19 -7 4 -8 0 -3 -13 6 -15
5 -16 -5 -7 -9 9 -8 17 4 37 10 15 13 27 7 31 -6 3 -10 1 -10 -6 0 -7 -2 -10
-5 -7 -3 3 -2 13 2 24 4 11 8 13 11 6 2 -7 8 -12 13 -12z m89 -24 c0 -20 -26
-40 -35 -26 -4 6 -14 9 -24 6 -9 -4 -5 3 9 14 29 23 50 26 50 6z m-194 -44 c1
-7 0 -8 -3 -2 -2 5 -9 10 -14 10 -6 0 -5 -9 1 -21 7 -11 9 -23 6 -26 -7 -8
-25 40 -19 50 7 11 26 3 29 -11z m164 -7 c0 6 9 -1 20 -15 l19 -25 10 25 c6
15 10 19 10 9 1 -9 -5 -22 -13 -28 -11 -9 -17 -8 -28 6 -20 28 -41 28 -34 1 3
-13 3 -18 0 -12 -3 7 -14 9 -25 7 -17 -5 -20 -2 -17 18 1 13 8 24 15 24 6 0
15 4 19 8 5 4 12 0 15 -10 4 -10 8 -13 9 -8z m-230 0 c0 -8 -7 -15 -15 -15 -9
0 -18 -7 -21 -15 -4 -8 -10 -12 -15 -9 -5 3 -12 -1 -15 -9 -2 -7 -12 -14 -21
-14 -13 0 -12 3 3 14 11 8 18 19 17 24 -2 5 6 9 17 9 11 0 20 7 20 15 0 8 7
15 15 15 8 0 15 -7 15 -15z m100 -37 c0 -5 -5 -6 -12 -2 -7 5 -8 3 -3 -5 4 -8
-7 -27 -33 -51 -22 -21 -38 -41 -36 -43 2 -2 -3 -4 -11 -4 -8 0 -15 6 -15 14
0 12 13 17 33 14 4 -1 -2 12 -14 29 -13 16 -24 30 -26 30 -2 0 -8 -10 -13 -22
-6 -16 -9 -18 -9 -7 -1 9 5 22 13 28 11 9 17 8 28 -8 8 -12 18 -18 23 -13 5 4
5 1 0 -7 -6 -10 -4 -12 4 -7 6 4 9 17 6 29 -2 12 -2 17 1 10 8 -17 34 -4 34
18 0 12 5 16 15 13 8 -4 15 -10 15 -16z m68 -1 c6 -6 13 -24 17 -40 4 -15 11
-27 16 -27 6 0 5 9 -1 21 -7 11 -9 23 -6 26 7 7 25 -39 19 -49 -9 -15 -24 -7
-33 17 -7 19 -17 25 -40 25 -23 0 -30 4 -30 20 0 23 41 28 58 7z m166 -4 c-11
-8 -18 -19 -16 -24 1 -5 -7 -9 -18 -9 -13 0 -18 5 -14 15 4 8 10 12 15 9 5 -3
12 1 15 9 2 7 12 14 21 14 13 0 12 -3 -3 -14z m-56 -51 c2 -7 -3 -12 -10 -12
-8 0 -15 7 -15 15 0 18 19 15 25 -3z m72 -152 l0 -170 -101 0 -101 0 8 27 c4
16 8 38 8 50 1 12 3 19 5 17 5 -4 42 58 54 90 6 14 4 17 -10 12 -10 -4 -14 -3
-10 1 20 22 142 143 144 143 2 0 3 -76 3 -170z m-195 108 c6 -5 6 -11 -3 -20
-9 -9 -12 -9 -12 3 0 12 -2 12 -9 0 -5 -8 -7 -20 -4 -28 3 -7 0 -13 -7 -13 -8
0 -10 7 -5 23 4 12 8 38 7 57 0 34 0 34 11 10 6 -14 16 -28 22 -32z m-55 32
c0 13 1 13 10 0 5 -8 10 -19 10 -25 0 -5 -4 -5 -8 2 -6 9 -11 7 -20 -7 -7 -12
-8 -21 -2 -25 6 -3 10 -1 10 6 0 7 3 10 6 7 3 -4 1 -16 -5 -27 -9 -16 -16 -19
-35 -11 -13 5 -26 8 -27 7 -2 -1 -2 0 -1 3 2 3 9 5 15 5 5 0 12 6 15 14 3 8 0
11 -7 7 -6 -4 -3 6 7 23 11 20 19 26 24 18 5 -9 8 -8 8 3z m-180 -30 c-13 -8
-12 -10 3 -10 9 0 17 5 17 10 0 6 9 10 20 10 11 0 20 -5 20 -10 0 -6 -6 -10
-12 -8 -7 1 -24 -4 -36 -11 -28 -15 -38 -9 -27 16 5 10 7 23 6 28 -1 6 3 4 11
-3 11 -11 10 -14 -2 -22z m277 -47 c-3 -10 -5 -4 -5 12 0 17 2 24 5 18 2 -7 2
-21 0 -30z m-205 -78 c23 -49 27 -54 22 -25 -4 19 -12 38 -18 42 -6 4 34 7 89
6 82 -1 91 -2 50 -8 -27 -4 -42 -8 -32 -8 29 -3 51 -62 43 -116 -7 -46 -7 -46
-47 -46 -34 0 -41 4 -49 28 -6 15 -15 36 -20 47 -9 17 -9 17 -4 -5 5 -22 3
-20 -19 10 -14 19 -23 38 -20 43 2 4 0 7 -5 7 -5 0 -15 13 -22 30 -7 16 -21
39 -31 51 -10 12 -16 26 -13 31 10 16 46 -25 76 -87z m31 48 c-7 -2 -21 -2
-30 0 -10 3 -4 5 12 5 17 0 24 -2 18 -5z m-99 -42 c16 -29 13 -41 -11 -41 -8
0 -13 12 -13 35 0 43 5 44 24 6z m-4 -80 c-12 -22 2 -36 25 -27 17 6 21 -9 5
-19 -18 -11 -10 -24 18 -28 16 -2 9 -5 -20 -6 l-48 -1 0 50 c0 38 4 50 15 50
12 0 14 -4 5 -19z"/>
<path d="M165 831 c-3 -6 -3 -16 0 -21 4 -6 1 -9 -7 -8 -7 2 -13 -6 -13 -17 0
-13 6 -19 18 -18 12 0 16 -4 13 -13 -3 -8 1 -14 9 -14 8 0 12 6 9 14 -3 9 1
13 13 13 12 -1 18 5 18 18 0 11 -5 19 -11 18 -7 -1 -11 5 -10 15 1 18 -29 29
-39 13z"/>
<path d="M150 635 c0 -6 6 -17 13 -24 10 -11 9 -13 -6 -8 -11 4 -16 3 -12 -3
3 -6 21 -10 38 -10 26 1 29 2 15 11 -10 5 -15 16 -12 24 4 8 1 15 -5 15 -6 0
-11 -6 -11 -12 0 -9 -4 -8 -10 2 -5 8 -10 10 -10 5z"/>
<path d="M398 783 c7 -3 16 -2 19 1 4 3 -2 6 -13 5 -11 0 -14 -3 -6 -6z"/>
<path d="M395 569 c-4 -6 -5 -12 -2 -15 2 -3 7 2 10 11 7 17 1 20 -8 4z"/>
<path d="M455 570 c-3 -6 1 -7 9 -4 18 7 21 14 7 14 -6 0 -13 -4 -16 -10z"/>
<path d="M503 363 c10 -9 67 -11 61 -1 -3 4 -19 8 -36 8 -17 0 -28 -3 -25 -7z"/>
<path d="M530 340 c-8 -5 -11 -12 -7 -17 5 -4 12 -1 16 6 7 11 10 11 14 0 3
-9 6 -10 6 -2 1 17 -13 23 -29 13z"/>
<path d="M516 206 c3 -9 -1 -13 -13 -13 -12 1 -18 -5 -18 -18 0 -11 5 -19 11
-18 7 1 11 -5 10 -15 -1 -11 6 -17 19 -17 13 0 20 6 19 17 -1 10 3 16 10 15 6
-1 11 7 11 18 0 13 -6 19 -18 18 -12 0 -16 4 -13 13 3 8 -1 14 -9 14 -8 0 -12
-6 -9 -14z"/>
<path d="M306 393 c-6 -14 -5 -15 5 -6 7 7 10 15 7 18 -3 3 -9 -2 -12 -12z"/>
<path d="M305 350 c3 -5 8 -10 11 -10 2 0 4 5 4 10 0 6 -5 10 -11 10 -5 0 -7
-4 -4 -10z"/>
<path d="M298 173 c7 -3 16 -2 19 1 4 3 -2 6 -13 5 -11 0 -14 -3 -6 -6z"/>
<path d="M345 170 c-3 -5 1 -10 9 -10 9 0 16 5 16 10 0 6 -4 10 -9 10 -6 0
-13 -4 -16 -10z"/>
<path d="M45 771 c-3 -6 -3 -16 0 -21 4 -6 1 -9 -7 -8 -7 2 -13 -6 -13 -17 0
-13 6 -19 18 -18 12 0 16 -4 13 -13 -3 -8 1 -14 9 -14 8 0 12 6 9 14 -3 9 1
13 13 13 12 -1 18 5 18 18 0 11 -5 19 -11 18 -7 -1 -11 5 -10 15 1 18 -29 29
-39 13z"/>
<path d="M636 266 c3 -9 -1 -13 -13 -13 -12 1 -18 -5 -18 -18 0 -11 5 -19 11
-18 7 1 11 -5 10 -15 -1 -11 6 -17 19 -17 13 0 20 6 19 17 -1 10 3 16 10 15 6
-1 11 7 11 18 0 13 -6 19 -18 18 -12 0 -16 4 -13 13 3 8 -1 14 -9 14 -8 0 -12
-6 -9 -14z"/>
<path d="M614 113 l1 -68 30 0 c29 0 30 2 33 52 3 49 2 52 -29 67 -18 9 -33
16 -35 16 -1 0 -1 -30 0 -67z m46 -13 c0 -29 -4 -40 -15 -40 -11 0 -15 11 -15
40 0 29 4 40 15 40 11 0 15 -11 15 -40z"/>
</g>
</svg>
