<?xml version="1.0" standalone="no"?>
<!DOCTYPE svg PUBLIC "-//W3C//DTD SVG 20010904//EN"
 "http://www.w3.org/TR/2001/REC-SVG-20010904/DTD/svg10.dtd">
<svg version="1.0" xmlns="http://www.w3.org/2000/svg"
 width="72.000000pt" height="96.000000pt" viewBox="0 0 72.000000 96.000000"
 preserveAspectRatio="xMidYMid meet">
<metadata>
Created by potrace 1.16, written by Peter Selinger 2001-2019
</metadata>
<g transform="translate(0.000000,96.000000) scale(0.100000,-0.100000)"
fill="#000000" stroke="none">
<path d="M0 480 l0 -480 360 0 360 0 0 480 0 480 -360 0 -360 0 0 -480z m700
0 l0 -470 -345 0 -345 0 0 470 0 470 345 0 345 0 0 -470z"/>
<path d="M40 904 c0 -11 6 -14 23 -8 21 6 21 6 5 -13 -23 -25 -23 -33 2 -33
12 0 20 -7 20 -16 0 -12 -6 -15 -26 -10 -19 5 -25 3 -22 -6 3 -7 18 -13 34
-13 23 0 30 5 32 24 2 15 -3 30 -12 37 -14 10 -15 13 -1 24 24 20 18 30 -20
30 -25 0 -35 -4 -35 -16z"/>
<path d="M329 844 c-10 -12 -10 -20 -1 -35 11 -16 9 -18 -9 -16 -32 3 -48 -28
-26 -50 15 -15 20 -16 38 -5 19 12 20 11 14 -7 -5 -15 -2 -21 10 -21 12 0 15
6 10 21 -6 18 -5 19 14 7 18 -11 23 -10 38 5 22 22 6 53 -26 50 -18 -2 -20 0
-9 16 9 15 9 23 -1 35 -8 9 -19 16 -26 16 -7 0 -18 -7 -26 -16z"/>
<path d="M55 761 c-3 -6 -3 -16 0 -21 4 -6 1 -9 -7 -8 -7 2 -13 -6 -13 -17 0
-13 6 -19 18 -18 12 0 16 -4 13 -13 -3 -8 1 -14 9 -14 8 0 12 6 9 14 -3 9 1
13 13 13 12 -1 18 5 18 18 0 11 -5 19 -11 18 -7 -1 -11 5 -10 15 1 18 -29 29
-39 13z"/>
<path d="M329 544 c-10 -12 -10 -20 -1 -35 11 -16 9 -18 -9 -16 -32 3 -48 -28
-26 -50 15 -15 20 -16 38 -5 19 12 20 11 14 -7 -5 -15 -2 -21 10 -21 12 0 15
6 10 21 -6 18 -5 19 14 7 18 -11 23 -10 38 5 22 22 6 53 -26 50 -18 -2 -20 0
-9 16 9 15 9 23 -1 35 -8 9 -19 16 -26 16 -7 0 -18 -7 -26 -16z"/>
<path d="M626 276 c3 -9 -1 -13 -13 -13 -12 1 -18 -5 -18 -18 0 -11 5 -19 11
-18 7 1 11 -5 10 -15 -1 -11 6 -17 19 -17 13 0 20 6 19 17 -1 10 3 16 10 15 6
-1 11 7 11 18 0 13 -6 19 -18 18 -12 0 -16 4 -13 13 3 8 -1 14 -9 14 -8 0 -12
-6 -9 -14z"/>
<path d="M345 229 c6 -18 5 -19 -14 -7 -18 11 -23 10 -38 -5 -22 -22 -6 -53
26 -50 18 2 20 0 9 -16 -23 -37 25 -68 53 -35 10 12 10 20 1 35 -11 16 -9 18
9 16 32 -3 48 28 26 50 -15 15 -20 16 -38 5 -19 -12 -20 -11 -14 7 5 15 2 21
-10 21 -12 0 -15 -6 -10 -21z"/>
<path d="M607 154 c-13 -13 -7 -53 9 -62 14 -8 14 -10 0 -21 -25 -21 -19 -31
19 -31 25 0 35 4 35 16 0 11 -6 14 -22 8 -22 -6 -22 -6 -5 13 22 25 22 33 -3
33 -12 0 -20 7 -20 16 0 12 6 15 26 10 19 -5 25 -3 22 6 -5 14 -50 23 -61 12z"/>
</g>
</svg>
