<?xml version="1.0" standalone="no"?>
<!DOCTYPE svg PUBLIC "-//W3C//DTD SVG 20010904//EN"
 "http://www.w3.org/TR/2001/REC-SVG-20010904/DTD/svg10.dtd">
<svg version="1.0" xmlns="http://www.w3.org/2000/svg"
 width="72.000000pt" height="96.000000pt" viewBox="0 0 72.000000 96.000000"
 preserveAspectRatio="xMidYMid meet">
<metadata>
Created by potrace 1.16, written by Peter Selinger 2001-2019
</metadata>
<g transform="translate(0.000000,96.000000) scale(0.100000,-0.100000)"
fill="#000000" stroke="none">
<path d="M0 480 l0 -480 360 0 360 0 0 480 0 480 -360 0 -360 0 0 -480z m700
0 l0 -470 -345 0 -345 0 0 470 0 470 345 0 345 0 0 -470z"/>
<path d="M25 860 c0 -51 3 -60 18 -60 14 0 16 5 11 28 -7 24 -6 26 9 14 9 -8
13 -20 10 -28 -3 -9 2 -14 16 -14 26 0 27 10 1 42 -19 25 -19 25 0 46 25 27
25 32 0 32 -11 0 -20 -6 -20 -14 0 -8 -5 -18 -11 -22 -8 -4 -9 0 -4 15 5 16 2
21 -12 21 -15 0 -18 -9 -18 -60z"/>
<path d="M120 480 l0 -380 235 0 235 0 0 380 0 380 -235 0 -235 0 0 -380z
m149 343 c11 -27 13 -28 100 -30 l89 -1 12 29 c11 26 17 29 61 29 l49 0 0
-190 c0 -133 -3 -190 -11 -190 -7 0 -10 12 -7 30 4 26 1 30 -19 30 -13 0 -23
5 -23 11 0 5 5 7 10 4 6 -4 10 13 10 44 0 28 -4 51 -9 51 -12 0 -22 -30 -14
-42 3 -7 1 -8 -5 -4 -7 4 -16 -9 -23 -35 -11 -36 -11 -43 4 -54 29 -21 19 -35
-25 -35 -30 0 -39 3 -28 9 8 6 17 8 20 6 3 -2 6 10 7 27 1 16 13 54 27 83 20
45 22 56 11 65 -17 14 -66 16 -90 3 -10 -6 -32 -7 -51 -3 -18 4 -35 5 -38 2
-10 -9 -7 -44 3 -38 12 8 42 -4 36 -13 -2 -4 9 -8 25 -8 16 0 27 4 25 8 -3 4
2 10 10 13 13 5 14 2 4 -15 -7 -13 -17 -18 -27 -15 -13 5 -12 2 2 -9 11 -8 15
-15 8 -15 -6 0 -9 -7 -6 -15 4 -8 1 -15 -4 -15 -6 0 -9 9 -7 19 2 11 -2 22
-10 25 -10 4 -11 -2 -5 -23 9 -31 -2 -57 -19 -47 -6 4 -11 2 -11 -5 0 -6 8 -9
20 -6 13 3 20 0 20 -10 0 -8 -5 -11 -12 -7 -6 4 -8 3 -5 -4 4 -5 17 -8 30 -5
20 5 20 4 5 -8 -13 -11 -14 -19 -5 -39 l11 -25 3 26 c3 21 8 26 24 22 22 -6
25 -23 7 -42 -10 -11 -10 -13 0 -7 7 4 12 1 12 -8 0 -24 15 -26 29 -4 7 11 8
17 2 13 -7 -4 -11 4 -11 19 0 16 6 26 15 26 16 0 37 32 33 51 -2 6 2 13 8 16
10 3 10 -110 -1 -160 -3 -17 -2 -17 21 -2 l24 15 0 -130 0 -130 -64 0 c-60 0
-64 2 -75 28 -11 26 -13 27 -101 28 -89 1 -89 1 -101 -27 -10 -26 -16 -29 -60
-29 l-49 0 0 190 c0 133 3 190 11 190 7 0 10 -12 7 -30 -4 -26 -1 -30 19 -30
13 0 23 -5 23 -11 0 -5 -4 -7 -10 -4 -6 4 -10 -13 -10 -44 0 -28 4 -51 9 -51
12 0 22 30 14 42 -3 6 -1 8 5 4 6 -3 14 3 17 15 4 11 9 18 12 16 2 -3 -5 -23
-16 -45 -26 -51 -12 -67 51 -58 44 6 90 7 111 3 6 -1 13 9 15 22 2 13 0 21 -6
17 -13 -8 -44 3 -37 13 2 4 -9 8 -25 8 -16 0 -27 -4 -25 -8 3 -4 -2 -9 -10
-13 -8 -3 -15 -2 -15 3 0 15 29 33 42 26 7 -4 4 1 -6 9 -11 9 -14 16 -8 16 9
0 10 5 2 19 -6 13 -7 22 0 26 5 3 7 13 4 23 -5 14 -3 14 6 -2 10 -15 9 -20 -1
-27 -9 -6 -10 -9 -2 -9 6 0 10 -9 8 -19 -2 -11 3 -22 11 -25 11 -4 12 -1 6 12
-5 9 -7 23 -6 30 1 6 2 17 3 22 0 6 6 10 11 10 6 0 9 -3 9 -7 -1 -5 -1 -25 0
-46 1 -26 5 -36 13 -31 8 5 9 1 4 -12 -5 -13 -4 -16 3 -9 7 7 7 23 -1 50 -6
22 -10 46 -9 54 2 9 -4 12 -18 8 -14 -3 -21 0 -21 9 0 8 -8 14 -17 14 -15 0
-15 1 -1 13 13 10 14 17 5 37 l-11 25 -3 -26 c-3 -21 -8 -26 -24 -22 -22 6
-25 23 -7 43 7 8 9 11 4 7 -5 -3 -14 0 -21 9 -10 14 -12 14 -26 -2 -8 -11 -9
-15 -1 -10 8 5 12 -1 12 -18 0 -16 -6 -26 -15 -26 -18 0 -37 -34 -29 -54 4
-10 1 -16 -8 -16 -12 0 -14 14 -11 73 2 39 6 80 8 90 3 17 2 17 -21 2 l-24
-15 0 130 0 130 64 0 c60 0 64 -2 75 -27z m91 15 c0 -8 -17 -12 -35 -8 -5 1
-18 4 -29 6 -36 7 -28 13 18 11 25 -1 46 -5 46 -9z m94 -7 c-11 -11 -22 -14
-25 -8 -4 5 -11 7 -15 4 -5 -3 -14 1 -21 8 -9 10 -2 13 34 13 45 1 45 1 27
-17z m-47 -323 c2 -18 0 -20 -7 -8 -12 18 -13 30 -2 30 4 0 9 -10 9 -22z
m-145 -38 c-9 -11 -20 -30 -24 -43 -6 -22 -6 -22 -7 -1 -1 12 -8 27 -16 34
-25 21 -17 30 25 30 39 0 39 0 22 -20z m36 -336 c5 3 15 0 21 -8 9 -11 3 -14
-35 -14 -46 -1 -46 -1 -28 17 11 11 22 14 25 8 4 -5 11 -7 17 -3z m138 -17 c4
-3 -15 -5 -40 -4 -25 1 -46 5 -46 10 0 9 77 4 86 -6z"/>
<path d="M165 831 c-3 -6 -3 -16 0 -21 4 -6 1 -9 -7 -8 -7 2 -13 -6 -13 -17 0
-13 6 -19 18 -18 12 0 16 -4 13 -13 -3 -8 1 -14 9 -14 8 0 12 6 9 14 -3 9 1
13 13 13 12 -1 18 5 18 18 0 11 -5 19 -11 18 -7 -1 -11 5 -10 15 1 18 -29 29
-39 13z"/>
<path d="M563 750 c0 -30 2 -43 4 -27 2 15 2 39 0 55 -2 15 -4 2 -4 -28z"/>
<path d="M283 735 c0 -22 2 -30 4 -17 2 12 2 30 0 40 -3 9 -5 -1 -4 -23z"/>
<path d="M350 752 c0 -5 7 -9 15 -9 8 0 12 4 9 9 -3 4 -9 8 -15 8 -5 0 -9 -4
-9 -8z"/>
<path d="M561 678 c0 -9 -4 -25 -7 -35 -5 -17 -5 -17 6 0 6 10 9 25 7 35 -4
15 -5 15 -6 0z"/>
<path d="M229 647 l-24 -8 30 -13 c33 -15 64 -46 89 -91 10 -16 15 -23 13 -15
-2 8 -10 40 -17 72 -11 50 -16 57 -40 60 -15 2 -38 0 -51 -5z"/>
<path d="M336 612 c-3 -5 -1 -26 5 -47 7 -24 14 -34 18 -26 11 17 1 62 -12 54
-6 -4 -8 0 -4 10 7 18 2 23 -7 9z"/>
<path d="M556 605 c-3 -9 -6 -24 -5 -33 0 -9 5 -4 10 12 9 32 6 48 -5 21z"/>
<path d="M205 530 c-3 -5 -1 -10 4 -10 6 0 11 5 11 10 0 6 -2 10 -4 10 -3 0
-8 -4 -11 -10z"/>
<path d="M260 530 c0 -5 5 -10 11 -10 5 0 7 5 4 10 -3 6 -8 10 -11 10 -2 0 -4
-4 -4 -10z"/>
<path d="M374 435 c28 -121 29 -123 57 -127 15 -2 37 0 50 5 l24 9 -24 9 c-30
12 -85 61 -89 79 -2 8 -8 21 -13 30 -8 12 -9 11 -5 -5z"/>
<path d="M430 430 c0 -5 5 -10 10 -10 6 0 10 5 10 10 0 6 -4 10 -10 10 -5 0
-10 -4 -10 -10z"/>
<path d="M490 429 c0 -5 5 -7 10 -4 6 3 10 8 10 11 0 2 -4 4 -10 4 -5 0 -10
-5 -10 -11z"/>
<path d="M148 375 c-3 -14 -2 -27 1 -30 4 -2 8 10 9 26 3 36 -4 38 -10 4z"/>
<path d="M143 243 l0 -88 6 80 c4 44 4 83 1 88 -3 4 -6 -32 -7 -80z"/>
<path d="M423 220 c0 -25 2 -35 4 -22 2 12 2 32 0 45 -2 12 -4 2 -4 -23z"/>
<path d="M336 208 c3 -4 9 -8 15 -8 5 0 9 4 9 8 0 5 -7 9 -15 9 -8 0 -12 -4
-9 -9z"/>
<path d="M516 206 c3 -9 -1 -13 -13 -13 -12 1 -18 -5 -18 -18 0 -11 5 -19 11
-18 7 1 11 -5 10 -15 -1 -11 6 -17 19 -17 13 0 20 6 19 17 -1 10 3 16 10 15 6
-1 11 7 11 18 0 13 -6 19 -18 18 -12 0 -16 4 -13 13 3 8 -1 14 -9 14 -8 0 -12
-6 -9 -14z"/>
<path d="M45 771 c-3 -6 -3 -16 0 -21 4 -6 1 -9 -7 -8 -7 2 -13 -6 -13 -17 0
-13 6 -19 18 -18 12 0 16 -4 13 -13 -3 -8 1 -14 9 -14 8 0 12 6 9 14 -3 9 1
13 13 13 12 -1 18 5 18 18 0 11 -5 19 -11 18 -7 -1 -11 5 -10 15 1 18 -29 29
-39 13z"/>
<path d="M636 266 c3 -9 -1 -13 -13 -13 -12 1 -18 -5 -18 -18 0 -11 5 -19 11
-18 7 1 11 -5 10 -15 -1 -11 6 -17 19 -17 13 0 20 6 19 17 -1 10 3 16 10 15 6
-1 11 7 11 18 0 13 -6 19 -18 18 -12 0 -16 4 -13 13 3 8 -1 14 -9 14 -8 0 -12
-6 -9 -14z"/>
<path d="M600 151 c0 -4 9 -20 20 -33 19 -25 19 -25 0 -46 -25 -27 -25 -32 0
-32 11 0 20 6 20 14 0 8 5 18 11 22 8 4 9 0 4 -15 -5 -16 -2 -21 12 -21 15 0
18 9 18 60 0 51 -3 60 -18 60 -14 0 -16 -5 -11 -27 7 -25 6 -27 -9 -15 -9 8
-13 20 -10 28 3 9 -2 14 -16 14 -12 0 -21 -4 -21 -9z"/>
</g>
</svg>
