<?xml version="1.0" standalone="no"?>
<!DOCTYPE svg PUBLIC "-//W3C//DTD SVG 20010904//EN"
 "http://www.w3.org/TR/2001/REC-SVG-20010904/DTD/svg10.dtd">
<svg version="1.0" xmlns="http://www.w3.org/2000/svg"
 width="72.000000pt" height="96.000000pt" viewBox="0 0 72.000000 96.000000"
 preserveAspectRatio="xMidYMid meet">
<metadata>
Created by potrace 1.16, written by Peter Selinger 2001-2019
</metadata>
<g transform="translate(0.000000,96.000000) scale(0.100000,-0.100000)"
fill="#000000" stroke="none">
<path d="M0 480 l0 -480 360 0 360 0 0 480 0 480 -360 0 -360 0 0 -480z m700
0 l0 -470 -345 0 -345 0 0 470 0 470 345 0 345 0 0 -470z"/>
<path d="M63 888 c-40 -41 -41 -48 -7 -48 21 0 24 -4 19 -20 -5 -16 -2 -20 15
-20 17 0 21 4 16 17 -4 9 -1 20 6 25 10 6 10 10 1 16 -6 4 -13 20 -15 35 l-3
28 -32 -33z m17 -13 c0 -8 -7 -15 -16 -15 -14 0 -14 3 -4 15 7 8 14 15 16 15
2 0 4 -7 4 -15z"/>
<path d="M199 844 c-10 -12 -10 -20 -1 -35 11 -16 9 -18 -9 -16 -32 3 -48 -28
-26 -50 15 -15 20 -16 38 -5 19 12 20 11 14 -7 -5 -15 -2 -21 10 -21 12 0 15
6 10 21 -6 18 -5 19 14 7 18 -11 23 -10 38 5 22 22 6 53 -26 50 -18 -2 -20 0
-9 16 9 15 9 23 -1 35 -8 9 -19 16 -26 16 -7 0 -18 -7 -26 -16z"/>
<path d="M459 844 c-10 -12 -10 -20 -1 -35 11 -16 9 -18 -9 -16 -32 3 -48 -28
-26 -50 15 -15 20 -16 38 -5 19 12 20 11 14 -7 -5 -15 -2 -21 10 -21 12 0 15
6 10 21 -6 18 -5 19 14 7 18 -11 23 -10 38 5 22 22 6 53 -26 50 -18 -2 -20 0
-9 16 9 15 9 23 -1 35 -8 9 -19 16 -26 16 -7 0 -18 -7 -26 -16z"/>
<path d="M55 761 c-3 -6 -3 -16 0 -21 4 -6 1 -9 -7 -8 -7 2 -13 -6 -13 -17 0
-13 6 -19 18 -18 12 0 16 -4 13 -13 -3 -8 1 -14 9 -14 8 0 12 6 9 14 -3 9 1
13 13 13 12 -1 18 5 18 18 0 11 -5 19 -11 18 -7 -1 -11 5 -10 15 1 18 -29 29
-39 13z"/>
<path d="M626 276 c3 -9 -1 -13 -13 -13 -12 1 -18 -5 -18 -18 0 -11 5 -19 11
-18 7 1 11 -5 10 -15 -1 -11 6 -17 19 -17 13 0 20 6 19 17 -1 10 3 16 10 15 6
-1 11 7 11 18 0 13 -6 19 -18 18 -12 0 -16 4 -13 13 3 8 -1 14 -9 14 -8 0 -12
-6 -9 -14z"/>
<path d="M215 229 c6 -18 5 -19 -14 -7 -18 11 -23 10 -38 -5 -22 -22 -6 -53
26 -50 18 2 20 0 9 -16 -9 -15 -9 -23 1 -35 8 -9 19 -16 26 -16 7 0 18 7 26
16 10 12 10 20 1 35 -11 16 -9 18 9 16 32 -3 48 28 26 50 -15 15 -20 16 -38 5
-19 -12 -20 -11 -14 7 5 15 2 21 -10 21 -12 0 -15 -6 -10 -21z"/>
<path d="M475 229 c6 -18 5 -19 -14 -7 -18 11 -23 10 -38 -5 -22 -22 -6 -53
26 -50 18 2 20 0 9 -16 -23 -37 25 -68 53 -35 10 12 10 20 1 35 -11 16 -9 18
9 16 32 -3 48 28 26 50 -15 15 -20 16 -38 5 -19 -12 -20 -11 -14 7 5 15 2 21
-10 21 -12 0 -15 -6 -10 -21z"/>
<path d="M604 143 c4 -9 1 -20 -6 -25 -10 -8 -10 -11 0 -15 6 -2 12 -19 12
-36 l0 -31 35 34 c42 40 44 50 9 50 -21 0 -24 4 -19 20 5 16 2 20 -15 20 -17
0 -21 -4 -16 -17z m56 -47 c0 -2 -7 -9 -15 -16 -12 -10 -15 -10 -15 4 0 9 7
16 15 16 8 0 15 -2 15 -4z"/>
</g>
</svg>
