<?xml version="1.0" standalone="no"?>
<!DOCTYPE svg PUBLIC "-//W3C//DTD SVG 20010904//EN"
 "http://www.w3.org/TR/2001/REC-SVG-20010904/DTD/svg10.dtd">
<svg version="1.0" xmlns="http://www.w3.org/2000/svg"
 width="72.000000pt" height="96.000000pt" viewBox="0 0 72.000000 96.000000"
 preserveAspectRatio="xMidYMid meet">
<metadata>
Created by potrace 1.16, written by Peter Selinger 2001-2019
</metadata>
<g transform="translate(0.000000,96.000000) scale(0.100000,-0.100000)"
fill="#000000" stroke="none">
<path d="M0 480 l0 -480 360 0 360 0 0 480 0 480 -360 0 -360 0 0 -480z m700
0 l0 -470 -345 0 -345 0 0 470 0 470 345 0 345 0 0 -470z"/>
<path d="M40 890 c0 -25 4 -30 25 -30 18 0 25 -5 25 -20 0 -22 -26 -28 -33 -7
-2 6 -8 9 -13 4 -4 -4 0 -15 9 -25 13 -13 21 -14 35 -6 25 16 22 57 -5 69 -30
13 -29 25 2 25 14 0 25 5 25 10 0 6 -16 10 -35 10 -32 0 -35 -2 -35 -30z"/>
<path d="M202 827 c-28 -30 -28 -48 1 -75 l23 -22 22 23 c28 30 28 48 -1 75
l-23 22 -22 -23z"/>
<path d="M462 827 c-28 -30 -28 -48 1 -75 l23 -22 22 23 c28 30 28 48 -1 75
l-23 22 -22 -23z"/>
<path d="M58 746 c-14 -20 -14 -23 1 -42 l17 -21 16 21 c14 20 14 23 -1 42
l-17 21 -16 -21z"/>
<path d="M332 517 c-28 -30 -28 -48 1 -75 l23 -22 22 23 c28 30 28 48 -1 75
l-23 22 -22 -23z"/>
<path d="M618 256 c-14 -20 -14 -23 1 -42 l17 -21 16 21 c14 20 14 23 -1 42
l-17 21 -16 -21z"/>
<path d="M202 207 c-28 -30 -28 -48 1 -75 l23 -22 22 23 c28 30 28 48 -1 75
l-23 22 -22 -23z"/>
<path d="M462 207 c-28 -30 -28 -48 1 -75 l23 -22 22 23 c28 30 28 48 -1 75
l-23 22 -22 -23z"/>
<path d="M610 145 c-17 -20 -9 -48 18 -60 29 -13 28 -25 -3 -25 -14 0 -25 -4
-25 -10 0 -5 16 -10 35 -10 32 0 35 2 35 30 0 25 -4 30 -25 30 -18 0 -25 5
-25 20 0 22 26 28 33 8 2 -7 8 -10 12 -6 10 9 -13 38 -30 38 -7 0 -18 -7 -25
-15z"/>
</g>
</svg>
