<?xml version="1.0" standalone="no"?>
<!DOCTYPE svg PUBLIC "-//W3C//DTD SVG 20010904//EN"
 "http://www.w3.org/TR/2001/REC-SVG-20010904/DTD/svg10.dtd">
<svg version="1.0" xmlns="http://www.w3.org/2000/svg"
 width="72.000000pt" height="96.000000pt" viewBox="0 0 72.000000 96.000000"
 preserveAspectRatio="xMidYMid meet">
<metadata>
Created by potrace 1.16, written by Peter Selinger 2001-2019
</metadata>
<g transform="translate(0.000000,96.000000) scale(0.100000,-0.100000)"
fill="#000000" stroke="none">
<path d="M0 480 l0 -480 360 0 360 0 0 480 0 480 -360 0 -360 0 0 -480z m700
0 l0 -470 -345 0 -345 0 0 470 0 470 345 0 345 0 0 -470z"/>
<path d="M30 860 c0 -33 4 -60 10 -60 6 0 10 27 10 60 0 33 -4 60 -10 60 -6 0
-10 -27 -10 -60z"/>
<path d="M72 908 c-17 -17 -15 -83 3 -98 12 -10 18 -10 30 0 27 22 15 110 -15
110 -3 0 -11 -5 -18 -12z m28 -48 c0 -22 -4 -40 -10 -40 -5 0 -10 18 -10 40 0
22 5 40 10 40 6 0 10 -18 10 -40z"/>
<path d="M202 827 c-28 -30 -28 -48 1 -75 l23 -22 22 23 c28 30 28 48 -1 75
l-23 22 -22 -23z"/>
<path d="M462 827 c-28 -30 -28 -48 1 -75 l23 -22 22 23 c28 30 28 48 -1 75
l-23 22 -22 -23z"/>
<path d="M58 746 c-14 -20 -14 -23 1 -42 l17 -21 16 21 c14 20 14 23 -1 42
l-17 21 -16 -21z"/>
<path d="M332 727 c-28 -30 -28 -48 1 -75 l23 -22 22 23 c28 30 28 48 -1 75
l-23 22 -22 -23z"/>
<path d="M202 617 c-28 -30 -28 -48 1 -75 l23 -22 22 23 c28 30 28 48 -1 75
l-23 22 -22 -23z"/>
<path d="M462 617 c-28 -30 -28 -48 1 -75 l23 -22 22 23 c28 30 28 48 -1 75
l-23 22 -22 -23z"/>
<path d="M202 417 c-28 -30 -28 -48 1 -75 l23 -22 22 23 c28 30 28 48 -1 75
l-23 22 -22 -23z"/>
<path d="M462 417 c-28 -30 -28 -48 1 -75 l23 -22 22 23 c28 30 28 48 -1 75
l-23 22 -22 -23z"/>
<path d="M332 307 c-28 -30 -28 -48 1 -75 l23 -22 22 23 c28 30 28 48 -1 75
l-23 22 -22 -23z"/>
<path d="M618 256 c-14 -20 -14 -23 1 -42 l17 -21 16 21 c14 20 14 23 -1 42
l-17 21 -16 -21z"/>
<path d="M202 207 c-28 -30 -28 -48 1 -75 l23 -22 22 23 c28 30 28 48 -1 75
l-23 22 -22 -23z"/>
<path d="M462 207 c-28 -30 -28 -48 1 -75 l23 -22 22 23 c28 30 28 48 -1 75
l-23 22 -22 -23z"/>
<path d="M602 148 c-17 -17 -15 -83 3 -98 12 -10 18 -10 30 0 27 22 15 110
-15 110 -3 0 -11 -5 -18 -12z m28 -48 c0 -22 -4 -40 -10 -40 -5 0 -10 18 -10
40 0 22 5 40 10 40 6 0 10 -18 10 -40z"/>
<path d="M660 100 c0 -33 4 -60 10 -60 6 0 10 27 10 60 0 33 -4 60 -10 60 -6
0 -10 -27 -10 -60z"/>
</g>
</svg>
