<?xml version="1.0" standalone="no"?>
<!DOCTYPE svg PUBLIC "-//W3C//DTD SVG 20010904//EN"
 "http://www.w3.org/TR/2001/REC-SVG-20010904/DTD/svg10.dtd">
<svg version="1.0" xmlns="http://www.w3.org/2000/svg"
 width="72.000000pt" height="96.000000pt" viewBox="0 0 72.000000 96.000000"
 preserveAspectRatio="xMidYMid meet">
<metadata>
Created by potrace 1.16, written by Peter Selinger 2001-2019
</metadata>
<g transform="translate(0.000000,96.000000) scale(0.100000,-0.100000)"
fill="#000000" stroke="none">
<path d="M0 480 l0 -480 360 0 360 0 0 480 0 480 -360 0 -360 0 0 -480z m700
0 l0 -470 -345 0 -345 0 0 470 0 470 345 0 345 0 0 -470z"/>
<path d="M68 870 c3 -31 1 -50 -6 -50 -6 0 -12 6 -15 13 -2 6 -8 9 -13 4 -4
-4 0 -15 9 -24 15 -15 19 -15 31 -3 7 8 16 36 19 63 4 40 2 47 -13 47 -14 0
-16 -7 -12 -50z"/>
<path d="M120 480 l0 -380 235 0 235 0 0 380 0 380 -235 0 -235 0 0 -380z
m150 342 c20 -26 26 -29 70 -24 62 6 123 -5 114 -20 -4 -7 -3 -8 4 -4 7 4 12
15 12 24 1 31 26 52 61 52 l34 0 -3 -46 c-4 -50 -21 -65 -50 -43 -13 11 -13 9
2 -9 11 -12 25 -21 31 -18 7 2 12 -12 14 -38 1 -22 6 -42 12 -44 15 -6 10 -49
-6 -56 -36 -13 -59 -131 -35 -177 7 -12 7 -19 1 -19 -6 0 -15 18 -21 41 -9 32
-8 51 4 92 17 56 28 78 42 80 12 3 5 30 -9 39 -6 4 -16 -3 -22 -15 -7 -14 -18
-21 -30 -19 -16 3 -17 1 -7 -11 10 -12 9 -16 -3 -21 -11 -4 -14 -2 -9 6 4 7 3
8 -5 4 -6 -4 -9 -12 -5 -17 3 -5 10 -7 15 -4 5 4 9 2 9 -4 0 -5 -5 -13 -10
-16 -6 -4 -7 -12 -3 -18 3 -7 -3 -4 -14 6 -11 9 -22 15 -25 12 -3 -3 -5 5 -4
17 0 13 6 23 11 23 15 0 54 42 47 50 -4 4 -2 6 3 5 25 -5 26 2 1 25 -17 16
-26 35 -27 57 -2 32 -2 31 -8 -7 -5 -35 -9 -40 -33 -40 -14 0 -30 -4 -35 -8
-4 -5 -2 -7 6 -5 7 2 16 -3 18 -9 3 -7 -3 -13 -12 -13 -9 0 -13 -4 -10 -10 4
-6 -2 -7 -17 -2 -28 10 -38 9 -60 -3 -15 -9 -14 -11 8 -22 20 -9 26 -9 30 1 3
8 15 11 30 8 14 -2 24 0 24 7 0 6 5 11 12 11 7 0 -14 -27 -47 -60 -32 -32 -63
-56 -68 -53 -5 3 -3 9 4 14 8 5 10 9 5 9 -4 0 2 9 15 21 17 15 19 19 7 15 -10
-3 -17 -2 -15 2 1 4 -1 8 -5 10 -20 6 -28 0 -28 -21 0 -13 -7 -32 -15 -43 -13
-17 -14 -14 -15 44 0 61 1 62 28 63 16 1 20 3 10 6 -14 3 -16 9 -8 23 11 20 4
50 -12 50 -6 0 -5 -7 2 -15 11 -13 11 -18 0 -28 -10 -9 -11 -9 -6 1 4 6 2 12
-3 12 -6 0 -11 -4 -11 -10 0 -5 -8 -10 -17 -10 -10 0 -31 -7 -47 -15 -40 -21
-46 -19 -46 14 0 17 -4 33 -10 36 -5 3 -10 37 -10 76 l0 69 60 0 c54 0 61 -3
80 -28z m70 17 c0 -5 -13 -9 -30 -9 -39 0 -39 15 0 16 17 1 30 -3 30 -7z m65
1 c-7 -12 -55 -14 -55 -2 0 4 14 9 31 10 19 2 28 -2 24 -8z m68 -2 c-2 -5 -15
-8 -29 -8 -13 0 -24 3 -24 8 0 4 13 7 29 7 16 0 27 -3 24 -7z m-226 -203 c-12
-13 -24 -20 -25 -14 -2 5 -9 6 -14 3 -7 -4 -8 -2 -4 5 4 6 11 9 16 6 4 -3 13
2 20 10 7 8 16 15 20 15 5 0 -1 -11 -13 -25z m103 -15 c0 -5 -2 -10 -4 -10 -3
0 -8 5 -11 10 -3 6 -1 10 4 10 6 0 11 -4 11 -10z m-146 -134 c1 -46 -31 -139
-45 -130 -5 3 -9 -6 -9 -19 0 -32 26 -43 34 -15 4 17 8 19 19 10 12 -10 14 -8
12 13 -3 23 5 30 28 26 5 -1 6 3 2 9 -3 6 -11 8 -16 5 -5 -4 -9 -2 -9 4 0 5 5
13 10 16 6 4 7 12 3 18 -3 7 3 4 14 -6 11 -9 22 -15 25 -12 3 3 5 -5 4 -17 -1
-13 -7 -22 -14 -20 -7 1 -15 -5 -18 -13 -3 -8 -10 -12 -15 -9 -13 8 -11 -10 4
-25 6 -7 8 -12 2 -11 -5 2 -19 2 -29 1 -17 -1 -16 -4 8 -26 17 -16 26 -35 27
-57 2 -32 2 -31 8 7 5 35 9 40 33 40 14 0 30 4 35 8 4 5 2 7 -6 5 -7 -2 -16 3
-18 10 -3 6 4 13 14 13 108 8 127 5 113 -21 -11 -21 -3 -50 13 -50 7 0 7 4 -1
12 -17 17 -15 28 5 21 11 -4 14 -3 9 5 -4 7 -2 12 6 12 8 0 9 3 3 8 -6 4 -1
17 14 32 l25 25 -17 -27 c-12 -19 -13 -29 -6 -34 6 -4 14 -3 18 2 3 5 13 10
21 10 8 1 23 5 33 9 14 6 17 2 17 -23 0 -17 5 -34 10 -37 6 -3 10 -37 10 -76
l0 -69 -60 0 c-54 0 -61 3 -80 28 -20 26 -26 29 -70 24 -62 -6 -123 5 -114 20
4 7 3 8 -4 4 -7 -4 -12 -15 -12 -24 -1 -31 -26 -52 -61 -52 l-34 0 3 50 c4 52
22 66 51 37 10 -10 11 -9 6 5 -7 17 -32 31 -44 24 -4 -3 -8 14 -10 37 -1 23
-6 44 -12 45 -15 6 -10 49 6 56 29 11 48 76 42 141 -4 46 -3 55 5 41 6 -11 12
-38 12 -60z m219 12 c-15 -17 -17 -17 -35 -1 -17 15 -17 17 -1 35 15 17 17 17
35 1 17 -15 17 -17 1 -35z m-266 22 c1 -16 -1 -17 -12 -7 -11 10 -8 19 10 27
1 0 1 -9 2 -20z m310 -23 c0 -8 -6 -14 -14 -14 -9 0 -10 4 -2 14 6 7 12 13 14
13 1 0 2 -6 2 -13z m-191 -30 c4 -4 13 -2 19 3 8 7 17 4 29 -8 15 -18 15 -20
-2 -35 -18 -16 -20 -16 -37 3 -10 11 -15 20 -11 20 4 0 4 5 1 10 -5 8 -11 8
-19 1 -9 -8 -13 -7 -13 3 0 14 21 16 33 3z m289 -26 c3 -5 2 -12 -3 -15 -5 -3
-9 1 -9 9 0 17 3 19 12 6z m-161 -20 c-5 -3 -18 -17 -29 -30 -18 -22 -18 -24
-2 -18 11 4 16 3 12 -3 -3 -6 3 -10 14 -10 13 0 21 7 21 18 1 9 7 28 15 42 14
24 14 22 15 -37 0 -61 -1 -63 -26 -63 -16 0 -23 4 -18 11 5 9 -1 10 -20 5 -16
-4 -26 -2 -26 4 0 6 5 8 12 4 7 -5 8 -3 3 5 -5 9 -10 10 -18 2 -6 -6 -22 -11
-36 -11 -24 0 -22 3 24 50 26 27 53 46 58 43 5 -3 5 -8 1 -12z m126 -35 c0 -2
-8 -10 -17 -17 -16 -13 -17 -12 -4 4 13 16 21 21 21 13z m27 -48 c-3 -8 -6 -5
-6 6 -1 11 2 17 5 13 3 -3 4 -12 1 -19z m-267 -215 c0 -5 -13 -8 -29 -8 -16 0
-27 3 -24 8 2 4 15 7 29 7 13 0 24 -3 24 -7z m70 -1 c0 -4 -14 -9 -31 -10 -19
-2 -28 2 -24 8 7 12 55 14 55 2z m70 1 c0 -5 -14 -8 -30 -9 -17 -1 -30 3 -30
7 0 5 14 9 30 9 17 0 30 -3 30 -7z"/>
<path d="M158 806 c-14 -20 -14 -23 1 -42 l17 -21 16 21 c14 20 14 23 -1 42
l-17 21 -16 -21z"/>
<path d="M355 761 c-3 -5 -1 -12 5 -16 5 -3 10 1 10 9 0 18 -6 21 -15 7z"/>
<path d="M441 704 c0 -11 3 -14 6 -6 3 7 2 16 -1 19 -3 4 -6 -2 -5 -13z"/>
<path d="M440 583 c0 -6 8 -17 18 -24 16 -13 16 -13 2 6 -8 11 -16 22 -17 24
-2 2 -3 0 -3 -6z"/>
<path d="M250 392 c6 -13 14 -21 18 -18 3 4 -2 14 -12 24 -18 16 -18 16 -6 -6z"/>
<path d="M261 254 c0 -11 3 -14 6 -6 3 7 2 16 -1 19 -3 4 -6 -2 -5 -13z"/>
<path d="M340 204 c0 -8 5 -12 10 -9 6 4 8 11 5 16 -9 14 -15 11 -15 -7z"/>
<path d="M518 196 c-14 -20 -14 -23 1 -42 l17 -21 16 21 c14 20 14 23 -1 42
l-17 21 -16 -21z"/>
<path d="M391 526 c-9 -10 -8 -16 3 -25 10 -9 16 -8 25 3 9 10 8 16 -3 25 -10
9 -16 8 -25 -3z m16 -11 c0 -8 -4 -12 -9 -9 -5 3 -6 10 -3 15 9 13 12 11 12
-6z"/>
<path d="M291 456 c-9 -10 -8 -16 3 -25 10 -9 16 -8 25 3 9 10 8 16 -3 25 -10
9 -16 8 -25 -3z m24 -5 c3 -5 2 -12 -3 -15 -5 -3 -9 1 -9 9 0 17 3 19 12 6z"/>
<path d="M48 756 c-14 -20 -14 -23 1 -42 l17 -21 16 21 c14 20 14 23 -1 42
l-17 21 -16 -21z"/>
<path d="M628 246 c-14 -20 -14 -23 1 -42 l17 -21 16 21 c14 20 14 23 -1 42
l-17 21 -16 -21z"/>
<path d="M633 148 c-6 -7 -13 -34 -15 -60 -5 -41 -3 -48 12 -48 14 0 16 7 12
50 -3 31 -1 50 6 50 6 0 12 -6 15 -12 2 -7 8 -10 12 -6 8 8 -12 38 -25 38 -4
0 -12 -6 -17 -12z"/>
</g>
</svg>
