<?xml version="1.0" standalone="no"?>
<!DOCTYPE svg PUBLIC "-//W3C//DTD SVG 20010904//EN"
 "http://www.w3.org/TR/2001/REC-SVG-20010904/DTD/svg10.dtd">
<svg version="1.0" xmlns="http://www.w3.org/2000/svg"
 width="72.000000pt" height="96.000000pt" viewBox="0 0 72.000000 96.000000"
 preserveAspectRatio="xMidYMid meet">
<metadata>
Created by potrace 1.16, written by Peter Selinger 2001-2019
</metadata>
<g transform="translate(0.000000,96.000000) scale(0.100000,-0.100000)"
fill="#000000" stroke="none">
<path d="M0 480 l0 -480 360 0 360 0 0 480 0 480 -360 0 -360 0 0 -480z m700
0 l0 -470 -345 0 -345 0 0 470 0 470 345 0 345 0 0 -470z"/>
<path d="M25 860 c0 -50 3 -60 17 -60 14 0 16 6 11 33 l-6 32 24 -20 24 -20
-18 21 c-18 21 -17 22 7 42 32 24 33 32 5 32 -14 0 -19 -5 -16 -14 3 -8 -1
-20 -10 -28 -15 -12 -16 -10 -9 15 5 22 3 27 -11 27 -15 0 -18 -9 -18 -60z"/>
<path d="M120 480 l0 -380 235 0 235 0 0 380 0 380 -235 0 -235 0 0 -380z
m153 344 c11 -20 23 -27 53 -30 21 -1 61 -9 89 -17 l50 -14 19 43 c17 41 21
44 57 44 33 0 39 -3 39 -21 0 -11 -3 -18 -7 -16 -5 3 -7 -33 -5 -79 l3 -84
-30 0 c-37 0 -40 -12 -6 -34 13 -9 29 -26 36 -37 7 -13 -3 -7 -25 14 -20 20
-40 36 -44 36 -4 -1 -9 0 -12 1 -16 6 -87 4 -83 -3 3 -5 14 -7 24 -4 11 3 19
1 19 -5 0 -5 8 -7 19 -3 12 3 21 0 25 -10 3 -9 2 -13 -3 -10 -5 3 -12 -4 -16
-15 -4 -11 -11 -17 -17 -14 -6 4 -9 3 -6 -2 3 -5 3 -42 -1 -81 -4 -40 -4 -73
-1 -73 3 0 12 -17 20 -37 8 -21 17 -42 19 -47 2 -5 -3 -5 -10 -1 -10 6 -11 5
-3 -4 8 -9 22 -5 57 15 l47 26 0 -126 0 -126 -65 0 c-59 0 -65 2 -78 26 -11
20 -23 27 -53 30 -21 1 -61 9 -89 17 l-50 14 -19 -43 c-17 -41 -21 -44 -57
-44 -33 0 -39 3 -39 21 0 11 3 18 8 16 4 -3 5 35 4 83 -4 86 -3 88 17 83 11
-3 29 -2 38 2 25 11 127 13 133 4 3 -5 22 -6 42 -3 35 6 35 6 30 50 -3 30 -1
44 7 44 8 0 11 -10 8 -28 -2 -15 -2 -21 0 -14 3 7 9 10 14 7 5 -4 9 3 9 14 0
12 -4 21 -10 21 -6 0 -6 9 -1 23 4 12 7 37 5 55 -1 18 2 34 6 37 5 3 6 15 2
27 -5 21 -5 21 -15 -3 -13 -31 -16 -59 -6 -53 6 4 5 -38 -1 -56 -2 -3 -2 -8
-1 -12 0 -5 -3 -8 -9 -8 -17 0 -11 103 9 147 l19 41 -24 5 c-13 2 -24 0 -24
-5 0 -9 -59 -48 -73 -48 -5 0 -6 4 -2 9 3 5 1 12 -5 16 -6 3 -10 -4 -10 -18 0
-14 -3 -39 -7 -57 -4 -21 -2 -31 4 -27 5 4 8 -6 5 -23 -2 -17 -8 -27 -13 -24
-5 3 -6 -1 -3 -9 2 -7 0 -26 -5 -40 -9 -23 -8 -27 7 -27 10 0 26 6 37 14 11 7
29 16 40 20 35 10 30 -31 -6 -49 -27 -14 -29 -14 -30 2 0 11 -3 13 -6 5 -2 -6
-9 -10 -14 -6 -5 3 -9 0 -9 -7 0 -10 -3 -10 -11 -2 -6 6 -17 9 -24 7 -7 -3
-16 -1 -20 5 -3 6 -2 11 4 11 6 0 7 7 4 17 -5 12 -3 14 7 8 9 -5 11 -4 6 3 -4
7 -2 12 5 12 7 0 10 3 7 6 -10 9 -49 -16 -43 -27 4 -5 2 -9 -4 -9 -6 0 -8 -8
-4 -17 3 -10 3 -15 -2 -11 -4 4 -13 1 -19 -8 -10 -13 -16 -9 -46 23 l-35 38
36 -33 35 -32 25 51 c25 54 31 127 16 182 -5 19 -4 27 3 22 5 -3 10 -1 10 4 0
18 -30 12 -36 -6 -9 -28 -36 -77 -47 -84 -6 -4 4 -28 22 -55 l31 -49 -30 35
c-16 19 -30 38 -30 43 0 5 -6 7 -14 4 -8 -3 -13 0 -12 8 3 21 27 45 39 38 6
-3 7 -1 3 5 -8 14 11 53 31 65 9 5 12 17 8 30 -5 17 -4 19 4 7 9 -13 11 -13
11 3 0 21 -2 21 -50 -3 -22 -11 -42 -20 -45 -20 -3 0 -5 54 -5 120 l0 120 65
0 c59 0 65 -2 78 -26z m100 10 c-5 -15 -58 -13 -74 3 -8 8 2 11 34 10 32 0 44
-4 40 -13z m104 1 c-9 -6 -14 -14 -11 -17 3 -4 0 -9 -7 -14 -8 -5 -10 -3 -4 5
5 9 0 12 -16 9 -16 -2 -25 3 -27 14 -3 14 5 17 39 16 37 0 40 -2 26 -13z m58
-264 c-2 -4 5 -13 15 -21 10 -8 17 -17 14 -22 -3 -4 -1 -8 3 -8 5 0 10 -11 11
-24 1 -16 -9 -34 -31 -53 -17 -15 -32 -34 -33 -40 -2 -26 -4 -30 -18 -30 -8 0
-12 6 -9 14 3 7 9 10 15 7 5 -3 9 0 7 7 -3 28 1 49 12 49 5 0 7 -5 3 -12 -4
-6 -3 -8 3 -5 15 10 9 40 -17 83 -33 52 -36 62 -18 47 17 -15 29 -7 21 13 -4
10 0 12 11 8 9 -3 14 -9 11 -13z m-385 -22 c-7 -11 -14 -19 -16 -16 -7 7 7 37
17 37 6 0 5 -9 -1 -21z m177 -71 c-3 -8 -6 -5 -6 6 -1 11 2 17 5 13 3 -3 4
-12 1 -19z m58 12 c3 -5 1 -10 -4 -10 -6 0 -11 5 -11 10 0 6 2 10 4 10 3 0 8
-4 11 -10z m179 -75 c-9 -14 -18 -25 -21 -25 -5 0 5 18 20 38 17 22 18 13 1
-13z m-389 -24 c-6 -5 -25 10 -25 20 0 5 6 4 14 -3 8 -7 12 -15 11 -17z m79
-242 c-4 -7 2 -9 17 -7 16 2 25 -3 27 -14 3 -14 -4 -17 -37 -16 -40 0 -40 0
-24 24 15 23 31 35 17 13z m157 -26 c8 -8 -2 -11 -34 -10 -32 0 -44 4 -40 13
5 15 58 13 74 -3z"/>
<path d="M158 806 c-14 -20 -14 -23 1 -42 l17 -21 16 21 c14 20 14 23 -1 42
l-17 21 -16 -21z"/>
<path d="M308 773 c7 -3 16 -2 19 1 4 3 -2 6 -13 5 -11 0 -14 -3 -6 -6z"/>
<path d="M300 750 c0 -5 5 -10 11 -10 5 0 7 5 4 10 -3 6 -8 10 -11 10 -2 0 -4
-4 -4 -10z"/>
<path d="M516 697 c3 -10 9 -15 12 -12 3 3 0 11 -7 18 -10 9 -11 8 -5 -6z"/>
<path d="M280 692 c0 -5 14 -9 30 -9 20 0 26 3 18 9 -17 10 -48 10 -48 0z"/>
<path d="M140 669 c0 -5 5 -7 10 -4 6 3 10 8 10 11 0 2 -4 4 -10 4 -5 0 -10
-5 -10 -11z"/>
<path d="M248 639 c-13 -8 -3 -39 13 -39 6 0 9 9 6 20 -3 13 0 20 10 20 11 0
13 -5 8 -17 -4 -10 -8 -23 -8 -30 0 -7 -5 -11 -11 -10 -11 2 -17 -42 -8 -58 4
-5 7 -16 8 -23 4 -22 13 -26 13 -6 0 11 2 35 4 54 3 19 5 41 6 48 1 7 6 10 11
7 6 -4 22 0 35 9 32 21 35 20 30 -5 -3 -12 -1 -19 2 -15 4 4 8 17 8 29 2 21
-3 22 -57 22 -33 0 -64 -3 -70 -6z m24 -101 c-7 -7 -12 -8 -12 -2 0 14 12 26
19 19 2 -3 -1 -11 -7 -17z"/>
<path d="M340 599 c0 -5 -4 -7 -10 -4 -5 3 -10 1 -10 -4 0 -6 7 -11 15 -11 8
0 15 7 15 15 0 8 -2 15 -5 15 -3 0 -5 -5 -5 -11z"/>
<path d="M440 589 c0 -5 5 -7 10 -4 6 3 10 8 10 11 0 2 -4 4 -10 4 -5 0 -10
-5 -10 -11z"/>
<path d="M251 434 c0 -11 3 -14 6 -6 3 7 2 16 -1 19 -3 4 -6 -2 -5 -13z"/>
<path d="M337 374 c-8 -9 1 -24 14 -24 6 0 7 5 3 12 -5 8 -2 9 9 5 10 -3 17
-2 17 3 0 11 -33 14 -43 4z"/>
<path d="M444 367 c-6 -7 -13 -23 -16 -35 -5 -18 -3 -22 10 -20 11 2 18 14 19
36 1 17 1 32 0 32 -1 -1 -7 -6 -13 -13z"/>
<path d="M555 290 c-3 -5 -1 -10 4 -10 6 0 11 5 11 10 0 6 -2 10 -4 10 -3 0
-8 -4 -11 -10z"/>
<path d="M180 271 c0 -6 4 -13 10 -16 6 -3 7 1 4 9 -7 18 -14 21 -14 7z"/>
<path d="M380 270 c19 -12 50 -13 50 -2 0 5 -14 9 -32 10 -23 1 -28 -2 -18 -8z"/>
<path d="M171 224 c0 -11 3 -14 6 -6 3 7 2 16 -1 19 -3 4 -6 -2 -5 -13z"/>
<path d="M395 210 c3 -5 8 -10 11 -10 2 0 4 5 4 10 0 6 -5 10 -11 10 -5 0 -7
-4 -4 -10z"/>
<path d="M518 196 c-14 -20 -14 -23 1 -42 l17 -21 16 21 c14 20 14 23 -1 42
l-17 21 -16 -21z"/>
<path d="M516 551 c-4 -5 -1 -15 6 -23 7 -7 14 -20 16 -28 4 -16 24 -32 31
-25 5 6 -27 73 -39 80 -5 3 -11 1 -14 -4z"/>
<path d="M70 810 c0 -5 9 -10 20 -10 11 0 20 5 20 10 0 6 -9 10 -20 10 -11 0
-20 -4 -20 -10z"/>
<path d="M48 756 c-14 -20 -14 -23 1 -42 l17 -21 16 21 c14 20 14 23 -1 42
l-17 21 -16 -21z"/>
<path d="M628 246 c-14 -20 -14 -23 1 -42 l17 -21 16 21 c14 20 14 23 -1 42
l-17 21 -16 -21z"/>
<path d="M600 150 c0 -5 9 -10 20 -10 11 0 20 5 20 10 0 6 -9 10 -20 10 -11 0
-20 -4 -20 -10z"/>
<path d="M657 128 l6 -33 -24 20 -24 20 18 -21 c18 -21 17 -22 -7 -42 -32 -24
-33 -32 -5 -32 14 0 19 5 16 14 -3 8 1 20 10 28 15 12 16 10 9 -14 -5 -23 -3
-28 11 -28 15 0 18 9 18 60 0 50 -3 60 -17 60 -14 0 -16 -6 -11 -32z"/>
</g>
</svg>
