<?xml version="1.0" standalone="no"?>
<!DOCTYPE svg PUBLIC "-//W3C//DTD SVG 20010904//EN"
 "http://www.w3.org/TR/2001/REC-SVG-20010904/DTD/svg10.dtd">
<svg version="1.0" xmlns="http://www.w3.org/2000/svg"
 width="72.000000pt" height="96.000000pt" viewBox="0 0 72.000000 96.000000"
 preserveAspectRatio="xMidYMid meet">
<metadata>
Created by potrace 1.16, written by Peter Selinger 2001-2019
</metadata>
<g transform="translate(0.000000,96.000000) scale(0.100000,-0.100000)"
fill="#000000" stroke="none">
<path d="M0 480 l0 -480 360 0 360 0 0 480 0 480 -360 0 -360 0 0 -480z m700
0 l0 -470 -345 0 -345 0 0 470 0 470 345 0 345 0 0 -470z"/>
<path d="M40 905 c0 -12 7 -14 28 -9 l27 7 -24 -27 c-24 -26 -24 -26 -3 -26
14 0 22 -6 22 -16 0 -13 -6 -15 -27 -9 -26 6 -27 5 -11 -11 32 -33 75 11 44
45 -15 16 -15 19 -1 31 24 20 18 30 -20 30 -25 0 -35 -4 -35 -15z"/>
<path d="M332 827 c-28 -30 -28 -48 1 -75 l23 -22 22 23 c28 30 28 48 -1 75
l-23 22 -22 -23z"/>
<path d="M58 746 c-14 -20 -14 -23 1 -42 l17 -21 16 21 c14 20 14 23 -1 42
l-17 21 -16 -21z"/>
<path d="M332 517 c-28 -30 -28 -48 1 -75 l23 -22 22 23 c28 30 28 48 -1 75
l-23 22 -22 -23z"/>
<path d="M618 256 c-14 -20 -14 -23 1 -42 l17 -21 16 21 c14 20 14 23 -1 42
l-17 21 -16 -21z"/>
<path d="M332 207 c-28 -30 -28 -48 1 -75 l23 -22 22 23 c28 30 28 48 -1 75
l-23 22 -22 -23z"/>
<path d="M612 148 c-16 -16 -15 -33 3 -48 14 -12 14 -15 0 -30 -22 -25 -19
-30 20 -30 25 0 35 4 35 15 0 12 -7 14 -27 9 l-28 -7 24 27 c24 26 24 26 3 26
-14 0 -22 6 -22 16 0 13 6 15 27 9 23 -5 25 -4 14 9 -16 19 -33 20 -49 4z"/>
</g>
</svg>
