<?xml version="1.0" standalone="no"?>
<!DOCTYPE svg PUBLIC "-//W3C//DTD SVG 20010904//EN"
 "http://www.w3.org/TR/2001/REC-SVG-20010904/DTD/svg10.dtd">
<svg version="1.0" xmlns="http://www.w3.org/2000/svg"
 width="72.000000pt" height="96.000000pt" viewBox="0 0 72.000000 96.000000"
 preserveAspectRatio="xMidYMid meet">
<metadata>
Created by potrace 1.16, written by Peter Selinger 2001-2019
</metadata>
<g transform="translate(0.000000,96.000000) scale(0.100000,-0.100000)"
fill="#000000" stroke="none">
<path d="M0 480 l0 -480 360 0 360 0 0 480 0 480 -360 0 -360 0 0 -480z m700
0 l0 -470 -345 0 -345 0 0 470 0 470 345 0 345 0 0 -470z"/>
<path d="M63 888 c-40 -41 -41 -48 -7 -48 21 0 24 -4 19 -20 -5 -16 -2 -20 15
-20 17 0 21 4 16 17 -4 9 -1 20 6 25 10 6 10 10 1 16 -6 4 -13 20 -15 35 l-3
28 -32 -33z m17 -13 c0 -8 -7 -15 -16 -15 -14 0 -14 3 -4 15 7 8 14 15 16 15
2 0 4 -7 4 -15z"/>
<path d="M202 827 c-28 -30 -28 -48 1 -75 l23 -22 22 23 c28 30 28 48 -1 75
l-23 22 -22 -23z"/>
<path d="M462 827 c-28 -30 -28 -48 1 -75 l23 -22 22 23 c28 30 28 48 -1 75
l-23 22 -22 -23z"/>
<path d="M58 746 c-14 -20 -14 -23 1 -42 l17 -21 16 21 c14 20 14 23 -1 42
l-17 21 -16 -21z"/>
<path d="M618 256 c-14 -20 -14 -23 1 -42 l17 -21 16 21 c14 20 14 23 -1 42
l-17 21 -16 -21z"/>
<path d="M202 207 c-28 -30 -28 -48 1 -75 l23 -22 22 23 c28 30 28 48 -1 75
l-23 22 -22 -23z"/>
<path d="M462 207 c-28 -30 -28 -48 1 -75 l23 -22 22 23 c28 30 28 48 -1 75
l-23 22 -22 -23z"/>
<path d="M604 143 c4 -9 1 -20 -6 -25 -10 -8 -10 -11 0 -15 6 -2 12 -19 12
-36 l0 -31 35 34 c42 40 44 50 9 50 -21 0 -24 4 -19 20 5 16 2 20 -15 20 -17
0 -21 -4 -16 -17z m56 -47 c0 -2 -7 -9 -15 -16 -12 -10 -15 -10 -15 4 0 9 7
16 15 16 8 0 15 -2 15 -4z"/>
</g>
</svg>
