<?xml version="1.0" standalone="no"?>
<!DOCTYPE svg PUBLIC "-//W3C//DTD SVG 20010904//EN"
 "http://www.w3.org/TR/2001/REC-SVG-20010904/DTD/svg10.dtd">
<svg version="1.0" xmlns="http://www.w3.org/2000/svg"
 width="72.000000pt" height="96.000000pt" viewBox="0 0 72.000000 96.000000"
 preserveAspectRatio="xMidYMid meet">
<metadata>
Created by potrace 1.16, written by Peter Selinger 2001-2019
</metadata>
<g transform="translate(0.000000,96.000000) scale(0.100000,-0.100000)"
fill="#000000" stroke="none">
<path d="M0 480 l0 -480 360 0 360 0 0 480 0 480 -360 0 -360 0 0 -480z m700
0 l0 -470 -345 0 -345 0 0 470 0 470 345 0 345 0 0 -470z"/>
<path d="M41 906 c-7 -8 -11 -31 -9 -52 2 -31 9 -41 37 -57 25 -13 31 -14 22
-4 -8 10 -9 17 -1 22 5 3 10 23 10 44 0 54 -32 79 -59 47z m39 -46 c0 -29 -4
-40 -15 -40 -11 0 -15 11 -15 40 0 29 4 40 15 40 11 0 15 -11 15 -40z"/>
<path d="M120 480 l0 -380 235 0 235 0 0 380 0 380 -235 0 -235 0 0 -380z
m360 298 c30 -40 65 -83 78 -96 27 -28 29 -52 2 -27 -11 10 -20 14 -20 8 0 -5
9 -18 19 -27 20 -18 25 -56 8 -56 -5 0 -6 7 -3 16 3 9 2 12 -5 9 -5 -4 -18 3
-28 14 -24 27 -32 26 -55 -7 -20 -27 -20 -27 0 -9 28 24 38 10 14 -21 -21 -26
-27 -86 -11 -111 13 -20 33 22 25 53 -3 13 -1 27 4 30 6 4 8 -3 4 -16 -3 -14
-2 -19 6 -14 17 10 15 -15 -2 -40 -14 -19 -13 -21 14 -21 19 0 26 4 23 14 -3
7 -10 10 -17 6 -6 -4 -4 2 4 13 8 10 16 21 18 24 2 3 3 -2 2 -10 -4 -26 0 -41
9 -36 4 3 9 -33 10 -79 1 -54 -2 -85 -8 -85 -6 0 -11 -5 -11 -11 0 -5 5 -7 10
-4 6 4 10 -28 10 -89 l0 -96 -147 1 -148 0 -70 90 c-38 49 -73 89 -77 89 -5 0
-8 7 -8 17 0 14 2 14 20 -2 11 -10 20 -14 20 -8 0 5 -9 18 -19 27 -19 18 -25
56 -8 56 5 0 5 -10 2 -22 -5 -18 -4 -19 4 -8 8 12 13 11 29 -8 25 -28 33 -27
56 6 20 27 20 27 0 9 -25 -21 -40 -10 -18 14 18 20 30 89 20 115 -10 27 -39
-3 -31 -33 4 -16 -1 -33 -15 -50 l-20 -26 0 27 c0 16 -4 25 -10 21 -6 -3 -10
-1 -10 4 0 16 20 13 26 -4 7 -18 24 -10 24 11 0 8 -5 12 -10 9 -15 -9 -12 8 6
33 14 20 14 22 0 22 -9 0 -16 -6 -16 -14 0 -7 -7 -19 -16 -26 -8 -8 -14 -9
-13 -4 4 23 -2 35 -13 28 -16 -9 9 24 36 48 22 20 38 15 29 -10 -6 -16 -5 -16
14 1 11 9 20 23 20 30 0 6 2 17 3 22 1 6 2 18 1 29 -1 15 -4 16 -16 6 -8 -7
-15 -18 -15 -24 0 -6 5 -4 10 4 8 12 10 10 10 -9 0 -16 -4 -22 -15 -17 -9 3
-30 -8 -50 -25 l-35 -31 0 71 c0 41 4 71 10 71 6 0 10 5 10 11 0 5 -4 7 -10 4
-6 -4 -10 28 -10 89 l0 96 148 0 147 0 55 -72z m100 33 c0 -30 -4 -40 -20 -44
-11 -3 -23 0 -27 5 -3 7 -1 8 5 4 7 -4 12 -3 12 2 0 12 -40 48 -48 44 -4 -2
-8 2 -10 10 -2 9 0 8 7 -2 9 -13 11 -13 11 3 0 13 8 17 35 17 34 0 35 -1 35
-39z m0 -88 c-1 -27 -1 -27 -15 -9 -14 19 -12 36 6 36 5 0 9 -12 9 -27z m-29
-178 c5 4 9 1 9 -5 0 -23 -25 -3 -26 21 -1 22 -1 22 3 1 2 -12 9 -20 14 -17z
m26 -32 c-3 -10 -5 -4 -5 12 0 17 2 24 5 18 2 -7 2 -21 0 -30z m-440 -80 c-3
-10 -5 -4 -5 12 0 17 2 24 5 18 2 -7 2 -21 0 -30z m17 -214 c-11 -18 -24 -8
-24 19 1 26 1 26 15 8 8 -10 12 -23 9 -27z m22 -31 c4 -7 3 -8 -4 -4 -7 4 -12
3 -12 -3 0 -5 5 -13 10 -16 8 -5 7 -12 -2 -23 -11 -15 -11 -15 2 -6 8 5 20 10
25 10 15 -1 61 -36 48 -36 -6 0 -19 7 -27 16 -15 14 -16 14 -16 0 0 -12 -10
-16 -35 -16 -34 0 -35 1 -35 39 0 29 5 41 18 44 9 3 18 5 19 6 1 0 5 -4 9 -11z"/>
<path d="M158 806 c-14 -20 -14 -23 1 -42 l17 -21 16 21 c14 20 14 23 -1 42
l-17 21 -16 -21z"/>
<path d="M325 803 c-4 -13 -11 -21 -15 -18 -4 3 -7 -1 -7 -8 2 -20 -15 -87
-22 -87 -3 0 -7 -12 -8 -26 -1 -23 2 -26 28 -22 16 3 29 1 29 -4 0 -4 5 -8 11
-8 6 0 8 8 5 18 -6 16 -5 16 8 0 16 -22 25 -23 40 -2 10 13 12 12 11 -8 -2
-55 -23 -88 -58 -88 -16 0 -16 2 -2 31 9 17 15 33 12 35 -7 8 -97 21 -101 15
-8 -15 1 -88 14 -116 17 -35 30 -46 44 -38 5 3 6 1 2 -5 -10 -16 7 -15 23 1
11 10 13 10 7 0 -4 -8 -1 -13 8 -13 8 0 17 6 19 13 4 9 6 8 6 -2 1 -11 4 -11
16 -1 10 9 15 9 15 1 0 -6 5 -11 11 -11 6 0 9 8 7 18 -2 10 -11 16 -22 14 -13
-2 -16 1 -10 10 5 9 2 8 -11 -2 -11 -9 -16 -10 -11 -2 4 6 3 12 -1 12 -5 0
-15 -6 -22 -12 -11 -10 -14 -10 -18 0 -3 6 -9 12 -14 12 -6 0 -7 -4 -4 -10 9
-15 -4 -12 -21 5 -14 13 -7 15 55 12 51 -1 71 1 71 10 0 9 -17 11 -62 8 l-63
-4 52 8 c73 12 77 14 101 55 18 30 19 36 6 36 -8 0 -12 5 -9 11 4 6 14 8 23 4
8 -3 18 -1 22 5 5 7 18 2 38 -15 18 -15 32 -22 32 -16 0 5 -9 17 -21 25 -12 8
-18 19 -14 25 3 6 1 11 -4 11 -6 0 -11 8 -12 18 0 9 -3 12 -5 5 -3 -7 -11 -10
-18 -7 -8 3 -16 -2 -20 -12 -5 -12 -2 -15 11 -10 14 6 15 4 6 -5 -13 -13 -37
-3 -28 12 4 5 1 9 -4 9 -6 0 -11 -4 -11 -9 0 -4 -18 -7 -40 -6 -36 2 -39 1
-28 -14 10 -13 8 -12 -8 2 -11 9 -24 14 -27 10 -11 -10 -8 12 2 23 5 5 6 34 1
69 -6 46 -9 55 -15 38z m5 -205 c0 -5 -4 -8 -10 -8 -5 0 -10 -7 -10 -15 0 -9
-6 -12 -16 -8 -13 5 -13 7 -2 14 11 8 11 11 -1 18 -10 7 -7 9 12 8 15 -1 27
-5 27 -9z m-43 -54 c-3 -3 -12 -4 -19 -1 -8 3 -5 6 6 6 11 1 17 -2 13 -5z"/>
<path d="M170 666 c0 -2 7 -9 15 -16 9 -7 15 -8 15 -2 0 5 -7 12 -15 16 -8 3
-15 4 -15 2z"/>
<path d="M152 616 c15 -18 18 -18 33 -2 9 9 12 16 6 16 -5 0 -13 -5 -16 -10
-5 -8 -12 -7 -23 1 -16 12 -16 11 0 -5z"/>
<path d="M156 575 c4 -8 8 -15 10 -15 2 0 4 7 4 15 0 8 -4 15 -10 15 -5 0 -7
-7 -4 -15z"/>
<path d="M246 517 c3 -10 9 -15 12 -12 3 3 0 11 -7 18 -10 9 -11 8 -5 -6z"/>
<path d="M156 485 c4 -8 8 -15 10 -15 2 0 4 7 4 15 0 8 -4 15 -10 15 -5 0 -7
-7 -4 -15z"/>
<path d="M450 461 c0 -6 4 -13 10 -16 6 -3 7 1 4 9 -7 18 -14 21 -14 7z"/>
<path d="M290 443 c0 -9 17 -11 63 -8 67 5 60 0 -15 -10 -43 -6 -49 -10 -72
-51 -19 -34 -21 -44 -10 -44 8 0 13 -4 9 -10 -3 -5 -13 -6 -21 -3 -9 3 -19 1
-23 -6 -5 -8 -15 -6 -33 9 -33 26 -51 26 -20 0 13 -11 21 -24 17 -30 -3 -5 -1
-10 4 -10 6 0 11 -8 12 -17 0 -10 3 -13 5 -6 3 7 11 10 18 7 8 -3 16 2 20 12
5 12 2 15 -11 10 -14 -6 -15 -4 -6 5 13 13 37 3 28 -12 -4 -5 -1 -9 4 -9 6 0
11 4 11 9 0 4 18 7 40 6 36 -2 39 -1 28 14 -10 13 -8 12 8 -2 11 -9 24 -14 27
-10 10 10 8 -12 -2 -23 -5 -5 -6 -35 -4 -67 5 -55 6 -57 23 -40 9 10 15 24 12
32 -3 9 -1 12 5 8 7 -5 9 1 5 15 -3 13 -1 19 5 15 6 -4 8 3 5 18 -2 14 0 25 4
25 5 0 10 11 10 25 2 20 -3 25 -23 25 -16 0 -22 -4 -18 -12 4 -7 0 -5 -8 5 -8
9 -18 17 -22 17 -4 0 -4 -8 -1 -17 6 -17 5 -17 -8 0 -17 21 -25 22 -41 0 -10
-14 -12 -12 -10 13 3 50 27 89 58 92 l28 3 -21 -33 c-11 -18 -20 -36 -20 -40
0 -6 42 -16 90 -21 18 -2 24 90 6 113 -14 19 -156 22 -156 3z m157 -19 c-3 -3
-12 -4 -19 -1 -8 3 -5 6 6 6 11 1 17 -2 13 -5z m-26 -59 c5 4 9 1 9 -4 0 -13
-7 -13 -35 -1 -11 5 -14 9 -7 9 6 1 13 9 13 19 1 11 3 9 6 -6 2 -12 9 -20 14
-17z"/>
<path d="M530 430 c-23 -22 -30 -26 -28 -13 2 10 8 21 13 25 6 5 3 8 -6 8 -9
0 -22 -6 -28 -13 -8 -11 -5 -19 16 -38 14 -13 23 -19 20 -13 -4 7 0 17 8 24 8
7 15 9 15 4 0 -13 24 15 26 31 3 21 -1 19 -36 -15z"/>
<path d="M345 400 c3 -5 8 -10 11 -10 2 0 4 5 4 10 0 6 -5 10 -11 10 -5 0 -7
-4 -4 -10z"/>
<path d="M468 390 c-3 -8 -2 -23 1 -33 6 -17 8 -18 20 -3 8 9 11 19 7 23 -3 3
-6 0 -7 -8 -1 -8 -4 -3 -8 11 -5 18 -9 21 -13 10z"/>
<path d="M540 385 c0 -8 4 -15 10 -15 5 0 7 7 4 15 -4 8 -8 15 -10 15 -2 0 -4
-7 -4 -15z"/>
<path d="M522 345 c-7 -8 -9 -15 -4 -15 5 0 15 7 22 15 16 19 -1 19 -18 0z"/>
<path d="M510 311 c0 -5 7 -12 16 -15 14 -5 15 -4 4 9 -14 17 -20 19 -20 6z"/>
<path d="M518 196 c-14 -20 -14 -23 1 -42 l17 -21 16 21 c14 20 14 23 -1 42
l-17 21 -16 -21z"/>
<path d="M48 746 c-14 -20 -14 -23 1 -42 l17 -21 16 21 c14 20 14 23 -1 42
l-17 21 -16 -21z"/>
<path d="M628 256 c-14 -20 -14 -23 1 -42 l17 -21 16 21 c14 20 14 23 -1 42
l-17 21 -16 -21z"/>
<path d="M619 167 c8 -10 9 -17 1 -22 -16 -10 -12 -81 6 -96 27 -22 49 1 49
51 0 39 -3 45 -34 63 -25 13 -31 14 -22 4z m41 -67 c0 -29 -4 -40 -15 -40 -11
0 -15 11 -15 40 0 29 4 40 15 40 11 0 15 -11 15 -40z"/>
</g>
</svg>
