<?xml version="1.0" standalone="no"?>
<!DOCTYPE svg PUBLIC "-//W3C//DTD SVG 20010904//EN"
 "http://www.w3.org/TR/2001/REC-SVG-20010904/DTD/svg10.dtd">
<svg version="1.0" xmlns="http://www.w3.org/2000/svg"
 width="72.000000pt" height="96.000000pt" viewBox="0 0 72.000000 96.000000"
 preserveAspectRatio="xMidYMid meet">
<metadata>
Created by potrace 1.16, written by Peter Selinger 2001-2019
</metadata>
<g transform="translate(0.000000,96.000000) scale(0.100000,-0.100000)"
fill="#000000" stroke="none">
<path d="M0 480 l0 -480 360 0 360 0 0 480 0 480 -360 0 -360 0 0 -480z m700
0 l0 -470 -345 0 -345 0 0 470 0 470 345 0 345 0 0 -470z"/>
<path d="M68 870 c3 -31 1 -50 -6 -50 -6 0 -12 6 -15 13 -2 6 -8 9 -13 4 -4
-4 0 -15 9 -24 15 -15 19 -15 31 -3 7 8 16 36 19 63 4 40 2 47 -13 47 -14 0
-16 -7 -12 -50z"/>
<path d="M120 480 l0 -380 235 0 235 0 0 380 0 380 -235 0 -235 0 0 -380z
m151 344 c22 -21 36 -25 86 -25 33 0 73 -7 87 -14 15 -8 24 -10 21 -5 -3 5 4
23 16 40 18 24 30 30 58 30 l36 0 0 -125 c0 -69 -3 -125 -6 -125 -4 0 -13 8
-20 17 -8 9 -9 14 -3 10 6 -3 11 0 11 9 0 12 -4 12 -19 2 -18 -12 -22 -36 -5
-30 5 1 6 -2 2 -8 -11 -17 5 -32 21 -19 10 8 14 8 14 0 0 -6 -5 -11 -10 -11
-7 0 -7 -6 0 -19 13 -26 13 -61 -1 -61 -6 0 -8 7 -5 16 7 18 -5 44 -48 99 -17
22 -24 34 -15 28 13 -11 19 -9 34 7 17 18 16 19 -9 26 -16 4 -23 11 -19 18 4
6 1 6 -9 -2 -13 -10 -17 -10 -23 5 -5 10 -8 21 -7 24 1 5 -19 5 -62 0 -4 -1
-5 -8 -2 -16 3 -9 1 -15 -7 -14 -30 4 -45 -2 -43 -16 1 -9 6 -14 12 -13 5 2 8
6 7 11 -2 4 4 7 13 7 8 0 13 -4 9 -9 -3 -5 -1 -12 5 -16 6 -3 13 1 16 9 8 21
23 20 20 -1 -2 -14 -13 -17 -52 -17 -36 0 -49 3 -49 14 0 23 -49 19 -78 -6
-22 -19 -27 -32 -27 -68 0 -53 10 -63 35 -36 24 26 34 25 45 -4 6 -18 14 -23
29 -19 17 4 18 9 10 30 -5 14 -8 28 -5 30 2 2 8 -10 14 -26 6 -17 13 -31 16
-31 13 0 84 114 81 130 -3 13 1 16 15 13 18 -5 18 -7 -7 -40 -22 -29 -24 -36
-12 -44 10 -6 11 -9 2 -10 -7 -1 -17 -2 -23 -3 -5 0 -17 -11 -25 -23 -15 -21
-15 -23 -1 -23 19 0 22 -19 4 -22 -7 0 -17 -2 -23 -2 -5 -1 -16 -5 -22 -9 -8
-5 -13 -3 -13 4 0 7 -10 9 -25 7 -14 -3 -25 -1 -25 6 0 6 -5 4 -10 -4 -5 -8
-10 -10 -10 -5 0 6 5 16 12 23 17 17 -3 14 -26 -3 -10 -8 -23 -12 -29 -8 -6 3
-7 1 -3 -6 4 -6 12 -8 18 -5 12 7 28 -13 28 -36 0 -9 -9 -16 -20 -16 -19 0
-36 40 -32 76 1 10 0 11 -4 2 -3 -6 -11 -9 -17 -5 -6 4 -8 0 -4 -9 3 -10 -4
-25 -19 -39 -13 -12 -24 -25 -24 -29 0 -14 62 -100 69 -95 4 2 8 -2 8 -10 0
-10 -4 -12 -12 -5 -7 5 -15 6 -19 2 -4 -4 -6 0 -4 8 2 8 -3 14 -10 12 -8 -1
-11 2 -7 8 10 17 -5 33 -20 20 -9 -8 -15 -8 -20 0 -3 5 0 10 9 10 12 0 12 5 3
29 -9 25 -8 33 8 50 15 18 16 21 3 21 -9 0 -18 6 -21 13 -7 17 9 44 20 34 4
-5 1 -12 -6 -16 -11 -7 -9 -11 8 -20 26 -14 29 3 6 36 -9 12 -11 24 -6 27 5 4
12 0 14 -6 3 -7 6 -3 6 9 1 15 -4 21 -13 17 -10 -4 -12 2 -8 23 2 15 2 25 -2
22 -4 -4 -8 -21 -8 -38 -1 -18 -4 -34 -8 -36 -4 -2 -8 63 -9 145 l-2 150 58 0
c47 0 61 -4 84 -26z m69 14 c0 -5 -11 -8 -24 -8 -14 0 -27 3 -29 8 -3 4 8 7
24 7 16 0 29 -3 29 -7z m60 2 c0 -5 -11 -10 -25 -10 -14 0 -25 5 -25 10 0 6
11 10 25 10 14 0 25 -4 25 -10z m70 -6 c0 -7 -10 -9 -25 -6 -14 2 -25 7 -25
11 0 3 11 6 25 6 14 0 25 -5 25 -11z m-30 -136 c0 -4 -4 -8 -9 -8 -6 0 -12 4
-15 8 -3 5 1 9 9 9 8 0 15 -4 15 -9z m-136 -54 c3 -8 2 -12 -4 -9 -6 3 -10 -4
-10 -16 0 -12 -3 -20 -6 -16 -6 6 3 57 10 57 2 0 7 -7 10 -16z m24 -49 c-3 -3
-9 2 -12 12 -6 14 -5 15 5 6 7 -7 10 -15 7 -18z m172 -57 c0 -22 -10 -23 -36
-2 -10 8 -14 13 -8 10 7 -3 14 4 18 17 5 18 8 20 16 7 5 -8 10 -23 10 -32z
m-20 -30 c0 -4 6 -7 12 -5 8 1 12 -8 10 -25 -4 -35 12 -44 26 -13 8 17 16 22
31 18 22 -6 22 -18 2 -68 -10 -23 -14 -26 -21 -15 -8 12 -10 10 -10 -7 0 -15
5 -21 14 -17 10 4 12 -2 8 -23 -2 -15 -2 -25 2 -22 4 4 8 21 8 38 1 17 4 31 8
31 3 0 7 -65 9 -145 l2 -145 -59 0 c-49 0 -62 4 -82 25 -16 17 -34 25 -57 25
-29 0 -36 5 -44 30 -6 16 -15 27 -21 24 -6 -4 -5 -10 3 -15 8 -5 10 -9 5 -9
-5 0 -3 -7 4 -15 11 -13 8 -15 -14 -15 -15 0 -25 4 -21 10 3 6 -1 7 -10 4 -8
-4 -23 0 -32 7 -11 9 -14 10 -9 2 4 -7 -3 -26 -15 -43 -18 -24 -30 -30 -58
-30 l-36 0 0 125 c0 69 3 125 6 125 4 0 13 -8 20 -17 8 -9 9 -14 3 -10 -6 3
-11 0 -11 -7 0 -8 6 -12 14 -9 7 3 13 -2 13 -11 0 -9 8 -16 21 -16 13 0 18 -4
13 -12 -6 -10 -4 -10 8 0 16 13 26 2 34 -41 5 -24 -5 -21 -16 5 -6 17 -9 18
-9 6 -1 -16 14 -31 34 -34 6 -1 11 7 11 16 0 10 -5 16 -11 12 -5 -3 -4 2 4 11
13 17 36 14 26 -4 -4 -5 -1 -9 5 -9 6 0 8 -4 5 -10 -3 -6 1 -7 10 -3 9 3 13 9
8 12 -4 3 -9 14 -9 24 -1 13 3 16 16 12 13 -4 22 1 30 15 6 11 8 20 5 20 -12
0 -20 -5 -18 -12 2 -5 -3 -8 -11 -8 -8 0 -13 8 -12 17 2 11 14 17 35 19 24 2
31 -1 29 -14 -5 -25 45 -22 75 4 23 19 27 31 29 88 2 51 -2 70 -15 83 -9 10
-17 12 -17 6 0 -6 4 -13 9 -15 4 -1 12 -14 16 -27 4 -14 3 -21 -3 -17 -5 3
-17 -3 -27 -14 -24 -26 -34 -25 -45 4 -6 18 -14 23 -29 19 -17 -4 -18 -9 -10
-30 5 -14 8 -28 5 -30 -2 -2 -9 12 -16 32 l-12 36 -43 -61 c-24 -34 -42 -70
-40 -80 3 -13 -1 -16 -15 -13 -18 5 -18 7 7 40 22 29 24 36 12 44 -10 6 -11 9
-1 10 6 1 16 2 22 3 5 0 17 11 25 24 14 19 14 22 1 22 -8 0 -14 8 -13 19 0 11
6 17 11 13 20 -12 66 -12 66 1 0 8 4 7 10 -3 9 -13 11 -13 20 0 8 13 10 12 10
-4 0 -16 2 -17 18 -5 14 11 13 10 -2 -9 -21 -25 -11 -29 18 -7 17 13 17 15 2
37 -21 29 -20 34 4 34 11 0 20 -4 20 -8z m-234 -84 c10 -8 13 -13 7 -9 -8 3
-13 0 -13 -8 0 -8 -6 -19 -12 -25 -10 -8 -14 -2 -15 24 -3 38 4 42 33 18z
m148 -70 c3 -8 2 -12 -4 -9 -6 3 -10 10 -10 16 0 14 7 11 14 -7z m33 -16 c-3
-8 -6 -5 -6 6 -1 11 2 17 5 13 3 -3 4 -12 1 -19z m-123 -32 c-7 -19 -25 -22
-21 -3 2 12 19 28 24 23 2 -2 1 -11 -3 -20z m114 -1 c-3 -3 -9 2 -12 12 -6 14
-5 15 5 6 7 -7 10 -15 7 -18z m-128 -184 c0 -3 -11 -6 -25 -6 -14 0 -25 5 -25
11 0 7 10 9 25 6 14 -2 25 -7 25 -11z m70 -1 c0 -5 -11 -10 -25 -10 -14 0 -25
5 -25 10 0 6 11 10 25 10 14 0 25 -4 25 -10z m63 3 c3 -5 -8 -8 -24 -9 -16 -1
-29 3 -29 7 0 11 47 12 53 2z"/>
<path d="M531 824 c0 -11 3 -14 6 -6 3 7 2 16 -1 19 -3 4 -6 -2 -5 -13z"/>
<path d="M144 819 c-2 -4 6 -20 19 -34 22 -26 23 -26 39 -8 30 33 26 46 -15
48 -21 1 -40 -2 -43 -6z"/>
<path d="M300 785 c0 -5 5 -17 10 -25 5 -8 10 -10 10 -5 0 6 -5 17 -10 25 -5
8 -10 11 -10 5z"/>
<path d="M376 756 c9 -41 12 -43 32 -21 16 18 16 18 -2 4 -18 -13 -19 -12 -13
4 3 9 2 17 -4 17 -6 0 -7 5 -4 10 4 6 10 8 15 5 5 -3 11 -2 14 3 2 4 -6 8 -20
8 -22 0 -24 -3 -18 -30z"/>
<path d="M517 767 c-3 -8 0 -14 7 -14 7 0 13 6 13 14 0 7 -4 13 -8 13 -4 0 -9
-6 -12 -13z"/>
<path d="M436 738 c3 -5 10 -6 15 -3 13 9 11 12 -6 12 -8 0 -12 -4 -9 -9z"/>
<path d="M472 720 c0 -14 2 -19 5 -12 2 6 2 18 0 25 -3 6 -5 1 -5 -13z"/>
<path d="M290 709 c0 -5 5 -7 10 -4 6 3 10 8 10 11 0 2 -4 4 -10 4 -5 0 -10
-5 -10 -11z"/>
<path d="M151 656 c-9 -11 -5 -15 19 -18 34 -5 40 6 11 21 -14 8 -22 7 -30 -3z"/>
<path d="M196 601 c-4 -7 -5 -15 -2 -18 9 -9 19 4 14 18 -4 11 -6 11 -12 0z"/>
<path d="M197 564 c-4 -4 -7 -14 -7 -23 0 -11 3 -12 11 -4 6 6 10 16 7 23 -2
6 -7 8 -11 4z"/>
<path d="M259 533 c-13 -17 -13 -17 6 -3 11 8 22 16 24 17 2 2 0 3 -6 3 -6 0
-17 -8 -24 -17z"/>
<path d="M240 470 c0 -5 5 -10 10 -10 6 0 10 5 10 10 0 6 -4 10 -10 10 -5 0
-10 -4 -10 -10z"/>
<path d="M481 544 c0 -11 3 -14 6 -6 3 7 2 16 -1 19 -3 4 -6 -2 -5 -13z"/>
<path d="M536 461 c-4 -5 -3 -16 0 -25 5 -12 9 -13 19 -3 7 6 10 18 8 24 -6
15 -19 17 -27 4z"/>
<path d="M436 425 c-11 -8 -15 -15 -9 -15 6 0 16 7 23 15 16 19 11 19 -14 0z"/>
<path d="M506 414 c-4 -9 -4 -19 -1 -22 2 -3 7 3 11 12 4 9 4 19 1 22 -2 3 -7
-3 -11 -12z"/>
<path d="M500 364 c0 -8 5 -12 10 -9 6 3 10 10 10 16 0 5 -4 9 -10 9 -5 0 -10
-7 -10 -16z"/>
<path d="M505 320 c14 -23 43 -30 56 -13 12 14 12 15 -1 11 -8 -3 -25 -1 -38
3 -15 6 -21 5 -17 -1z"/>
<path d="M405 250 c-3 -5 -1 -10 4 -10 6 0 11 5 11 10 0 6 -2 10 -4 10 -3 0
-8 -4 -11 -10z"/>
<path d="M190 211 c0 -7 -4 -10 -8 -7 -5 3 -9 -2 -9 -10 0 -13 2 -13 16 0 8 9
12 19 8 22 -4 4 -7 2 -7 -5z"/>
<path d="M390 205 c0 -5 5 -17 10 -25 5 -8 10 -10 10 -5 0 6 -5 17 -10 25 -5
8 -10 11 -10 5z"/>
<path d="M508 183 c-30 -33 -26 -46 15 -48 48 -2 53 7 24 40 -22 26 -23 26
-39 8z"/>
<path d="M171 134 c0 -11 3 -14 6 -6 3 7 2 16 -1 19 -3 4 -6 -2 -5 -13z"/>
<path d="M24 759 c-2 -4 6 -20 19 -34 22 -26 23 -26 39 -8 30 33 26 46 -15 48
-21 1 -40 -2 -43 -6z"/>
<path d="M628 243 c-30 -33 -26 -46 15 -48 48 -2 53 7 24 40 -22 26 -23 26
-39 8z"/>
<path d="M633 148 c-6 -7 -13 -34 -15 -60 -5 -41 -3 -48 12 -48 14 0 16 7 12
50 -3 31 -1 50 6 50 6 0 12 -6 15 -12 2 -7 8 -10 12 -6 8 8 -12 38 -25 38 -4
0 -12 -6 -17 -12z"/>
</g>
</svg>
