<?xml version="1.0" standalone="no"?>
<!DOCTYPE svg PUBLIC "-//W3C//DTD SVG 20010904//EN"
 "http://www.w3.org/TR/2001/REC-SVG-20010904/DTD/svg10.dtd">
<svg version="1.0" xmlns="http://www.w3.org/2000/svg"
 width="72.000000pt" height="96.000000pt" viewBox="0 0 72.000000 96.000000"
 preserveAspectRatio="xMidYMid meet">
<metadata>
Created by potrace 1.16, written by Peter Selinger 2001-2019
</metadata>
<g transform="translate(0.000000,96.000000) scale(0.100000,-0.100000)"
fill="#000000" stroke="none">
<path d="M0 480 l0 -480 360 0 360 0 0 480 0 480 -360 0 -360 0 0 -480z m700
0 l0 -470 -345 0 -345 0 0 470 0 470 345 0 345 0 0 -470z"/>
<path d="M25 860 c0 -50 3 -60 17 -60 14 0 16 6 11 33 l-6 32 24 -20 24 -20
-18 21 c-18 21 -17 22 7 42 32 24 33 32 5 32 -14 0 -19 -5 -16 -14 3 -8 -1
-20 -10 -28 -15 -12 -16 -10 -9 15 5 22 3 27 -11 27 -15 0 -18 -9 -18 -60z"/>
<path d="M120 480 l0 -380 235 0 235 0 0 380 0 380 -235 0 -235 0 0 -380z
m131 338 c8 -18 13 -36 12 -40 -1 -3 14 -2 33 4 32 8 88 5 136 -8 12 -3 22 5
33 26 19 37 15 48 -9 25 -9 -9 -16 -12 -16 -6 0 7 -8 7 -23 2 -18 -7 -26 -5
-35 10 -11 16 -9 19 9 19 13 0 18 -4 13 -12 -6 -10 -5 -10 7 -1 8 6 49 12 92
12 l77 1 0 -38 c0 -21 -6 -44 -12 -51 -10 -11 -10 -13 0 -7 9 5 12 -7 11 -51
0 -37 -3 -51 -8 -39 -5 14 -10 16 -15 8 -4 -7 -4 -16 -1 -22 3 -6 -1 -7 -10
-4 -14 6 -14 8 0 24 22 24 18 53 -8 66 -24 11 -47 8 -47 -6 0 -4 10 -6 22 -2
14 3 19 1 14 -6 -3 -6 2 -13 11 -15 14 -4 13 -5 -4 -6 -37 -2 -42 -53 -8 -93
19 -22 19 -22 -7 1 -15 13 -25 28 -22 32 3 5 1 9 -3 9 -9 0 -42 -50 -55 -82
-4 -10 -3 -18 3 -18 6 0 6 -7 -1 -19 -20 -39 -13 -58 27 -64 23 -4 42 -2 48 5
7 7 7 9 0 5 -6 -3 -12 8 -13 26 -2 17 -8 35 -15 39 -9 6 -9 8 1 8 6 0 12 7 12
16 0 9 -5 12 -12 8 -7 -4 -8 -3 -4 5 4 6 2 18 -4 26 -7 8 -8 15 -3 15 16 0 33
-48 33 -93 0 -33 3 -39 11 -27 9 13 10 12 5 -2 -3 -10 -1 -18 4 -18 5 0 7 -8
4 -17 -5 -17 -5 -17 6 0 6 10 16 14 23 10 7 -4 5 2 -3 12 -13 17 -13 18 0 10
10 -6 9 -2 -3 12 -12 14 -15 23 -8 28 6 3 11 0 12 -7 0 -11 2 -11 6 0 3 7 -3
23 -13 35 -14 16 -15 19 -2 9 14 -11 17 -10 20 5 2 10 5 -11 6 -46 2 -53 -1
-68 -18 -83 -11 -11 -25 -16 -30 -13 -6 3 -7 -2 -4 -12 5 -16 4 -16 -8 -2 -11
12 -17 13 -36 3 -13 -6 -20 -13 -15 -15 5 -2 19 -19 32 -37 27 -39 57 -57 67
-40 5 7 3 8 -6 3 -9 -5 -11 -4 -6 3 19 31 26 3 26 -108 l0 -120 -54 0 c-51 0
-54 2 -67 33 -8 17 -13 35 -11 39 1 4 -11 3 -26 -3 -25 -10 -115 -5 -148 8 -7
2 -20 -9 -29 -27 -19 -37 -15 -48 9 -25 9 9 16 12 16 6 0 -7 8 -7 23 -2 18 7
26 5 35 -10 11 -16 9 -19 -9 -19 -13 0 -18 4 -13 13 6 9 5 9 -7 0 -8 -6 -49
-12 -91 -12 l-78 -1 0 38 c0 21 6 44 12 51 10 11 10 13 1 7 -10 -5 -13 6 -13
46 0 33 3 48 9 39 6 -9 11 -10 15 -2 4 6 4 15 1 21 -3 6 1 7 9 4 9 -3 16 -10
16 -16 0 -5 6 -6 13 -2 7 4 8 3 4 -2 -5 -5 -16 -9 -25 -9 -11 0 -18 -10 -20
-27 -2 -20 1 -28 12 -28 22 0 29 18 9 23 -14 4 -13 5 4 6 13 1 24 10 29 23 4
13 13 27 20 33 20 16 54 89 44 95 -5 3 -5 11 0 20 17 26 11 40 -25 57 -27 13
-37 14 -49 4 -8 -7 -12 -20 -9 -29 4 -15 3 -15 -6 -2 -6 8 -8 24 -5 35 4 18 4
18 -6 2 -6 -10 -16 -14 -23 -10 -7 4 -5 -2 3 -12 13 -17 13 -18 0 -10 -10 6
-9 2 3 -12 12 -14 15 -23 8 -28 -6 -3 -11 0 -12 7 0 11 -2 11 -6 0 -3 -7 14
-37 37 -65 l42 -52 -40 43 c-25 26 -42 38 -44 30 -3 -7 -6 12 -7 43 -1 50 2
60 29 89 27 28 34 31 32 8 -1 -3 12 -1 28 5 16 6 26 14 22 17 -4 3 -21 23 -37
45 -30 40 -46 48 -62 31 -5 -5 -2 -6 6 -1 9 5 12 4 7 -3 -19 -31 -26 -3 -26
108 l0 120 54 0 c51 0 54 -2 67 -32z m96 11 c-6 -10 -13 -15 -15 -9 -2 5 -8
10 -13 10 -6 0 -8 -3 -6 -7 3 -5 -5 -9 -17 -9 -13 -1 -28 6 -34 16 -10 17 -7
19 43 19 51 0 54 -2 42 -20z m-148 -232 c-2 -2 -20 -14 -39 -26 l-35 -23 30
26 c17 14 34 26 39 26 5 0 7 -1 5 -3z m291 -117 c0 -5 -7 -7 -15 -4 -8 4 -15
8 -15 10 0 2 7 4 15 4 8 0 15 -4 15 -10z m-266 -62 c8 -6 7 -8 -1 -8 -7 0 -13
-7 -13 -16 0 -9 5 -12 12 -8 7 4 8 3 4 -5 -4 -6 -2 -18 4 -26 7 -8 8 -15 3
-15 -16 0 -33 48 -32 88 1 22 3 29 6 17 3 -11 10 -23 17 -27z m331 -33 c-16
-14 -34 -25 -40 -25 -9 0 55 49 65 49 3 0 -8 -11 -25 -24z m-164 -255 c6 0 8
3 6 8 -3 4 5 8 17 8 13 1 28 -6 34 -16 10 -17 7 -19 -43 -19 -51 0 -54 2 -42
20 6 10 13 15 15 9 2 -5 8 -10 13 -10z"/>
<path d="M144 819 c-2 -4 6 -20 19 -34 22 -26 23 -26 39 -8 30 33 26 46 -15
48 -21 1 -40 -2 -43 -6z"/>
<path d="M503 806 c0 -31 -4 -46 -14 -46 -5 0 -7 5 -3 11 4 7 -1 10 -11 7 -32
-6 -29 -28 3 -28 17 0 33 6 35 13 4 10 6 10 6 0 1 -7 9 -13 19 -13 13 0 14 2
3 9 -7 5 -11 13 -7 19 3 6 4 17 1 24 -7 17 -32 20 -32 4z"/>
<path d="M275 740 c4 -6 11 -8 16 -5 14 9 11 15 -7 15 -8 0 -12 -5 -9 -10z"/>
<path d="M328 743 c7 -3 16 -2 19 1 4 3 -2 6 -13 5 -11 0 -14 -3 -6 -6z"/>
<path d="M260 680 c0 -5 5 -10 11 -10 5 0 7 5 4 10 -3 6 -8 10 -11 10 -2 0 -4
-4 -4 -10z"/>
<path d="M396 653 c-4 -5 -11 -8 -14 -9 -4 0 -15 -4 -25 -8 -10 -5 -23 -3 -31
3 -8 7 -25 9 -40 5 -25 -6 -25 -7 -11 -35 9 -15 19 -45 23 -66 7 -36 10 -38
49 -41 l41 -3 -8 40 c-4 23 -3 41 1 41 5 0 9 9 9 21 0 11 5 29 10 40 11 20 9
25 -4 12z m-19 -27 c0 -8 -3 -14 -6 -13 -3 1 -7 -2 -7 -8 -1 -5 3 -9 10 -7 6
1 3 -4 -6 -11 -20 -16 -24 -32 -5 -20 6 4 1 -7 -13 -24 -32 -40 -40 -41 -35
-3 3 22 1 29 -8 24 -7 -4 6 12 28 35 21 22 40 41 40 41 1 0 2 -6 2 -14z"/>
<path d="M332 588 c-8 -8 -9 -15 -1 -25 8 -9 8 -13 0 -13 -6 0 -11 -5 -11 -11
0 -8 5 -8 15 1 11 9 12 16 5 25 -8 9 -7 14 2 18 7 2 10 7 7 10 -3 4 -11 1 -17
-5z"/>
<path d="M334 481 c7 -10 31 -9 42 2 4 4 -5 7 -20 7 -15 0 -25 -4 -22 -9z"/>
<path d="M325 425 c0 -19 2 -35 5 -35 2 0 19 14 36 31 l33 32 -4 -32 c-3 -23
-1 -30 8 -25 7 4 -3 -9 -22 -29 -29 -31 -51 -40 -51 -21 0 3 4 3 9 -1 5 -3 12
-1 16 5 3 5 -2 10 -12 10 -10 0 -23 -11 -29 -25 -10 -21 -10 -24 5 -21 9 2 24
6 34 11 10 4 23 2 31 -4 14 -12 66 -5 66 8 0 4 -5 12 -11 18 -7 7 -17 33 -24
60 -12 46 -14 48 -51 51 -39 3 -39 2 -39 -33z"/>
<path d="M351 399 c-26 -24 -29 -30 -12 -24 13 4 21 2 21 -6 0 -8 4 -8 15 1
10 9 12 16 5 25 -6 8 -6 15 2 23 25 25 2 10 -31 -19z m24 -9 c3 -5 1 -10 -4
-10 -6 0 -11 5 -11 10 0 6 2 10 4 10 3 0 8 -4 11 -10z"/>
<path d="M435 280 c3 -5 8 -10 11 -10 2 0 4 5 4 10 0 6 -5 10 -11 10 -5 0 -7
-4 -4 -10z"/>
<path d="M197 225 c-9 -8 -22 -15 -29 -15 -10 0 -10 -2 1 -9 7 -5 11 -13 7
-19 -9 -14 2 -39 18 -39 16 0 17 27 3 46 -9 10 -6 17 8 27 10 8 16 16 13 19
-3 3 -13 -1 -21 -10z"/>
<path d="M415 220 c-3 -5 1 -10 10 -10 9 0 13 5 10 10 -3 6 -8 10 -10 10 -2 0
-7 -4 -10 -10z"/>
<path d="M200 198 c0 -6 3 -8 7 -5 3 4 12 2 19 -4 14 -11 34 -4 34 12 0 5 -13
9 -30 9 -16 0 -30 -5 -30 -12z"/>
<path d="M508 183 c-30 -33 -26 -46 15 -48 48 -2 53 7 24 40 -22 26 -23 26
-39 8z"/>
<path d="M70 810 c0 -5 9 -10 20 -10 11 0 20 5 20 10 0 6 -9 10 -20 10 -11 0
-20 -4 -20 -10z"/>
<path d="M24 759 c-2 -4 6 -20 19 -34 22 -26 23 -26 39 -8 30 33 26 46 -15 48
-21 1 -40 -2 -43 -6z"/>
<path d="M628 243 c-30 -33 -26 -46 15 -48 48 -2 53 7 24 40 -22 26 -23 26
-39 8z"/>
<path d="M600 150 c0 -5 9 -10 20 -10 11 0 20 5 20 10 0 6 -9 10 -20 10 -11 0
-20 -4 -20 -10z"/>
<path d="M657 128 l6 -33 -24 20 -24 20 18 -21 c18 -21 17 -22 -7 -42 -32 -24
-33 -32 -5 -32 14 0 19 5 16 14 -3 8 1 20 10 28 15 12 16 10 9 -14 -5 -23 -3
-28 11 -28 15 0 18 9 18 60 0 50 -3 60 -17 60 -14 0 -16 -6 -11 -32z"/>
</g>
</svg>
