<?xml version="1.0" standalone="no"?>
<!DOCTYPE svg PUBLIC "-//W3C//DTD SVG 20010904//EN"
 "http://www.w3.org/TR/2001/REC-SVG-20010904/DTD/svg10.dtd">
<svg version="1.0" xmlns="http://www.w3.org/2000/svg"
 width="72.000000pt" height="96.000000pt" viewBox="0 0 72.000000 96.000000"
 preserveAspectRatio="xMidYMid meet">
<metadata>
Created by potrace 1.16, written by Peter Selinger 2001-2019
</metadata>
<g transform="translate(0.000000,96.000000) scale(0.100000,-0.100000)"
fill="#000000" stroke="none">
<path d="M0 480 l0 -480 360 0 360 0 0 480 0 480 -360 0 -360 0 0 -480z m700
0 l0 -470 -345 0 -345 0 0 470 0 470 345 0 345 0 0 -470z"/>
<path d="M41 906 c-7 -8 -11 -31 -9 -52 2 -31 9 -41 37 -57 25 -13 31 -14 22
-4 -8 10 -9 17 -1 22 5 3 10 23 10 44 0 54 -32 79 -59 47z m39 -46 c0 -29 -4
-40 -15 -40 -11 0 -15 11 -15 40 0 29 4 40 15 40 11 0 15 -11 15 -40z"/>
<path d="M120 480 l0 -380 235 0 235 0 0 380 0 380 -235 0 -235 0 0 -380z
m258 334 c12 -19 20 -40 16 -46 -4 -6 -3 -8 3 -5 6 4 32 -25 57 -64 46 -69 47
-71 17 -53 -16 10 -28 21 -25 25 2 4 0 10 -6 14 -5 3 -10 1 -10 -4 0 -6 -3
-10 -7 -9 -5 0 -16 -2 -26 -7 -10 -4 -23 -2 -32 5 -13 11 -20 11 -39 0 -18 -9
-29 -9 -42 -1 -11 6 -14 11 -7 11 7 0 10 7 6 17 -5 12 -3 14 7 8 13 -8 10 16
-7 61 -4 11 -3 15 5 10 6 -3 13 -2 16 3 3 5 -3 11 -14 14 -16 4 -21 -1 -26
-32 -3 -20 -9 -50 -14 -68 -7 -28 -5 -32 19 -39 14 -4 29 -8 33 -8 3 -1 9 -4
13 -8 6 -6 -6 -5 -70 5 -5 1 -13 6 -16 10 -3 5 -13 1 -23 -8 -9 -9 -16 -14
-16 -10 0 3 -13 -1 -30 -10 l-30 -16 0 121 0 120 113 0 112 0 23 -36z m47 6
c11 -21 20 -28 33 -24 14 5 14 4 2 -4 -8 -6 -18 -8 -22 -6 -10 7 -40 64 -34
64 3 0 12 -13 21 -30z m154 -80 c-1 -100 -3 -110 -20 -110 -13 0 -17 5 -13 18
5 14 4 14 -4 2 -14 -18 -6 -30 19 -30 14 0 19 -7 19 -25 0 -29 -14 -33 -30 -7
-10 15 -11 14 -7 -5 3 -15 0 -23 -8 -23 -8 0 -17 -5 -21 -12 -4 -6 -3 -8 3 -5
6 4 11 1 10 -6 -1 -49 2 -52 31 -26 l27 24 -24 -27 c-13 -15 -27 -25 -32 -23
-4 3 -5 -4 -2 -15 4 -15 0 -20 -16 -20 -11 0 -21 -5 -21 -11 0 -6 7 -9 15 -5
29 11 17 -26 -17 -52 -16 -13 -17 -11 -14 22 2 26 -1 33 -10 26 -8 -7 -16 -5
-25 7 -13 16 -12 17 4 4 10 -8 17 -9 17 -3 0 6 -4 14 -10 17 -5 3 -10 16 -10
28 0 22 -1 22 -13 -2 -11 -21 -31 -32 -24 -13 1 4 5 6 10 5 4 -2 7 2 7 7 0 6
-12 11 -27 11 -28 2 -28 2 2 6 17 3 37 11 45 18 14 12 20 12 44 0 34 -18 36
-18 36 -5 0 6 -7 10 -16 10 -10 0 -14 6 -11 15 4 8 2 17 -3 20 -6 4 -10 20
-10 37 0 25 3 28 14 19 11 -9 15 -6 19 16 3 18 -3 38 -19 62 -22 33 -23 36 -6
46 23 13 26 33 4 31 -11 -1 -16 5 -14 16 1 9 -2 19 -8 23 -5 3 -10 15 -10 26
0 17 7 19 60 19 l61 0 -2 -110z m-129 -89 c7 -2 -23 -21 -32 -21 -5 0 -8 6 -8
14 0 8 8 13 18 11 9 -2 19 -4 22 -4z m-78 -10 c8 11 9 11 6 1 -4 -16 -22 -18
-25 -2 -1 7 0 6 4 -1 4 -8 8 -7 15 2z m-149 -29 c3 7 6 8 6 2 1 -6 -5 -17 -13
-23 -11 -9 -18 -8 -30 4 -22 23 -9 41 14 20 14 -13 19 -13 23 -3z m-65 -30
c-11 -13 -11 -15 2 -10 27 10 21 -28 -8 -53 l-27 -24 23 26 c25 28 28 40 10
37 -7 -2 -13 3 -12 10 3 38 5 43 14 37 8 -5 7 -12 -2 -23z m232 -21 c0 -38 -4
-50 -17 -53 -15 -4 -18 3 -19 49 0 45 2 53 18 53 15 0 18 -8 18 -49z m-154 -6
c-2 -25 1 -32 10 -25 8 7 16 5 25 -7 13 -16 12 -17 -3 -4 -11 8 -18 9 -18 3 0
-6 5 -14 10 -17 6 -3 10 -16 10 -28 0 -22 1 -22 13 2 11 22 28 31 26 14 -1 -5
-5 -7 -10 -5 -5 1 -9 -2 -9 -8 0 -5 12 -11 28 -11 27 -2 27 -2 -3 -6 -16 -3
-37 -11 -45 -18 -14 -12 -20 -12 -44 0 -34 18 -36 18 -36 5 0 -5 7 -10 15 -10
15 0 21 -35 8 -43 -5 -2 -2 -2 6 0 10 2 12 -6 9 -33 -3 -29 1 -42 24 -66 15
-17 28 -25 28 -19 0 6 3 10 8 9 4 0 15 2 25 7 10 4 23 2 32 -5 13 -11 20 -11
39 0 18 9 29 9 42 1 11 -6 14 -11 7 -11 -7 0 -10 -7 -6 -17 5 -12 3 -14 -7 -8
-13 8 -10 -16 7 -61 4 -11 3 -15 -5 -10 -6 3 -13 2 -16 -3 -3 -5 3 -11 14 -14
16 -4 21 3 30 52 6 31 13 61 15 68 3 9 -27 24 -57 27 -3 1 -9 4 -12 7 -4 4 49
4 62 0 1 -1 5 -1 8 0 4 0 10 -5 14 -11 5 -8 12 -7 24 5 9 9 16 14 16 10 0 -3
14 1 30 10 l30 16 0 -121 0 -120 -112 0 -113 0 -23 36 c-12 19 -20 40 -16 46
4 6 3 8 -3 5 -12 -8 -106 130 -98 143 3 5 1 11 -4 14 -5 3 -11 -6 -14 -21 -3
-18 3 -38 19 -63 24 -35 24 -35 4 -44 -25 -11 -26 -34 -2 -32 11 1 16 -5 14
-17 -2 -9 4 -20 11 -23 9 -3 13 -13 10 -25 -5 -16 -14 -19 -65 -19 l-59 0 2
108 c1 97 3 108 20 109 12 1 16 -3 12 -15 -4 -14 -3 -14 5 -2 14 18 6 30 -19
30 -14 0 -19 7 -19 25 0 29 14 33 30 8 10 -16 11 -16 7 4 -3 15 1 23 16 27 17
4 19 8 9 18 -6 6 -12 21 -12 32 0 18 -2 18 -27 -5 l-28 -24 24 27 c13 15 27
25 32 23 4 -3 5 4 2 15 -4 15 0 20 16 20 11 0 21 5 21 11 0 6 -7 9 -15 5 -23
-8 -18 20 7 44 12 11 23 20 24 20 2 0 2 -16 0 -35z m171 13 c-3 -8 -6 -5 -6 6
-1 11 2 17 5 13 3 -3 4 -12 1 -19z m65 -7 c2 -17 1 -28 -4 -25 -8 5 -12 54 -4
54 2 0 6 -13 8 -29z m-178 -2 c-3 -5 -10 -7 -15 -3 -5 3 -7 10 -3 15 3 5 10 7
15 3 5 -3 7 -10 3 -15z m52 -35 c-3 -8 -11 -14 -18 -13 -10 0 -10 2 0 6 6 2
13 17 13 31 1 18 3 21 6 9 3 -10 2 -25 -1 -33z m94 15 c0 -5 -4 -9 -8 -9 -5 0
-9 7 -9 15 0 8 4 12 9 9 4 -3 8 -9 8 -15z m-75 -59 c3 -5 2 -10 -4 -10 -5 0
-13 5 -16 10 -3 6 -2 10 4 10 5 0 13 -4 16 -10z m-9 -74 c0 -47 -2 -54 -18
-53 -26 2 -27 93 0 100 9 3 17 5 17 6 0 0 0 -24 1 -53z m27 37 c-7 -2 -14 -17
-14 -31 -1 -18 -3 -21 -6 -9 -6 24 3 47 19 46 10 0 10 -2 1 -6z m174 -11 c-20
-22 -22 -33 -4 -29 6 1 12 -4 11 -10 -3 -39 -5 -44 -14 -38 -8 5 -7 12 2 23
11 13 11 15 -3 10 -21 -8 -21 21 -1 45 8 9 17 17 20 17 3 0 -2 -8 -11 -18z
m-309 -43 c-3 -20 -5 -19 -9 9 -3 20 -2 29 4 23 5 -5 7 -19 5 -32z m186 0 c-3
-5 -10 -7 -15 -3 -5 3 -7 10 -3 15 3 5 10 7 15 3 5 -3 7 -10 3 -15z m-127 -11
c-3 -8 -6 -5 -6 6 -1 11 2 17 5 13 3 -3 4 -12 1 -19z m227 -23 c5 -14 -11 -15
-31 -2 -8 5 -13 3 -13 -4 0 -7 -3 -9 -6 -6 -4 4 -1 13 5 21 14 16 37 12 45 -9z
m-174 -38 c0 -7 -4 -6 -10 3 -8 12 -10 12 -10 1 0 -8 -3 -12 -6 -8 -9 9 6 28
17 22 5 -4 9 -12 9 -18z m-60 0 c0 -7 -9 -13 -20 -14 -25 -2 -27 14 -2 20 9 3
18 5 20 6 1 0 2 -5 2 -12z m-5 -178 c9 -16 13 -29 11 -29 -3 0 -12 13 -21 30
-11 21 -20 28 -33 24 -14 -5 -14 -4 -2 4 18 13 26 8 45 -29z"/>
<path d="M144 819 c-2 -4 6 -20 19 -34 22 -26 23 -26 39 -8 30 33 26 46 -15
48 -21 1 -40 -2 -43 -6z"/>
<path d="M345 780 c3 -5 8 -10 11 -10 2 0 4 5 4 10 0 6 -5 10 -11 10 -5 0 -7
-4 -4 -10z"/>
<path d="M398 708 c-10 -10 -14 -18 -9 -18 10 0 36 29 30 34 -2 1 -12 -6 -21
-16z"/>
<path d="M533 729 c-6 -6 -9 -18 -6 -27 5 -11 3 -13 -8 -7 -12 7 -11 6 1 -9 9
-12 16 -14 18 -7 3 9 7 9 17 1 11 -9 13 -6 11 15 -4 33 -18 49 -33 34z"/>
<path d="M522 600 c0 -14 2 -19 5 -12 2 6 2 18 0 25 -3 6 -5 1 -5 -13z"/>
<path d="M447 514 c-4 -4 -3 -12 1 -18 3 -6 7 -17 7 -25 0 -8 6 -16 13 -18 8
-3 12 6 12 26 0 24 -3 29 -17 24 -11 -4 -14 -3 -9 5 8 13 3 16 -7 6z"/>
<path d="M230 481 c0 -24 3 -29 17 -24 12 5 14 3 8 -7 -5 -9 -4 -11 4 -6 6 4
8 13 4 19 -4 7 -8 18 -8 26 0 8 -6 16 -12 18 -9 3 -13 -6 -13 -26z"/>
<path d="M181 354 c0 -11 3 -14 6 -6 3 7 2 16 -1 19 -3 4 -6 -2 -5 -13z"/>
<path d="M144 268 c3 -34 14 -48 32 -41 9 3 12 12 8 25 -5 16 -3 19 7 12 11
-6 10 -3 -1 10 -9 12 -16 14 -18 7 -3 -9 -7 -9 -17 -1 -11 9 -13 7 -11 -12z"/>
<path d="M295 249 c-4 -6 -5 -12 -2 -15 2 -3 7 2 10 11 7 17 1 20 -8 4z"/>
<path d="M508 183 c-30 -33 -26 -46 15 -48 48 -2 53 7 24 40 -22 26 -23 26
-39 8z"/>
<path d="M350 180 c0 -5 5 -10 11 -10 5 0 7 5 4 10 -3 6 -8 10 -11 10 -2 0 -4
-4 -4 -10z"/>
<path d="M24 749 c-2 -4 6 -20 19 -34 22 -26 23 -26 39 -8 30 33 26 46 -15 48
-21 1 -40 -2 -43 -6z"/>
<path d="M628 253 c-30 -33 -26 -46 15 -48 48 -2 53 7 24 40 -22 26 -23 26
-39 8z"/>
<path d="M619 167 c8 -10 9 -17 1 -22 -16 -10 -12 -81 6 -96 27 -22 49 1 49
51 0 39 -3 45 -34 63 -25 13 -31 14 -22 4z m41 -67 c0 -29 -4 -40 -15 -40 -11
0 -15 11 -15 40 0 29 4 40 15 40 11 0 15 -11 15 -40z"/>
</g>
</svg>
