<?xml version="1.0" standalone="no"?>
<!DOCTYPE svg PUBLIC "-//W3C//DTD SVG 20010904//EN"
 "http://www.w3.org/TR/2001/REC-SVG-20010904/DTD/svg10.dtd">
<svg version="1.0" xmlns="http://www.w3.org/2000/svg"
 width="72.000000pt" height="96.000000pt" viewBox="0 0 72.000000 96.000000"
 preserveAspectRatio="xMidYMid meet">
<metadata>
Created by potrace 1.16, written by Peter Selinger 2001-2019
</metadata>
<g transform="translate(0.000000,96.000000) scale(0.100000,-0.100000)"
fill="#ff0000" stroke="none">
<path d="M0 480 l0 -480 360 0 360 0 0 480 0 480 -360 0 -360 0 0 -480z m700
0 l0 -470 -345 0 -345 0 0 470 0 470 345 0 345 0 0 -470z"/>
<path d="M50 865 c-13 -27 -26 -53 -28 -57 -2 -5 6 -8 18 -8 16 0 20 4 16 15
-4 11 1 15 19 15 18 0 23 -4 19 -15 -4 -10 0 -15 15 -15 12 0 21 1 21 3 0 1
-13 27 -28 57 l-28 55 -24 -50z m40 -6 c0 -5 -7 -9 -15 -9 -15 0 -20 12 -9 23
8 8 24 -1 24 -14z"/>
<path d="M34 749 c-2 -4 6 -20 19 -34 22 -26 23 -26 39 -8 30 33 26 46 -15 48
-21 1 -40 -2 -43 -6z"/>
<path d="M296 541 c-22 -25 -15 -48 28 -90 l33 -32 36 41 c43 46 45 60 16 86
-21 19 -21 18 -38 -3 -17 -20 -18 -20 -29 -2 -15 24 -24 24 -46 0z"/>
<path d="M618 253 c-30 -33 -26 -46 15 -48 48 -2 53 7 24 40 -22 26 -23 26
-39 8z"/>
<path d="M582 153 c2 -5 15 -30 28 -58 l24 -50 28 55 c15 30 28 56 28 58 0 1
-9 2 -21 2 -15 0 -19 -5 -15 -15 4 -11 -1 -15 -19 -15 -18 0 -23 4 -19 15 4
11 0 15 -16 15 -12 0 -20 -3 -18 -7z m66 -54 c-2 -6 -8 -10 -13 -10 -5 0 -11
4 -13 10 -2 6 4 11 13 11 9 0 15 -5 13 -11z"/>
</g>
</svg>
