<?xml version="1.0" standalone="no"?>
<!DOCTYPE svg PUBLIC "-//W3C//DTD SVG 20010904//EN"
 "http://www.w3.org/TR/2001/REC-SVG-20010904/DTD/svg10.dtd">
<svg version="1.0" xmlns="http://www.w3.org/2000/svg"
 width="72.000000pt" height="96.000000pt" viewBox="0 0 72.000000 96.000000"
 preserveAspectRatio="xMidYMid meet">
<metadata>
Created by potrace 1.16, written by Peter Selinger 2001-2019
</metadata>
<g transform="translate(0.000000,96.000000) scale(0.100000,-0.100000)"
fill="#000000" stroke="none">
<path d="M0 480 l0 -480 360 0 360 0 0 480 0 480 -360 0 -360 0 0 -480z m700
0 l0 -470 -345 0 -345 0 0 470 0 470 345 0 345 0 0 -470z"/>
<path d="M52 908 c-26 -26 -6 -68 31 -68 16 0 17 -3 7 -14 -6 -8 -18 -12 -26
-9 -8 3 -14 0 -14 -6 0 -17 25 -13 43 7 30 33 17 102 -18 102 -6 0 -16 -5 -23
-12z m38 -28 c0 -11 -7 -20 -15 -20 -8 0 -15 9 -15 20 0 11 7 20 15 20 8 0 15
-9 15 -20z"/>
<path d="M166 841 c-22 -25 -15 -48 28 -90 l33 -32 36 41 c43 46 45 60 16 86
-21 19 -21 18 -38 -3 -17 -20 -18 -20 -29 -2 -15 24 -24 24 -46 0z"/>
<path d="M426 841 c-22 -25 -15 -48 28 -90 l33 -32 36 41 c43 46 45 60 16 86
-21 19 -21 18 -38 -3 -17 -20 -18 -20 -29 -2 -15 24 -24 24 -46 0z"/>
<path d="M34 749 c-2 -4 6 -20 19 -34 22 -26 23 -26 39 -8 30 33 26 46 -15 48
-21 1 -40 -2 -43 -6z"/>
<path d="M166 631 c-22 -25 -15 -48 28 -90 l33 -32 36 41 c43 46 45 60 16 86
-21 19 -21 18 -38 -3 -17 -20 -18 -20 -29 -2 -15 24 -24 24 -46 0z"/>
<path d="M426 631 c-22 -25 -15 -48 28 -90 l33 -32 36 41 c43 46 45 60 16 86
-21 19 -21 18 -38 -3 -17 -20 -18 -20 -29 -2 -15 24 -24 24 -46 0z"/>
<path d="M296 521 c-22 -25 -15 -48 28 -90 l33 -32 36 41 c43 46 45 60 16 86
-21 19 -21 18 -38 -3 -17 -20 -18 -20 -29 -2 -15 24 -24 24 -46 0z"/>
<path d="M187 411 c-43 -47 -45 -61 -16 -87 21 -19 21 -19 37 2 l17 21 16 -21
c17 -20 17 -21 38 -2 29 27 27 41 -17 87 l-38 41 -37 -41z"/>
<path d="M447 411 c-43 -47 -45 -61 -16 -87 21 -19 21 -19 37 2 l17 21 16 -21
c17 -20 17 -21 38 -2 29 27 27 41 -17 87 l-38 41 -37 -41z"/>
<path d="M618 253 c-30 -33 -26 -46 15 -48 48 -2 53 7 24 40 -22 26 -23 26
-39 8z"/>
<path d="M187 201 c-43 -47 -45 -61 -16 -87 21 -19 21 -19 37 2 l17 21 16 -21
c17 -20 17 -21 38 -2 29 27 27 41 -17 87 l-38 41 -37 -41z"/>
<path d="M447 201 c-43 -47 -45 -61 -16 -87 21 -19 21 -19 37 2 l17 21 16 -21
c17 -20 17 -21 38 -2 29 27 27 41 -17 87 l-38 41 -37 -41z"/>
<path d="M617 142 c-36 -39 -9 -121 31 -95 35 22 21 73 -20 73 -17 0 -18 3 -8
14 6 8 18 12 26 9 8 -3 14 0 14 6 0 17 -25 13 -43 -7z m33 -62 c0 -11 -7 -20
-15 -20 -8 0 -15 9 -15 20 0 11 7 20 15 20 8 0 15 -9 15 -20z"/>
</g>
</svg>
