<?xml version="1.0" standalone="no"?>
<!DOCTYPE svg PUBLIC "-//W3C//DTD SVG 20010904//EN"
 "http://www.w3.org/TR/2001/REC-SVG-20010904/DTD/svg10.dtd">
<svg version="1.0" xmlns="http://www.w3.org/2000/svg"
 width="72.000000pt" height="96.000000pt" viewBox="0 0 72.000000 96.000000"
 preserveAspectRatio="xMidYMid meet">
<metadata>
Created by potrace 1.16, written by Peter Selinger 2001-2019
</metadata>
<g transform="translate(0.000000,96.000000) scale(0.100000,-0.100000)"
fill="#000000" stroke="none">
<path d="M0 480 l0 -480 360 0 360 0 0 480 0 480 -360 0 -360 0 0 -480z m700
0 l0 -470 -345 0 -345 0 0 470 0 470 345 0 345 0 0 -470z"/>
<path d="M30 860 c0 -33 4 -60 10 -60 6 0 10 27 10 60 0 33 -4 60 -10 60 -6 0
-10 -27 -10 -60z"/>
<path d="M72 908 c-17 -17 -15 -83 3 -98 12 -10 18 -10 30 0 27 22 15 110 -15
110 -3 0 -11 -5 -18 -12z m28 -48 c0 -22 -4 -40 -10 -40 -5 0 -10 18 -10 40 0
22 5 40 10 40 6 0 10 -18 10 -40z"/>
<path d="M166 841 c-22 -25 -15 -48 28 -90 l33 -32 36 41 c43 46 45 60 16 86
-21 19 -21 18 -38 -3 -17 -20 -18 -20 -29 -2 -15 24 -24 24 -46 0z"/>
<path d="M426 841 c-22 -25 -15 -48 28 -90 l33 -32 36 41 c43 46 45 60 16 86
-21 19 -21 18 -38 -3 -17 -20 -18 -20 -29 -2 -15 24 -24 24 -46 0z"/>
<path d="M34 749 c-2 -4 6 -20 19 -34 22 -26 23 -26 39 -8 30 33 26 46 -15 48
-21 1 -40 -2 -43 -6z"/>
<path d="M296 741 c-22 -25 -15 -48 28 -90 l33 -32 36 41 c43 46 45 60 16 86
-21 19 -21 18 -38 -3 -17 -20 -18 -20 -29 -2 -15 24 -24 24 -46 0z"/>
<path d="M166 631 c-22 -25 -15 -48 28 -90 l33 -32 36 41 c43 46 45 60 16 86
-21 19 -21 18 -38 -3 -17 -20 -18 -20 -29 -2 -15 24 -24 24 -46 0z"/>
<path d="M426 631 c-22 -25 -15 -48 28 -90 l33 -32 36 41 c43 46 45 60 16 86
-21 19 -21 18 -38 -3 -17 -20 -18 -20 -29 -2 -15 24 -24 24 -46 0z"/>
<path d="M187 411 c-43 -47 -45 -61 -16 -87 21 -19 21 -19 37 2 l17 21 16 -21
c17 -20 17 -21 38 -2 29 27 27 41 -17 87 l-38 41 -37 -41z"/>
<path d="M447 411 c-43 -47 -45 -61 -16 -87 21 -19 21 -19 37 2 l17 21 16 -21
c17 -20 17 -21 38 -2 29 27 27 41 -17 87 l-38 41 -37 -41z"/>
<path d="M317 301 c-43 -47 -45 -61 -16 -87 21 -19 21 -19 37 2 l17 21 16 -21
c17 -20 17 -21 38 -2 29 27 27 41 -17 87 l-38 41 -37 -41z"/>
<path d="M618 253 c-30 -33 -26 -46 15 -48 48 -2 53 7 24 40 -22 26 -23 26
-39 8z"/>
<path d="M187 201 c-43 -47 -45 -61 -16 -87 21 -19 21 -19 37 2 l17 21 16 -21
c17 -20 17 -21 38 -2 29 27 27 41 -17 87 l-38 41 -37 -41z"/>
<path d="M447 201 c-43 -47 -45 -61 -16 -87 21 -19 21 -19 37 2 l17 21 16 -21
c17 -20 17 -21 38 -2 29 27 27 41 -17 87 l-38 41 -37 -41z"/>
<path d="M602 148 c-17 -17 -15 -83 3 -98 12 -10 18 -10 30 0 27 22 15 110
-15 110 -3 0 -11 -5 -18 -12z m28 -48 c0 -22 -4 -40 -10 -40 -5 0 -10 18 -10
40 0 22 5 40 10 40 6 0 10 -18 10 -40z"/>
<path d="M660 100 c0 -33 4 -60 10 -60 6 0 10 27 10 60 0 33 -4 60 -10 60 -6
0 -10 -27 -10 -60z"/>
</g>
</svg>
