<?xml version="1.0" standalone="no"?>
<!DOCTYPE svg PUBLIC "-//W3C//DTD SVG 20010904//EN"
 "http://www.w3.org/TR/2001/REC-SVG-20010904/DTD/svg10.dtd">
<svg version="1.0" xmlns="http://www.w3.org/2000/svg"
 width="72.000000pt" height="96.000000pt" viewBox="0 0 72.000000 96.000000"
 preserveAspectRatio="xMidYMid meet">
<metadata>
Created by potrace 1.16, written by Peter Selinger 2001-2019
</metadata>
<g transform="translate(0.000000,96.000000) scale(0.100000,-0.100000)"
fill="#000000" stroke="none">
<path d="M0 480 l0 -480 360 0 360 0 0 480 0 480 -360 0 -360 0 0 -480z m700
0 l0 -470 -345 0 -345 0 0 470 0 470 345 0 345 0 0 -470z"/>
<path d="M47 865 c-32 -67 -32 -65 -6 -65 15 0 19 5 15 15 -4 11 1 15 19 15
18 0 23 -4 19 -15 -4 -10 0 -15 15 -15 26 0 26 3 -7 68 l-28 52 -27 -55z m37
0 c3 -9 0 -15 -9 -15 -9 0 -12 6 -9 15 4 8 7 15 9 15 2 0 5 -7 9 -15z"/>
<path d="M51 746 c-26 -28 -22 -62 5 -52 12 4 15 2 10 -9 -3 -9 0 -15 9 -15 9
0 12 6 9 15 -5 11 -2 13 10 9 28 -11 31 25 4 52 l-24 25 -23 -25z"/>
<path d="M299 563 c-31 -32 -61 -69 -68 -81 -18 -34 -6 -69 30 -87 28 -15 33
-15 56 0 29 20 39 14 24 -13 -15 -29 -14 -32 14 -32 28 0 29 3 14 32 -15 27
-5 33 24 13 23 -15 28 -15 56 0 62 32 48 85 -47 178 l-48 48 -55 -58z"/>
<path d="M626 275 c5 -11 2 -13 -10 -9 -27 10 -31 -24 -5 -52 l23 -25 24 25
c27 27 24 63 -4 52 -12 -4 -15 -2 -10 9 3 9 0 15 -9 15 -9 0 -12 -6 -9 -15z"/>
<path d="M580 155 c0 -2 12 -30 27 -60 l27 -55 28 52 c33 65 33 68 7 68 -15 0
-19 -5 -15 -15 4 -11 -1 -15 -19 -15 -18 0 -23 4 -19 15 4 10 0 15 -15 15 -12
0 -21 -2 -21 -5z m64 -60 c-4 -8 -7 -15 -9 -15 -2 0 -5 7 -9 15 -3 9 0 15 9
15 9 0 12 -6 9 -15z"/>
</g>
</svg>
