<?xml version="1.0" standalone="no"?>
<!DOCTYPE svg PUBLIC "-//W3C//DTD SVG 20010904//EN"
 "http://www.w3.org/TR/2001/REC-SVG-20010904/DTD/svg10.dtd">
<svg version="1.0" xmlns="http://www.w3.org/2000/svg"
 width="72.000000pt" height="96.000000pt" viewBox="0 0 72.000000 96.000000"
 preserveAspectRatio="xMidYMid meet">
<metadata>
Created by potrace 1.16, written by Peter Selinger 2001-2019
</metadata>
<g transform="translate(0.000000,96.000000) scale(0.100000,-0.100000)"
fill="#000000" stroke="none">
<path d="M0 480 l0 -480 360 0 360 0 0 480 0 480 -360 0 -360 0 0 -480z m700
0 l0 -470 -345 0 -345 0 0 470 0 470 345 0 345 0 0 -470z"/>
<path d="M40 890 c0 -25 4 -30 25 -30 18 0 25 -5 25 -20 0 -22 -26 -28 -33 -7
-2 6 -8 9 -12 5 -16 -15 5 -39 32 -36 25 3 28 7 28 38 0 29 -4 36 -22 38 -31
5 -29 22 2 22 14 0 25 5 25 10 0 6 -16 10 -35 10 -32 0 -35 -2 -35 -30z"/>
<path d="M181 815 c-17 -20 -31 -42 -31 -49 0 -20 27 -39 49 -33 14 3 18 1 14
-9 -3 -9 1 -14 12 -14 11 0 15 5 12 14 -4 10 0 12 14 9 22 -6 49 13 49 33 0
18 -59 84 -75 84 -7 0 -27 -16 -44 -35z"/>
<path d="M441 815 c-17 -20 -31 -42 -31 -49 0 -20 27 -39 49 -33 14 3 18 1 14
-9 -3 -9 1 -14 12 -14 11 0 15 5 12 14 -4 10 0 12 14 9 22 -6 49 13 49 33 0
18 -59 84 -75 84 -7 0 -27 -16 -44 -35z"/>
<path d="M51 746 c-26 -28 -22 -62 5 -52 12 4 15 2 10 -9 -3 -9 0 -15 9 -15 9
0 12 6 9 15 -5 11 -2 13 10 9 28 -11 31 25 4 52 l-24 25 -23 -25z"/>
<path d="M311 515 c-17 -20 -31 -42 -31 -49 0 -20 27 -39 49 -33 14 3 18 1 14
-9 -3 -9 1 -14 12 -14 11 0 15 5 12 14 -4 10 0 12 14 9 22 -6 49 13 49 33 0
18 -59 84 -75 84 -7 0 -27 -16 -44 -35z"/>
<path d="M626 275 c5 -11 2 -13 -10 -9 -27 10 -31 -24 -5 -52 l23 -25 24 25
c27 27 24 63 -4 52 -12 -4 -15 -2 -10 9 3 9 0 15 -9 15 -9 0 -12 -6 -9 -15z"/>
<path d="M213 236 c4 -10 0 -12 -14 -9 -22 6 -49 -13 -49 -33 0 -18 59 -84 75
-84 16 0 75 66 75 84 0 20 -27 39 -49 33 -14 -3 -18 -1 -14 9 3 9 -1 14 -12
14 -11 0 -15 -5 -12 -14z"/>
<path d="M473 236 c4 -10 0 -12 -14 -9 -22 6 -49 -13 -49 -33 0 -18 59 -84 75
-84 16 0 75 66 75 84 0 20 -27 39 -49 33 -14 -3 -18 -1 -14 9 3 9 -1 14 -12
14 -11 0 -15 -5 -12 -14z"/>
<path d="M604 146 c-11 -29 1 -61 24 -64 30 -5 28 -22 -3 -22 -14 0 -25 -4
-25 -10 0 -5 16 -10 35 -10 32 0 35 2 35 30 0 25 -4 30 -25 30 -18 0 -25 5
-25 20 0 22 26 28 33 8 2 -7 8 -10 12 -6 4 4 5 14 2 23 -8 19 -56 20 -63 1z"/>
</g>
</svg>
