<?xml version="1.0" standalone="no"?>
<!DOCTYPE svg PUBLIC "-//W3C//DTD SVG 20010904//EN"
 "http://www.w3.org/TR/2001/REC-SVG-20010904/DTD/svg10.dtd">
<svg version="1.0" xmlns="http://www.w3.org/2000/svg"
 width="72.000000pt" height="96.000000pt" viewBox="0 0 72.000000 96.000000"
 preserveAspectRatio="xMidYMid meet">
<metadata>
Created by potrace 1.16, written by Peter Selinger 2001-2019
</metadata>
<g transform="translate(0.000000,96.000000) scale(0.100000,-0.100000)"
fill="#000000" stroke="none">
<path d="M0 480 l0 -480 360 0 360 0 0 480 0 480 -360 0 -360 0 0 -480z m700
0 l0 -470 -345 0 -345 0 0 470 0 470 345 0 345 0 0 -470z"/>
<path d="M68 870 c3 -31 1 -50 -6 -50 -6 0 -12 6 -15 13 -2 6 -8 9 -12 5 -13
-12 4 -38 25 -38 24 0 27 7 33 73 4 40 2 47 -13 47 -14 0 -16 -7 -12 -50z"/>
<path d="M120 480 l0 -380 235 0 235 0 0 380 0 380 -235 0 -235 0 0 -380z
m159 333 c35 -42 43 -87 14 -76 -16 6 -17 5 -3 -12 9 -11 10 -16 3 -11 -8 4
-13 2 -13 -4 0 -6 -4 -8 -10 -5 -5 3 -10 2 -10 -3 0 -5 9 -12 20 -15 11 -3 18
-1 14 4 -3 5 0 9 5 9 6 0 11 8 12 18 0 10 3 12 6 4 2 -6 10 -9 15 -5 7 4 9 -1
6 -14 -3 -11 0 -20 7 -20 7 0 10 10 7 24 -2 13 -11 23 -19 23 -8 0 -13 6 -10
13 2 6 0 20 -4 29 -7 12 -4 18 11 23 11 3 24 3 30 0 5 -3 10 -1 10 4 0 16 77
14 83 -1 2 -8 15 -1 33 20 21 24 37 32 61 32 l33 0 0 -110 c0 -73 -4 -110 -11
-110 -6 0 -13 9 -16 20 -5 19 -6 20 -19 3 -11 -15 -13 -15 -14 -3 0 13 -2 13
-9 0 -10 -15 -4 -33 8 -26 4 3 8 -2 8 -10 0 -11 -6 -9 -24 8 -12 12 -24 20
-26 17 -2 -2 -13 -17 -25 -33 -23 -30 -21 -46 5 -46 11 0 14 6 10 21 -4 16 -1
20 16 17 12 -2 23 -11 25 -22 3 -11 0 -16 -7 -11 -6 3 -9 11 -6 16 4 5 1 9 -4
9 -6 0 -10 -10 -8 -22 1 -17 -3 -22 -17 -20 -10 2 -16 -1 -13 -5 3 -5 2 -15
-3 -23 -7 -11 -12 -11 -23 -2 -8 7 -22 10 -31 6 -9 -3 -16 -1 -16 5 0 18 -18
13 -23 -6 -4 -14 -5 -12 -6 5 -1 12 -7 22 -16 22 -9 0 -15 -10 -16 -22 -1 -22
-1 -22 -8 1 -10 36 -31 38 -32 4 -1 -27 -1 -27 -8 -4 -9 33 -29 38 -39 10 -7
-19 -10 -20 -15 -6 -4 10 -2 17 4 17 6 0 7 5 3 12 -4 7 -3 8 4 4 7 -4 12 -2
12 4 0 8 6 8 23 0 20 -10 21 -10 4 4 -11 8 -25 12 -33 9 -16 -6 -19 13 -4 22
8 5 7 11 -1 21 -19 23 3 39 30 22 14 -9 21 -23 21 -45 0 -19 5 -34 13 -34 36
-4 54 -8 71 -15 14 -5 17 -4 12 4 -4 7 -2 12 4 12 6 0 9 4 5 9 -3 6 3 14 12
20 10 6 14 11 10 11 -13 0 33 60 46 60 8 0 7 -3 -2 -9 -10 -7 -10 -10 -1 -16
14 -9 30 12 24 30 -5 13 -51 8 -60 -6 -3 -5 -14 -5 -25 1 -16 9 -19 7 -19 -12
0 -19 2 -20 10 -8 8 13 10 12 10 -2 0 -22 -16 -23 -36 -4 -11 11 -11 16 -1 19
7 3 5 6 -5 6 -20 1 -24 -25 -5 -32 6 -2 0 -4 -14 -3 -19 1 -25 5 -21 18 3 12
-4 19 -22 24 -19 4 -43 -3 -91 -30 l-65 -36 0 120 0 120 59 0 c57 0 61 -2 90
-37z m-118 -237 c-7 -8 -8 -17 -2 -20 5 -3 7 -16 3 -28 -4 -17 -2 -20 11 -15
13 5 14 2 8 -14 -11 -32 -25 -24 -34 22 -10 50 -1 97 15 81 8 -8 8 -15 -1 -26z
m369 -36 c5 8 7 3 7 -14 -2 -24 -3 -25 -14 -9 -7 9 -13 22 -12 27 0 6 3 5 6
-3 4 -10 7 -11 13 -1z m-23 -34 c15 -13 32 -23 38 -22 13 1 28 -80 20 -112 -4
-18 -9 -22 -17 -14 -8 8 -8 15 1 26 8 9 8 16 2 20 -6 4 -8 13 -5 21 3 8 -1 21
-9 30 -14 13 -16 13 -22 -5 -3 -11 -10 -20 -15 -20 -4 0 -7 -8 -6 -17 0 -10
-5 -17 -11 -15 -7 1 -13 -3 -13 -8 0 -7 -7 -7 -22 0 -21 10 -22 10 -5 -4 11
-8 25 -12 33 -9 16 6 19 -13 4 -22 -8 -5 -7 -11 1 -21 9 -11 9 -18 1 -26 -17
-17 -52 19 -52 54 0 15 -6 29 -12 29 -37 4 -55 8 -72 15 -14 5 -17 4 -12 -4 4
-7 2 -12 -4 -12 -6 0 -9 -4 -5 -9 3 -6 -3 -14 -12 -20 -10 -6 -14 -11 -10 -11
13 0 -33 -60 -46 -60 -8 0 -7 3 2 9 10 7 10 10 1 16 -7 4 -16 1 -21 -6 -5 -8
-4 -15 1 -17 6 -2 8 -7 5 -11 -2 -5 7 -6 20 -3 14 2 28 8 31 13 3 5 14 5 25
-1 16 -9 19 -7 19 12 0 19 -2 20 -11 8 -9 -13 -10 -13 -6 0 2 10 17 15 44 15
33 1 39 -2 35 -17 -3 -12 3 -19 21 -23 19 -5 44 3 91 28 l66 35 0 -119 0 -119
-59 0 c-53 0 -62 3 -84 29 -20 24 -32 29 -61 28 -20 -1 -36 -6 -36 -11 0 -5
-24 -6 -54 -3 -50 5 -56 3 -71 -19 -11 -18 -24 -24 -50 -24 l-35 0 0 110 c0
107 10 138 29 88 7 -20 8 -20 15 -2 6 16 9 16 16 4 8 -12 10 -10 10 8 0 13 -4
21 -8 18 -5 -3 -9 2 -9 10 0 11 6 9 24 -8 23 -21 23 -21 38 -2 33 41 37 54 19
61 -9 3 -20 0 -25 -8 -5 -8 -9 -10 -9 -6 0 5 -6 5 -12 1 -9 -6 -5 -11 12 -16
l25 -7 -25 2 c-16 1 -26 9 -28 22 -3 11 -1 17 3 13 5 -4 14 0 21 10 11 14 8
21 -17 42 -22 19 -27 29 -19 40 8 12 10 10 10 -9 0 -16 4 -21 15 -17 9 3 19
-3 26 -16 9 -16 13 -18 19 -7 7 10 12 10 23 1 8 -7 22 -10 31 -6 9 3 16 1 16
-5 0 -18 18 -13 23 7 4 13 5 11 6 -5 1 -13 7 -23 16 -23 9 0 15 10 16 23 1 21
1 21 8 -2 10 -36 31 -38 32 -4 1 27 1 27 8 4 8 -31 29 -38 38 -14 4 10 12 23
19 28 21 17 21 50 1 50 -10 0 -23 8 -28 18 -14 25 4 22 38 -7z m57 -2 c3 -8 2
-12 -4 -9 -6 3 -10 10 -10 16 0 14 7 11 14 -7z m-320 -15 c-3 -5 -10 -7 -15
-3 -5 3 -7 10 -3 15 3 5 10 7 15 3 5 -3 7 -10 3 -15z m40 -5 c3 -8 2 -12 -4
-9 -6 3 -10 10 -10 16 0 14 7 11 14 -7z m154 -19 c-3 -3 -9 2 -12 12 -6 14 -5
15 5 6 7 -7 10 -15 7 -18z m46 -6 c-3 -5 -10 -7 -15 -3 -5 3 -7 10 -3 15 3 5
10 7 15 3 5 -3 7 -10 3 -15z m-326 -14 c-3 -3 -9 2 -12 12 -6 14 -5 15 5 6 7
-7 10 -15 7 -18z m42 -29 c0 -6 -4 -5 -9 3 -7 11 -9 11 -14 0 -2 -8 -4 -2 -3
14 1 24 2 25 14 10 6 -9 12 -22 12 -27z"/>
<path d="M161 806 c-26 -28 -22 -62 5 -52 12 4 15 2 10 -9 -3 -9 0 -15 9 -15
9 0 12 6 9 15 -5 11 -2 13 10 9 28 -11 31 25 4 52 l-24 25 -23 -25z"/>
<path d="M534 806 c1 -11 9 -20 19 -22 9 -1 15 2 11 7 -3 5 -9 7 -14 4 -5 -3
-10 3 -13 12 -3 15 -4 15 -3 -1z"/>
<path d="M555 820 c3 -5 8 -10 11 -10 2 0 4 5 4 10 0 6 -5 10 -11 10 -5 0 -7
-4 -4 -10z"/>
<path d="M346 763 c-6 -14 -5 -15 5 -6 7 7 10 15 7 18 -3 3 -9 -2 -12 -12z"/>
<path d="M533 728 c-1 -37 0 -39 6 -13 4 21 9 26 15 17 4 -7 5 -20 2 -28 -3
-8 -1 -12 4 -9 5 3 9 17 8 30 -1 13 -6 22 -10 19 -4 -2 -11 3 -16 12 -6 11 -9
3 -9 -28z"/>
<path d="M370 710 c-13 -8 -12 -10 3 -10 9 0 17 5 17 10 0 12 -1 12 -20 0z"/>
<path d="M427 631 c-3 -11 -1 -23 3 -26 14 -8 22 13 12 31 -8 14 -10 14 -15
-5z"/>
<path d="M247 619 c6 -22 23 -26 23 -5 0 8 -6 16 -14 19 -10 4 -12 0 -9 -14z"/>
<path d="M401 582 c-11 -21 2 -42 26 -42 10 0 11 5 4 19 -6 10 -8 21 -5 24 3
3 1 8 -5 11 -5 4 -15 -2 -20 -12z m19 -22 c0 -5 -2 -10 -4 -10 -3 0 -8 5 -11
10 -3 6 -1 10 4 10 6 0 11 -4 11 -10z"/>
<path d="M235 410 c-3 -6 1 -7 9 -4 18 7 21 14 7 14 -6 0 -13 -4 -16 -10z"/>
<path d="M279 403 c9 -17 11 -24 11 -40 0 -5 7 1 15 11 11 14 12 23 4 33 -18
20 -42 17 -30 -4z m26 -3 c3 -5 1 -10 -4 -10 -6 0 -11 5 -11 10 0 6 2 10 4 10
3 0 8 -4 11 -10z"/>
<path d="M261 347 c-9 -12 -8 -16 3 -20 19 -7 32 11 19 24 -6 6 -14 5 -22 -4z"/>
<path d="M440 346 c0 -8 6 -16 14 -19 10 -4 12 0 9 14 -6 22 -23 26 -23 5z"/>
<path d="M350 305 c0 -8 7 -15 15 -15 8 0 15 7 15 15 0 8 -7 15 -15 15 -8 0
-15 -7 -15 -15z"/>
<path d="M358 253 c2 -13 11 -23 19 -23 9 0 13 -6 10 -13 -3 -8 -1 -20 5 -28
7 -10 8 -2 5 26 l-5 40 13 -30 c8 -16 15 -24 16 -17 1 6 3 17 4 22 1 6 3 15 4
21 0 5 6 7 11 4 6 -3 10 -1 10 5 0 8 -7 9 -17 5 -10 -4 -22 -8 -28 -9 -5 -1
-16 -5 -22 -9 -8 -5 -13 -3 -13 7 0 8 8 17 18 19 9 3 6 4 -9 4 -21 -1 -25 -5
-21 -24z"/>
<path d="M147 263 c-8 -14 -5 -63 4 -69 5 -3 6 3 3 13 -5 17 -5 17 9 1 12 -16
14 -13 14 25 1 38 0 39 -7 12 -5 -24 -8 -27 -14 -13 -4 9 -5 22 -1 28 3 5 4
10 1 10 -3 0 -7 -3 -9 -7z"/>
<path d="M320 252 c0 -5 7 -9 15 -9 8 0 15 4 15 9 0 4 -7 8 -15 8 -8 0 -15 -4
-15 -8z"/>
<path d="M516 215 c5 -11 2 -13 -10 -9 -27 10 -31 -24 -5 -52 l23 -25 24 25
c27 27 24 63 -4 52 -12 -4 -15 -2 -10 9 3 9 0 15 -9 15 -9 0 -12 -6 -9 -15z"/>
<path d="M355 199 c-4 -6 -5 -12 -2 -15 2 -3 7 2 10 11 7 17 1 20 -8 4z"/>
<path d="M172 150 c0 -14 2 -19 5 -12 2 6 2 18 0 25 -3 6 -5 1 -5 -13z"/>
<path d="M140 140 c0 -5 5 -10 11 -10 5 0 7 5 4 10 -3 6 -8 10 -11 10 -2 0 -4
-4 -4 -10z"/>
<path d="M41 746 c-26 -28 -22 -62 5 -52 12 4 15 2 10 -9 -3 -9 0 -15 9 -15 9
0 12 6 9 15 -5 11 -2 13 10 9 28 -11 31 25 4 52 l-24 25 -23 -25z"/>
<path d="M636 275 c5 -11 2 -13 -10 -9 -27 10 -31 -24 -5 -52 l23 -25 24 25
c27 27 24 63 -4 52 -12 -4 -15 -2 -10 9 3 9 0 15 -9 15 -9 0 -12 -6 -9 -15z"/>
<path d="M625 148 c-2 -7 -5 -34 -8 -60 -4 -41 -2 -48 13 -48 14 0 16 7 12 50
-3 31 -1 50 6 50 6 0 12 -6 15 -12 2 -7 8 -10 12 -6 4 4 5 14 2 23 -8 18 -46
20 -52 3z"/>
</g>
</svg>
