<?xml version="1.0" standalone="no"?>
<!DOCTYPE svg PUBLIC "-//W3C//DTD SVG 20010904//EN"
 "http://www.w3.org/TR/2001/REC-SVG-20010904/DTD/svg10.dtd">
<svg version="1.0" xmlns="http://www.w3.org/2000/svg"
 width="72.000000pt" height="96.000000pt" viewBox="0 0 72.000000 96.000000"
 preserveAspectRatio="xMidYMid meet">
<metadata>
Created by potrace 1.16, written by Peter Selinger 2001-2019
</metadata>
<g transform="translate(0.000000,96.000000) scale(0.100000,-0.100000)"
fill="#000000" stroke="none">
<path d="M0 480 l0 -480 360 0 360 0 0 480 0 480 -360 0 -360 0 0 -480z m700
0 l0 -470 -345 0 -345 0 0 470 0 470 345 0 345 0 0 -470z"/>
<path d="M37 914 c-4 -4 -7 -29 -7 -55 0 -43 3 -49 32 -63 17 -9 32 -16 34
-16 1 0 1 30 0 68 -1 64 -2 67 -26 70 -14 2 -29 0 -33 -4z m43 -54 c0 -29 -4
-40 -15 -40 -11 0 -15 11 -15 40 0 29 4 40 15 40 11 0 15 -11 15 -40z"/>
<path d="M120 480 l0 -380 235 0 235 0 0 380 0 380 -235 0 -235 0 0 -380z
m214 355 c-7 -18 -16 -19 -33 -2 -7 6 -11 8 -10 2 2 -5 -2 -19 -7 -30 -18 -32
-26 -75 -14 -75 37 0 -56 -105 -101 -114 -25 -5 -28 -8 -20 -24 7 -14 6 -19
-4 -19 -10 0 -14 29 -14 139 l-2 138 105 0 c90 0 105 -2 100 -15z m17 -8 c-10
-9 -11 -8 -5 6 3 10 9 15 12 12 3 -3 0 -11 -7 -18z m133 1 c3 -13 1 -24 -4
-26 -6 -2 -10 -8 -10 -13 0 -6 5 -7 10 -4 16 10 11 -35 -7 -67 -16 -27 -22
-29 -53 -23 -19 4 -50 6 -68 6 -30 -2 -32 0 -20 18 6 11 16 17 20 15 5 -3 7
-2 6 3 -2 5 8 32 22 61 23 48 28 51 61 52 30 0 38 -4 43 -22z m96 -8 c0 -32
-9 -37 -27 -19 -9 9 -11 7 -6 -9 3 -12 10 -19 19 -15 8 3 14 1 14 -5 0 -15
-26 -22 -39 -9 -6 6 -11 8 -11 3 0 -4 7 -14 15 -22 8 -9 15 -11 15 -5 0 6 5
11 10 11 6 0 10 -25 10 -55 0 -42 -3 -55 -15 -55 -10 0 -15 11 -16 38 -1 24
-3 29 -6 14 -3 -15 -10 -22 -19 -18 -9 4 -14 -2 -15 -17 -2 -62 -8 -102 -17
-105 -11 -3 -3 -52 9 -52 4 0 11 5 14 10 3 6 11 10 16 10 6 0 7 -5 3 -11 -4
-7 1 -10 11 -7 26 4 31 28 7 28 -19 0 -20 2 -5 30 8 17 18 28 23 25 12 -8 10
-79 -3 -87 -9 -6 -8 -11 2 -17 11 -7 12 -13 3 -23 -9 -11 -9 -17 0 -26 9 -9 9
-12 -2 -12 -13 0 -13 -2 -1 -9 8 -6 -3 -7 -30 -4 -39 4 -47 1 -73 -26 -23 -23
-33 -28 -43 -20 -22 19 -15 30 14 23 23 -6 25 -4 20 15 -3 11 -1 21 4 21 15 0
10 17 -7 24 -13 5 -15 1 -12 -19 6 -32 -7 -42 -21 -17 -14 26 25 64 57 55 25
-6 28 2 8 23 -8 8 -13 23 -11 34 2 11 -1 20 -8 20 -13 0 -97 80 -97 93 0 4 6
5 13 1 7 -4 8 -3 4 2 -5 5 -14 9 -20 9 -15 0 -67 40 -67 50 0 4 6 2 13 -4 8
-6 17 -8 20 -5 7 7 88 -73 113 -111 21 -33 33 -32 26 1 -3 17 -1 25 6 21 5 -4
12 0 16 8 3 8 1 15 -4 15 -6 0 -10 14 -10 31 0 16 4 28 9 25 5 -3 14 1 21 9
10 12 10 28 1 76 -7 34 -15 67 -18 75 -4 11 6 14 41 14 44 0 46 -1 46 -30z
m-253 -30 c4 -12 3 -12 -5 -1 -8 10 -13 8 -26 -10 -9 -13 -16 -18 -16 -12 0 7
5 15 10 18 6 4 7 11 4 17 -4 6 1 8 11 6 10 -1 20 -10 22 -18z m44 -187 c53
-49 83 -85 84 -99 0 -12 -3 -20 -7 -18 -4 3 -8 11 -8 18 0 7 -38 49 -84 94
-46 45 -80 82 -75 82 4 0 45 -35 90 -77z m63 50 c8 -16 15 -22 16 -14 0 8 2
12 5 9 3 -3 3 -13 -1 -22 -5 -13 -9 -14 -20 -5 -8 6 -12 15 -9 19 3 5 1 11 -5
15 -5 3 -10 10 -10 16 0 16 9 10 24 -18z m-86 -86 c12 -12 28 -30 36 -42 13
-19 12 -21 -10 -23 -14 -1 -27 5 -30 13 -4 8 -12 15 -20 15 -24 0 -15 20 9 21
21 1 21 1 -3 9 -14 4 -22 8 -18 9 4 1 3 13 -2 29 -8 23 -8 24 3 8 6 -10 22
-28 35 -39z m222 43 c0 -5 -4 -10 -10 -10 -5 0 -10 5 -10 10 0 6 5 10 10 10 6
0 10 -4 10 -10z m-385 -19 c-3 -6 -11 -8 -17 -5 -6 4 -5 9 3 15 16 10 23 4 14
-10z m115 -12 c0 -5 -12 -6 -27 -3 -23 6 -25 4 -20 -15 3 -11 1 -21 -4 -21
-15 0 -10 -17 7 -24 13 -5 15 -1 12 19 -6 32 7 42 21 17 8 -15 5 -24 -13 -41
-22 -21 -23 -25 -10 -50 7 -15 49 -62 93 -104 43 -42 75 -77 70 -77 -12 0
-174 153 -174 165 -1 25 -18 55 -31 55 -18 0 -18 -8 0 -26 8 -7 13 -22 12 -31
-2 -10 3 -20 10 -23 14 -6 164 -149 164 -157 0 -3 -6 0 -13 6 -8 6 -16 8 -19
5 -9 -8 -54 34 -96 89 -39 51 -53 59 -45 27 4 -13 -1 -27 -13 -36 -11 -9 -13
-13 -6 -9 8 4 12 -4 12 -29 0 -26 -4 -36 -15 -36 -9 0 -18 -6 -21 -14 -5 -13
11 -111 23 -143 4 -9 -8 -13 -41 -13 -44 0 -46 1 -46 30 0 32 9 37 27 19 9 -9
11 -7 6 9 -3 12 -10 19 -19 15 -8 -3 -14 -1 -14 5 0 15 26 22 39 9 6 -6 11 -8
11 -3 0 4 -7 14 -15 22 -8 9 -15 11 -15 5 0 -6 -4 -11 -10 -11 -5 0 -10 25
-10 55 0 42 3 55 15 55 10 0 15 -11 16 -37 1 -23 3 -29 6 -16 3 14 9 20 19 16
11 -4 14 4 15 33 1 53 8 88 18 92 10 3 2 52 -8 52 -9 0 -45 -49 -54 -73 -4
-10 -11 -16 -16 -13 -13 8 -11 80 2 89 9 5 8 10 -3 17 -12 7 -12 12 -3 21 9 9
10 16 2 26 -9 10 -8 13 2 13 12 0 12 2 0 9 -8 6 3 7 30 4 39 -4 47 -1 73 26
23 23 33 28 43 20 7 -6 13 -15 13 -20z m66 -134 c4 -8 12 -15 20 -15 24 0 15
-20 -8 -21 -21 -1 -22 -1 -3 -7 11 -4 21 -15 23 -24 2 -13 -7 -8 -31 15 -55
53 -60 62 -31 65 14 1 27 -4 30 -13z m213 -195 l2 -140 -75 0 c-49 0 -77 4
-85 13 -6 8 -8 17 -4 20 3 4 1 7 -5 7 -7 0 -12 5 -12 11 0 5 5 7 11 3 11 -7
29 12 29 31 0 6 -5 3 -10 -5 -6 -9 -10 -10 -10 -3 0 7 8 17 18 22 14 9 14 12
3 20 -17 11 -5 34 43 80 20 19 36 41 36 47 0 7 5 16 11 20 8 4 9 0 4 -15 -7
-23 -5 -24 19 -15 9 3 13 10 10 15 -5 8 3 29 11 29 2 0 4 -63 4 -140z m-419
100 c0 -5 -4 -10 -9 -10 -6 0 -13 5 -16 10 -3 6 1 10 9 10 9 0 16 -4 16 -10z
m125 -28 c-3 -3 0 -11 7 -19 6 -7 8 -16 5 -20 -4 -3 -12 6 -18 20 -7 15 -16
24 -20 21 -5 -3 -6 2 -3 11 5 12 9 13 20 4 8 -7 12 -14 9 -17z m-15 -32 c0 -5
-2 -10 -4 -10 -3 0 -8 5 -11 10 -3 6 -1 10 4 10 6 0 11 -4 11 -10z m88 -31
c30 2 32 0 20 -18 -6 -11 -16 -17 -20 -15 -5 3 -7 1 -6 -4 2 -5 -8 -32 -22
-60 -23 -48 -28 -52 -61 -52 -30 0 -38 4 -43 22 -3 13 -1 25 4 26 6 2 10 8 10
13 0 6 -4 7 -10 4 -16 -10 -11 35 8 67 15 27 21 29 52 23 19 -4 50 -6 68 -6z
m52 -134 c11 -13 8 -15 -13 -15 -19 0 -25 4 -21 15 4 8 10 15 14 15 4 0 13 -7
20 -15z"/>
<path d="M161 806 c-26 -28 -22 -62 5 -52 12 4 15 2 10 -9 -3 -9 0 -15 9 -15
9 0 12 6 9 15 -5 11 -2 13 10 9 28 -11 31 25 4 52 l-24 25 -23 -25z"/>
<path d="M153 645 c-15 -16 -16 -25 -5 -25 4 0 13 9 20 20 14 23 3 26 -15 5z"/>
<path d="M455 809 c-4 -6 -5 -12 -2 -15 2 -3 7 2 10 11 7 17 1 20 -8 4z"/>
<path d="M410 790 c0 -5 5 -10 10 -10 6 0 10 5 10 10 0 6 -4 10 -10 10 -5 0
-10 -4 -10 -10z"/>
<path d="M428 733 c6 -2 18 -2 25 0 6 3 1 5 -13 5 -14 0 -19 -2 -12 -5z"/>
<path d="M520 476 c0 -8 6 -18 13 -22 6 -4 9 -4 5 1 -4 4 -3 14 3 22 9 10 8
13 -5 13 -9 0 -16 -6 -16 -14z"/>
<path d="M350 541 c0 -5 7 -15 17 -22 15 -13 15 -12 4 9 -12 23 -21 28 -21 13z"/>
<path d="M172 505 c4 -4 3 -14 -3 -22 -9 -10 -8 -13 5 -13 19 0 22 26 4 36 -7
4 -10 4 -6 -1z"/>
<path d="M147 453 c-13 -12 -7 -23 11 -23 10 0 19 7 19 15 0 15 -18 20 -30 8z"/>
<path d="M320 326 c0 -2 8 -10 18 -17 15 -13 16 -12 3 4 -13 16 -21 21 -21 13z"/>
<path d="M340 432 c6 -13 14 -21 18 -18 3 4 -2 14 -12 24 -18 16 -18 16 -6 -6z"/>
<path d="M542 320 c-7 -11 -10 -20 -6 -20 7 0 34 27 34 34 0 13 -16 5 -28 -14z"/>
<path d="M516 215 c5 -11 2 -13 -10 -9 -27 10 -31 -24 -5 -52 l23 -25 24 25
c27 27 24 63 -4 52 -12 -4 -15 -2 -10 9 3 9 0 15 -9 15 -9 0 -12 -6 -9 -15z"/>
<path d="M258 223 c6 -2 18 -2 25 0 6 3 1 5 -13 5 -14 0 -19 -2 -12 -5z"/>
<path d="M280 170 c0 -5 5 -10 10 -10 6 0 10 5 10 10 0 6 -4 10 -10 10 -5 0
-10 -4 -10 -10z"/>
<path d="M246 153 c-6 -14 -5 -15 5 -6 7 7 10 15 7 18 -3 3 -9 -2 -12 -12z"/>
<path d="M41 746 c-26 -28 -22 -62 5 -52 12 4 15 2 10 -9 -3 -9 0 -15 9 -15 9
0 12 6 9 15 -5 11 -2 13 10 9 28 -11 31 25 4 52 l-24 25 -23 -25z"/>
<path d="M636 275 c5 -11 2 -13 -10 -9 -27 10 -31 -24 -5 -52 l23 -25 24 25
c27 27 24 63 -4 52 -12 -4 -15 -2 -10 9 3 9 0 15 -9 15 -9 0 -12 -6 -9 -15z"/>
<path d="M614 113 l1 -68 30 0 c29 0 30 2 33 52 3 49 2 52 -29 67 -18 9 -33
16 -35 16 -1 0 -1 -30 0 -67z m46 -13 c0 -29 -4 -40 -15 -40 -11 0 -15 11 -15
40 0 29 4 40 15 40 11 0 15 -11 15 -40z"/>
</g>
</svg>
