<?xml version="1.0" standalone="no"?>
<!DOCTYPE svg PUBLIC "-//W3C//DTD SVG 20010904//EN"
 "http://www.w3.org/TR/2001/REC-SVG-20010904/DTD/svg10.dtd">
<svg version="1.0" xmlns="http://www.w3.org/2000/svg"
 width="72.000000pt" height="96.000000pt" viewBox="0 0 72.000000 96.000000"
 preserveAspectRatio="xMidYMid meet">
<metadata>
Created by potrace 1.16, written by Peter Selinger 2001-2019
</metadata>
<g transform="translate(0.000000,96.000000) scale(0.100000,-0.100000)"
fill="#000000" stroke="none">
<path d="M0 480 l0 -480 360 0 360 0 0 480 0 480 -360 0 -360 0 0 -480z m700
0 l0 -470 -345 0 -345 0 0 470 0 470 345 0 345 0 0 -470z"/>
<path d="M25 860 c0 -51 3 -60 18 -60 14 0 16 5 11 28 -7 24 -6 26 9 14 9 -8
13 -20 10 -28 -3 -9 2 -14 16 -14 26 0 27 10 1 42 -19 25 -19 25 0 46 25 27
25 32 0 32 -11 0 -20 -6 -20 -14 0 -8 -5 -18 -11 -22 -8 -4 -9 0 -4 15 5 16 2
21 -12 21 -15 0 -18 -9 -18 -60z"/>
<path d="M120 480 l0 -380 235 0 235 0 0 380 0 380 -235 0 -235 0 0 -380z
m164 331 c17 -37 19 -38 54 -30 53 12 93 11 123 -5 24 -12 26 -12 22 4 -3 10
3 30 12 44 13 20 26 26 51 26 31 0 34 -2 34 -32 0 -17 -3 -28 -7 -25 -8 9 -33
-12 -33 -27 0 -6 5 -3 11 7 21 36 29 2 29 -129 0 -123 -6 -154 -25 -123 -4 6
-14 8 -22 4 -14 -5 -14 -3 -3 11 11 13 11 19 1 36 -9 15 -10 23 -2 31 14 14
14 27 0 27 -5 0 -7 -5 -4 -10 3 -6 -1 -13 -9 -16 -9 -3 -14 -9 -12 -13 3 -4
-5 -18 -17 -32 -12 -14 -18 -19 -14 -13 5 8 1 17 -10 23 -13 9 -14 11 -3 10
29 -3 41 1 35 11 -3 6 0 13 8 16 8 3 14 13 13 22 -3 15 -13 16 -72 13 -141 -8
-137 -8 -118 6 24 18 15 23 -26 14 l-35 -7 23 -19 c12 -11 22 -25 22 -33 0
-10 3 -10 14 0 8 7 11 18 8 23 -3 6 -1 6 4 2 5 -5 10 -13 10 -18 1 -5 2 -13 3
-17 0 -4 9 -9 19 -10 9 -1 26 -4 37 -6 11 -2 23 -5 27 -5 11 -1 6 -51 -5 -51
-4 0 -7 6 -6 13 1 6 1 19 0 27 -1 13 -2 13 -11 0 -8 -12 -10 -12 -10 -1 0 8
-7 11 -20 8 -13 -3 -18 -1 -13 6 4 7 -1 6 -10 -2 -9 -7 -17 -16 -17 -19 0 -3
3 -2 7 1 3 4 13 1 21 -6 13 -9 14 -9 8 1 -4 7 -2 12 4 12 17 0 6 -25 -11 -26
-8 0 -20 4 -26 9 -9 6 -13 6 -13 -1 0 -6 -7 -9 -15 -6 -8 4 -13 10 -10 14 3 5
1 12 -5 15 -6 4 -8 16 -4 27 4 14 2 18 -5 14 -6 -4 -10 -4 -9 1 1 4 -3 18 -10
29 -11 20 -15 21 -51 10 -51 -15 -59 -23 -36 -39 13 -10 16 -23 13 -45 -3 -24
-1 -31 10 -30 20 4 25 -14 9 -36 -12 -16 -14 -16 -32 5 -11 12 -14 19 -7 15 6
-4 12 -2 12 3 0 17 -20 13 -27 -5 -4 -10 0 -20 10 -26 19 -10 22 -33 7 -43 -5
-3 -18 0 -30 7 -21 14 -25 48 -9 103 7 25 8 23 5 -15 -3 -37 -2 -41 7 -22 5
12 14 22 19 22 14 0 9 27 -7 40 -9 7 -13 21 -10 31 5 14 2 17 -9 13 -14 -5
-16 9 -16 110 l0 116 68 0 69 0 17 -39z m90 24 c-4 -10 -12 -11 -30 -5 -22 9
-28 6 -25 -12 2 -15 -8 -8 -19 11 -9 18 -6 19 34 19 34 0 43 -3 40 -13z m104
-5 c-7 -11 -15 -15 -18 -10 -3 5 -16 11 -28 13 -40 6 -33 14 12 15 43 1 45 0
34 -18z m-242 -241 c-1 -33 -11 -38 -19 -9 -3 11 0 20 6 20 6 0 2 7 -9 15 -19
14 -19 14 2 9 16 -4 21 -13 20 -35z m199 31 c8 12 25 4 25 -13 0 -7 -4 -6 -10
3 -8 12 -10 12 -16 -3 -7 -21 -30 -22 -37 -3 -8 19 3 28 19 15 8 -7 14 -7 19
1z m75 -96 c-12 -21 -18 -28 -14 -15 5 18 3 22 -7 17 -8 -4 -7 -2 2 6 16 13
19 19 19 40 0 8 3 9 10 2 7 -7 3 -23 -10 -50z m-215 -14 c-10 -11 -20 -18 -23
-16 -5 6 21 35 32 36 5 0 1 -9 -9 -20z m-35 0 c0 -5 -6 -10 -12 -11 -10 0 -10
-2 0 -6 6 -2 12 -9 12 -15 0 -7 -5 -6 -14 2 -8 6 -12 18 -9 26 6 16 23 19 23
4z m303 -4 c18 -14 20 -50 6 -101 -7 -25 -8 -23 -4 14 2 30 1 40 -6 30 -7 -11
-9 -8 -10 11 -1 14 -1 29 0 33 1 5 -3 6 -8 3 -5 -3 -8 -17 -7 -31 2 -13 -1
-22 -5 -19 -5 3 -9 0 -9 -6 0 -7 7 -10 15 -6 8 3 15 1 15 -4 0 -6 -4 -10 -10
-10 -5 0 -10 -8 -10 -17 0 -15 2 -16 10 -3 8 12 10 10 11 -10 1 -14 2 -33 1
-42 -1 -11 3 -15 13 -12 13 5 15 -12 15 -110 l0 -116 -68 0 -69 0 -17 39 c-17
37 -19 38 -54 30 -53 -12 -93 -11 -123 5 -24 12 -26 12 -22 -4 3 -10 -3 -30
-12 -44 -13 -20 -26 -26 -51 -26 -31 0 -34 2 -34 31 0 16 4 28 9 25 5 -3 15 2
22 12 12 15 12 16 -2 5 -9 -7 -19 -10 -22 -6 -4 3 -7 66 -7 140 0 122 6 153
25 122 4 -6 13 -8 21 -5 11 4 11 2 2 -14 -9 -14 -9 -22 2 -35 10 -12 10 -19 2
-27 -15 -15 -15 -28 -1 -28 5 0 7 5 4 10 -3 6 1 13 10 16 14 6 14 8 -1 25 -14
15 -14 20 -2 36 7 10 20 19 28 20 9 2 6 -3 -7 -13 -13 -9 -19 -22 -16 -31 5
-12 10 -10 27 9 12 13 17 18 13 12 -5 -8 -1 -17 10 -23 13 -9 14 -11 3 -10
-29 3 -41 -1 -35 -11 3 -6 0 -13 -8 -16 -22 -8 -14 -39 9 -37 59 8 182 8 178
1 -3 -4 -13 -8 -22 -8 -10 0 -12 -3 -6 -9 5 -5 25 -6 44 -2 l35 7 -22 19 c-13
11 -23 25 -23 33 0 10 -3 10 -14 0 -8 -7 -11 -17 -8 -23 3 -6 1 -6 -4 -2 -5 5
-10 13 -10 18 -1 5 -2 13 -3 17 0 4 -9 9 -18 10 -10 1 -27 4 -38 6 -11 2 -23
5 -27 5 -11 1 -6 51 5 51 4 0 7 -6 6 -12 -1 -7 -1 -20 0 -28 1 -13 2 -13 11 0
8 12 10 12 10 1 0 -8 7 -11 20 -8 13 3 18 1 13 -6 -4 -7 1 -6 10 2 9 7 17 16
17 19 0 3 -3 2 -7 -1 -3 -4 -13 -1 -21 6 -13 9 -14 9 -8 0 4 -8 2 -13 -4 -13
-7 0 -10 6 -8 12 3 8 19 12 39 12 49 -2 51 -3 44 -13 -3 -5 -1 -13 5 -16 6 -4
8 -16 4 -27 -4 -14 -2 -18 5 -14 6 4 10 4 9 -1 -1 -4 3 -18 10 -29 11 -20 15
-21 51 -10 22 6 43 15 47 19 10 10 -27 36 -43 30 -10 -4 -9 -9 4 -19 17 -12
16 -13 -4 -7 -19 4 -22 10 -16 31 4 17 2 23 -5 18 -6 -3 -13 -3 -16 2 -2 4 4
9 15 9 11 1 19 -5 19 -13 0 -24 17 -7 23 21 3 19 1 25 -9 21 -19 -7 -27 10
-14 33 7 13 16 18 27 14 11 -4 14 -3 9 6 -9 13 -1 41 11 41 4 0 16 -7 26 -14z
m-180 -3 c-13 -2 -35 -2 -50 0 -16 2 -5 4 22 4 28 0 40 -2 28 -4z m-13 -23 c0
-5 -7 -10 -15 -10 -8 0 -15 5 -15 10 0 6 7 10 15 10 8 0 15 -4 15 -10z m103
-26 c-6 -16 -23 -19 -23 -4 0 6 6 10 13 11 10 0 10 2 0 6 -7 2 -13 9 -13 15 0
7 5 6 14 -2 8 -6 12 -18 9 -26z m-46 -9 c-23 -22 -33 -18 -12 5 10 11 20 18
23 16 2 -3 -3 -12 -11 -21z m-44 8 c-13 -2 -35 -2 -50 0 -16 2 -5 4 22 4 28 0
40 -2 28 -4z m-73 -93 c0 -5 0 -13 0 -17 0 -15 -53 -8 -57 7 -4 13 -3 13 6 0
9 -12 11 -12 17 3 7 18 34 24 34 7z m-32 -233 c40 -6 33 -14 -12 -15 -43 -1
-45 0 -34 18 7 11 15 15 18 10 3 -5 16 -11 28 -13z m76 10 c-3 -9 3 -13 18
-12 13 1 22 8 21 14 -4 17 5 13 17 -8 9 -18 6 -19 -35 -19 -41 0 -44 1 -35 19
12 22 22 26 14 6z"/>
<path d="M161 806 c-26 -28 -22 -62 5 -52 12 4 15 2 10 -9 -3 -9 0 -15 9 -15
9 0 12 6 9 15 -5 11 -2 13 10 9 28 -11 31 25 4 52 l-24 25 -23 -25z"/>
<path d="M444 755 c8 -8 18 -15 22 -15 3 0 1 7 -6 15 -7 8 -17 15 -22 15 -5 0
-3 -7 6 -15z"/>
<path d="M380 750 c-12 -8 -10 -10 8 -10 13 0 20 4 17 10 -7 12 -6 12 -25 0z"/>
<path d="M562 740 c0 -14 2 -19 5 -12 2 6 2 18 0 25 -3 6 -5 1 -5 -13z"/>
<path d="M400 680 c8 -5 20 -10 25 -10 6 0 3 5 -5 10 -8 5 -19 10 -25 10 -5 0
-3 -5 5 -10z"/>
<path d="M561 644 c0 -11 3 -14 6 -6 3 7 2 16 -1 19 -3 4 -6 -2 -5 -13z"/>
<path d="M160 601 c0 -5 7 -11 15 -15 8 -3 15 -1 15 3 0 5 -7 11 -15 15 -8 3
-15 1 -15 -3z"/>
<path d="M325 588 c-4 -10 -12 -15 -19 -11 -6 4 -5 -1 3 -11 17 -20 35 -7 28
20 -4 18 -4 18 -12 2z"/>
<path d="M561 574 c0 -11 3 -14 6 -6 3 7 2 16 -1 19 -3 4 -6 -2 -5 -13z"/>
<path d="M201 516 c-9 -11 -9 -16 0 -22 7 -4 9 -3 5 4 -3 5 0 12 6 15 7 2 10
7 7 11 -3 4 -12 0 -18 -8z"/>
<path d="M504 462 c3 -5 0 -12 -6 -15 -7 -2 -10 -7 -7 -11 3 -4 12 0 18 8 9
11 9 16 0 22 -7 4 -9 3 -5 -4z"/>
<path d="M376 405 c-3 -9 -6 -24 -6 -33 1 -16 2 -16 14 0 7 10 17 14 22 10 4
-4 2 2 -6 13 -8 11 -15 21 -16 23 -1 2 -4 -4 -8 -13z"/>
<path d="M141 384 c0 -11 3 -14 6 -6 3 7 2 16 -1 19 -3 4 -6 -2 -5 -13z"/>
<path d="M520 371 c0 -5 7 -11 15 -15 8 -3 15 -1 15 3 0 5 -7 11 -15 15 -8 3
-15 1 -15 -3z"/>
<path d="M142 320 c0 -14 2 -19 5 -12 2 6 2 18 0 25 -3 6 -5 1 -5 -13z"/>
<path d="M285 280 c27 -12 43 -12 25 0 -8 5 -22 9 -30 9 -10 0 -8 -3 5 -9z"/>
<path d="M142 230 c0 -14 2 -19 5 -12 2 6 2 18 0 25 -3 6 -5 1 -5 -13z"/>
<path d="M516 215 c5 -11 2 -13 -10 -9 -27 10 -31 -24 -5 -52 l23 -25 24 25
c27 27 24 63 -4 52 -12 -4 -15 -2 -10 9 3 9 0 15 -9 15 -9 0 -12 -6 -9 -15z"/>
<path d="M250 205 c7 -8 17 -15 22 -15 5 0 3 7 -6 15 -8 8 -18 15 -22 15 -3 0
-1 -7 6 -15z"/>
<path d="M306 208 c3 -4 11 -5 19 -1 21 7 19 12 -4 10 -11 0 -18 -5 -15 -9z"/>
<path d="M286 352 c-3 -5 1 -9 9 -9 8 0 12 4 9 9 -3 4 -7 8 -9 8 -2 0 -6 -4
-9 -8z"/>
<path d="M41 746 c-26 -28 -22 -62 5 -52 12 4 15 2 10 -9 -3 -9 0 -15 9 -15 9
0 12 6 9 15 -5 11 -2 13 10 9 28 -11 31 25 4 52 l-24 25 -23 -25z"/>
<path d="M636 275 c5 -11 2 -13 -10 -9 -27 10 -31 -24 -5 -52 l23 -25 24 25
c27 27 24 63 -4 52 -12 -4 -15 -2 -10 9 3 9 0 15 -9 15 -9 0 -12 -6 -9 -15z"/>
<path d="M600 151 c0 -4 9 -20 20 -33 19 -25 19 -25 0 -46 -25 -27 -25 -32 0
-32 11 0 20 6 20 14 0 8 5 18 11 22 8 4 9 0 4 -15 -5 -16 -2 -21 12 -21 15 0
18 9 18 60 0 51 -3 60 -18 60 -14 0 -16 -5 -11 -27 7 -25 6 -27 -9 -15 -9 8
-13 20 -10 28 3 9 -2 14 -16 14 -12 0 -21 -4 -21 -9z"/>
</g>
</svg>
