<?xml version="1.0" standalone="no"?>
<!DOCTYPE svg PUBLIC "-//W3C//DTD SVG 20010904//EN"
 "http://www.w3.org/TR/2001/REC-SVG-20010904/DTD/svg10.dtd">
<svg version="1.0" xmlns="http://www.w3.org/2000/svg"
 width="72.000000pt" height="96.000000pt" viewBox="0 0 72.000000 96.000000"
 preserveAspectRatio="xMidYMid meet">
<metadata>
Created by potrace 1.16, written by Peter Selinger 2001-2019
</metadata>
<g transform="translate(0.000000,96.000000) scale(0.100000,-0.100000)"
fill="#000000" stroke="none">
<path d="M0 480 l0 -480 360 0 360 0 0 480 0 480 -360 0 -360 0 0 -480z m700
0 l0 -470 -345 0 -345 0 0 470 0 470 345 0 345 0 0 -470z"/>
<path d="M40 904 c0 -11 6 -14 23 -8 21 6 21 6 5 -13 -23 -25 -23 -33 2 -33
12 0 20 -7 20 -16 0 -12 -6 -15 -26 -10 -19 5 -25 3 -22 -6 3 -7 18 -13 34
-13 23 0 30 5 32 24 2 15 -3 30 -12 37 -14 10 -15 13 -1 24 24 20 18 30 -20
30 -25 0 -35 -4 -35 -16z"/>
<path d="M311 815 c-17 -20 -31 -42 -31 -49 0 -20 27 -39 49 -33 14 3 18 1 14
-9 -3 -9 1 -14 12 -14 11 0 15 5 12 14 -4 10 0 12 14 9 22 -6 49 13 49 33 0
18 -59 84 -75 84 -7 0 -27 -16 -44 -35z"/>
<path d="M51 746 c-26 -28 -22 -62 5 -52 12 4 15 2 10 -9 -3 -9 0 -15 9 -15 9
0 12 6 9 15 -5 11 -2 13 10 9 28 -11 31 25 4 52 l-24 25 -23 -25z"/>
<path d="M311 515 c-17 -20 -31 -42 -31 -49 0 -20 27 -39 49 -33 14 3 18 1 14
-9 -3 -9 1 -14 12 -14 11 0 15 5 12 14 -4 10 0 12 14 9 22 -6 49 13 49 33 0
18 -59 84 -75 84 -7 0 -27 -16 -44 -35z"/>
<path d="M626 275 c5 -11 2 -13 -10 -9 -27 10 -31 -24 -5 -52 l23 -25 24 25
c27 27 24 63 -4 52 -12 -4 -15 -2 -10 9 3 9 0 15 -9 15 -9 0 -12 -6 -9 -15z"/>
<path d="M343 236 c4 -10 0 -12 -14 -9 -22 6 -49 -13 -49 -33 0 -18 59 -84 75
-84 16 0 75 66 75 84 0 20 -27 39 -49 33 -14 -3 -18 -1 -14 9 3 9 -1 14 -12
14 -11 0 -15 -5 -12 -14z"/>
<path d="M607 154 c-13 -13 -7 -53 9 -62 14 -8 14 -10 0 -21 -25 -21 -19 -31
19 -31 25 0 35 4 35 16 0 11 -6 14 -22 8 -22 -6 -22 -6 -5 13 22 25 22 33 -3
33 -12 0 -20 7 -20 16 0 12 6 15 26 10 19 -5 25 -3 22 6 -5 14 -50 23 -61 12z"/>
</g>
</svg>
